<svg xmlns="http://www.w3.org/2000/svg" xmlns:xlink="http://www.w3.org/1999/xlink" width="161.907" height="38.494" viewBox="0 0 161.907 38.494">
  <defs>
    <linearGradient id="linear-gradient" y1="0.5" x2="1" y2="0.5" gradientUnits="objectBoundingBox">
      <stop offset="0" stop-color="#fb7725"/>
      <stop offset="1" stop-color="#ea2287"/>
    </linearGradient>
  </defs>
  <g id="Logo" transform="translate(0 0)">
    <g id="Groupe_634" data-name="Groupe 634">
      <path id="Tracé_838" data-name="Tracé 838" d="M-857.705-6949.252a14.593,14.593,0,0,0-14.615-13.45h-10.331a1.882,1.882,0,0,0-1.5.75c-.187.246-.373.494-.562.736a1.245,1.245,0,0,1-.1.129.1.1,0,0,1-.011.013,1.482,1.482,0,0,1-1.1.493,1.484,1.484,0,0,1-1.273-.724l-.008-.016c-.022-.037-.042-.074-.062-.111l0-.007-1.281-2.4-2.955-5.352a1.7,1.7,0,0,0,.5-.569,1.681,1.681,0,0,0,.2-.754,1.684,1.684,0,0,0-1.574-1.7,1.663,1.663,0,0,0-.476.041l-.021-.044v.048a1.685,1.685,0,0,0-.908.585,1.664,1.664,0,0,0-.361,1.037,1.66,1.66,0,0,0,.362,1.037,1.679,1.679,0,0,0,.906.584v21.8a13.441,13.441,0,0,0,13.4,13.4h7.332a14.447,14.447,0,0,0,10.234-4.256A14.436,14.436,0,0,0-857.705-6949.252Zm-3.887,1.041a9.548,9.548,0,0,1-9.52,9.52h-8.516a9.548,9.548,0,0,1-9.52-9.52h0a9.548,9.548,0,0,1,9.52-9.52h8.516a9.549,9.549,0,0,1,9.52,9.52Z" transform="translate(894.159 6972.215)" fill="url(#linear-gradient)"/>
      <g id="Groupe_633" data-name="Groupe 633" transform="translate(12.322 21.65)">
        <circle id="Ellipse_44" data-name="Ellipse 44" cx="2.354" cy="2.354" r="2.354" transform="translate(8.228 0)" fill="#171656"/>
        <circle id="Ellipse_45" data-name="Ellipse 45" cx="2.354" cy="2.354" r="2.354" transform="translate(0 0)" fill="#171656"/>
      </g>
    </g>
    <g id="Groupe_635" data-name="Groupe 635" transform="translate(46.792 14.37)">
      <path id="Tracé_839" data-name="Tracé 839" d="M-688.976-6901.906a6.323,6.323,0,0,1-6.189,6.447,5.985,5.985,0,0,1-3.219-.939,1.547,1.547,0,0,1-1.423.939,1.547,1.547,0,0,1-1.547-1.548v-14.441a1.547,1.547,0,0,1,1.547-1.547,1.548,1.548,0,0,1,1.547,1.547v3.957a5.967,5.967,0,0,1,3.1-.862A6.322,6.322,0,0,1-688.976-6901.906Zm-3.1,0a3.232,3.232,0,0,0-3.1-3.353,3.232,3.232,0,0,0-3.1,3.353,3.23,3.23,0,0,0,3.1,3.352,3.232,3.232,0,0,0,3.1-3.352Z" transform="translate(701.355 6912.997)" fill="#171656"/>
      <path id="Tracé_840" data-name="Tracé 840" d="M-643.98-6887.422a6.322,6.322,0,0,1,6.189-6.447,6.322,6.322,0,0,1,6.189,6.447,6.322,6.322,0,0,1-6.189,6.447A6.322,6.322,0,0,1-643.98-6887.422Zm9.284,0a3.232,3.232,0,0,0-3.1-3.353,3.232,3.232,0,0,0-3.1,3.353,3.231,3.231,0,0,0,3.1,3.352A3.231,3.231,0,0,0-634.7-6887.422Z" transform="translate(657.905 6898.513)" fill="#171656"/>
      <path id="Tracé_841" data-name="Tracé 841" d="M-578.05-6894.6a4.329,4.329,0,0,1-2.425.746,4.43,4.43,0,0,1-4.384-4.461v-5.338h-1.257a1.547,1.547,0,0,1-1.547-1.547,1.547,1.547,0,0,1,1.547-1.547h1.257v-2.579a1.553,1.553,0,0,1,1.547-1.546,1.553,1.553,0,0,1,1.547,1.547v2.579h2.431a1.548,1.548,0,0,1,1.547,1.547,1.548,1.548,0,0,1-1.547,1.548h-2.431v5.338a1.327,1.327,0,0,0,.361.95,1.327,1.327,0,0,0,.928.417,1.368,1.368,0,0,0,.7-.207,1.523,1.523,0,0,1,1.157-.247,1.52,1.52,0,0,1,.983.659,1.56,1.56,0,0,1-.411,2.141Z" transform="translate(615.255 6911.388)" fill="#171656"/>
      <path id="Tracé_842" data-name="Tracé 842" d="M-538.357-6911.317a1.677,1.677,0,0,1,1.676-1.677,1.677,1.677,0,0,1,1.676,1.676,1.676,1.676,0,0,1-1.676,1.677A1.676,1.676,0,0,1-538.357-6911.317Zm.129,14.313v-9.8a1.547,1.547,0,0,1,1.547-1.547,1.548,1.548,0,0,1,1.547,1.547v9.8a1.547,1.547,0,0,1-1.547,1.547,1.549,1.549,0,0,1-1.094-.453,1.55,1.55,0,0,1-.453-1.1Z" transform="translate(577.915 6912.996)" fill="#171656"/>
      <path id="Tracé_843" data-name="Tracé 843" d="M-515.293-6882.561a.515.515,0,0,1-.083-.724.515.515,0,0,1,.724-.083,6.99,6.99,0,0,0,3.922,1.357c2,.075,3.908-.708,3.952-2.438.051-1.969-1.514-2.215-3.961-2.458-2.926-.29-4.962-.8-4.89-3.511.061-2.37,2.438-3.536,5.03-3.445a8.022,8.022,0,0,1,4.517,1.583.514.514,0,0,1,.083.724.516.516,0,0,1-.725.084,6.905,6.905,0,0,0-3.876-1.359c-2.014-.081-3.954.706-4,2.439-.051,1.969,1.514,2.215,3.961,2.458,2.925.289,4.962.8,4.891,3.511-.062,2.379-2.419,3.519-4.984,3.443a8.019,8.019,0,0,1-4.564-1.581Z" transform="translate(560.704 6898.512)" fill="#171656"/>
      <path id="Tracé_844" data-name="Tracé 844" d="M-465.583-6887.422a6.351,6.351,0,0,1,6.259-6.447,6.137,6.137,0,0,1,4.24,1.705.516.516,0,0,1,.019.729.517.517,0,0,1-.729.019,5.11,5.11,0,0,0-3.53-1.422,5.33,5.33,0,0,0-5.227,5.416,5.33,5.33,0,0,0,5.229,5.416,5.117,5.117,0,0,0,3.53-1.422.515.515,0,0,1,.729.019.516.516,0,0,1-.019.729,6.139,6.139,0,0,1-4.24,1.7,6.348,6.348,0,0,1-4.466-1.926,6.349,6.349,0,0,1-1.794-4.521Z" transform="translate(522.804 6898.513)" fill="#171656"/>
      <path id="Tracé_845" data-name="Tracé 845" d="M-398.9-6901.909v5.931a.516.516,0,0,1-.516.516.516.516,0,0,1-.516-.516v-5.931a5.291,5.291,0,0,0-5.158-5.416,5.291,5.291,0,0,0-5.158,5.416v5.931a.516.516,0,0,1-.516.516.516.516,0,0,1-.516-.516v-16.5a.514.514,0,0,1,.15-.365.517.517,0,0,1,.365-.152.516.516,0,0,1,.516.516v7.008a6.125,6.125,0,0,1,5.158-2.882A6.326,6.326,0,0,1-398.9-6901.909Z" transform="translate(481.68 6913)" fill="#171656"/>
      <path id="Tracé_846" data-name="Tracé 846" d="M-350.938-6887.422a6.322,6.322,0,0,1,6.189-6.447,6.322,6.322,0,0,1,6.189,6.447,6.322,6.322,0,0,1-6.189,6.447A6.323,6.323,0,0,1-350.938-6887.422Zm11.347,0a5.292,5.292,0,0,0-5.158-5.416,5.292,5.292,0,0,0-5.158,5.416,5.292,5.292,0,0,0,5.158,5.416A5.292,5.292,0,0,0-339.591-6887.422Z" transform="translate(435.981 6898.513)" fill="#171656"/>
      <path id="Tracé_847" data-name="Tracé 847" d="M-291.646-6887.422a6.322,6.322,0,0,1,6.189-6.447,6.322,6.322,0,0,1,6.189,6.447,6.322,6.322,0,0,1-6.189,6.447A6.322,6.322,0,0,1-291.646-6887.422Zm11.347,0a5.292,5.292,0,0,0-5.158-5.416,5.292,5.292,0,0,0-5.158,5.416,5.292,5.292,0,0,0,5.158,5.416A5.292,5.292,0,0,0-280.3-6887.422Z" transform="translate(391.079 6898.513)" fill="#171656"/>
      <path id="Tracé_848" data-name="Tracé 848" d="M-231.287-6895.979v-16.5a.516.516,0,0,1,.151-.366.515.515,0,0,1,.366-.151.516.516,0,0,1,.516.516v16.5a.516.516,0,0,1-.516.516.516.516,0,0,1-.517-.514Z" transform="translate(345.369 6913)" fill="#171656"/>
      <path id="Tracé_849" data-name="Tracé 849" d="M-632.683-6841.55h0a1.063,1.063,0,0,0-1.4-.105,8.067,8.067,0,0,1-4.85,1.67,8.068,8.068,0,0,1-4.85-1.67,1.063,1.063,0,0,0-1.4.105h0a1.066,1.066,0,0,0-.3.823,1.064,1.064,0,0,0,.416.771,10.1,10.1,0,0,0,6.141,2.1,10.1,10.1,0,0,0,6.141-2.1,1.066,1.066,0,0,0,.412-.773,1.067,1.067,0,0,0-.306-.821Z" transform="translate(659.05 6859.134)" fill="url(#linear-gradient)"/>
    </g>
  </g>
</svg>
