<svg id="MDI_bus-clock" data-name="MDI / bus-clock" xmlns="http://www.w3.org/2000/svg" width="24" height="24" viewBox="0 0 24 24">
  <rect id="Boundary" width="24" height="24" fill="#fff" opacity="0"/>
  <path id="Path_bus-clock" data-name="Path / bus-clock" d="M16.5,4V8.25l2.86,1.69-.75,1.22L15,9V4h1.5M16,13a4.775,4.775,0,0,0,3.5-1.47A4.724,4.724,0,0,0,21,8a4.691,4.691,0,0,0-1.5-3.5,4.868,4.868,0,0,0-7.03,0A4.775,4.775,0,0,0,11,8a4.81,4.81,0,0,0,1.47,3.53A4.81,4.81,0,0,0,16,13m-2.5,6a1.419,1.419,0,0,0,1.08-.46A1.484,1.484,0,0,0,15,17.5a1.5,1.5,0,0,0-.42-1.07A1.4,1.4,0,0,0,13.5,16a1.4,1.4,0,0,0-1.08.43A1.5,1.5,0,0,0,12,17.5a1.484,1.484,0,0,0,.42,1.04A1.419,1.419,0,0,0,13.5,19M3,13h8.11A6.632,6.632,0,0,1,9,8H3v5m1.5,6a1.419,1.419,0,0,0,1.08-.46A1.484,1.484,0,0,0,6,17.5a1.5,1.5,0,0,0-.42-1.07A1.4,1.4,0,0,0,4.5,16a1.4,1.4,0,0,0-1.08.43A1.5,1.5,0,0,0,3,17.5a1.484,1.484,0,0,0,.42,1.04A1.419,1.419,0,0,0,4.5,19M16,1a6.72,6.72,0,0,1,4.95,2.05A6.72,6.72,0,0,1,23,8a6.636,6.636,0,0,1-1.72,4.59A6.936,6.936,0,0,1,17,14.91V18a2.907,2.907,0,0,1-1,2.2V22a1.035,1.035,0,0,1-.3.71A.929.929,0,0,1,15,23H14a.99.99,0,0,1-1-1V21H5v1a.99.99,0,0,1-1,1H3a.929.929,0,0,1-.7-.29A1.035,1.035,0,0,1,2,22V20.2A2.907,2.907,0,0,1,1,18V8A3.124,3.124,0,0,1,3.05,4.8,17.007,17.007,0,0,1,9,4h.61c.28,0,.48.03.61.03A6.652,6.652,0,0,1,16,1Z" fill="#fff"/>
</svg>
