<svg id="Composant_1_1" data-name="Composant 1 – 1" xmlns="http://www.w3.org/2000/svg" width="21.436" height="24.437" viewBox="0 0 21.436 24.437">
  <path id="Soustraction_1" data-name="Soustraction 1" d="M14,25H13a1,1,0,0,1-1-1V23H4v1a1,1,0,0,1-1,1H2a1,1,0,0,1-1-1V22.22A3,3,0,0,1,0,20V10A3.288,3.288,0,0,1,2.343,6.688,16.88,16.88,0,0,1,8,6h.071A7.086,7.086,0,0,0,8,7a6.937,6.937,0,0,0,.674,3H2v5H14V13.929a7.083,7.083,0,0,0,2,0V20a3,3,0,0,1-1,2.22V24A1,1,0,0,1,14,25Zm-1.5-7A1.5,1.5,0,1,0,14,19.5,1.5,1.5,0,0,0,12.5,18Zm-9,0A1.5,1.5,0,1,0,5,19.5,1.5,1.5,0,0,0,3.5,18Z" transform="translate(0 -0.563)" fill="#fff"/>
  <path id="Path_check-circle" data-name="Path / check-circle" d="M8.342,2a6.342,6.342,0,1,0,6.342,6.342A6.36,6.36,0,0,0,8.342,2M7.073,11.512,3.9,8.342,4.8,7.447l2.277,2.27L11.887,4.9l.894.9Z" transform="translate(6.753 -2)" fill="#fff"/>
</svg>
