<svg xmlns="http://www.w3.org/2000/svg" width="24.402" height="24" viewBox="0 0 24.402 24">
  <g id="Groupe_5" data-name="Groupe 5" transform="translate(-281.054 -281.465)">
    <path id="Tracé_4" data-name="Tracé 4" d="M291.311,293.895a6.217,6.217,0,1,0-6.071-6.215A6.144,6.144,0,0,0,291.311,293.895Zm2.938-3.764a3.346,3.346,0,0,1-5.754,0Zm11.056,10.5-5.554,4.739a.42.42,0,0,1-.564-.026l-2.765-2.831a.437.437,0,0,1,0-.606l.592-.606a.413.413,0,0,1,.592,0l1.954,2,4.673-3.987a.413.413,0,0,1,.59.055l.536.658A.437.437,0,0,1,305.306,300.63Zm-9.535,2.548,1.053,1.078a38.785,38.785,0,0,1-5.513.354c-5.854,0-8.718-.979-9.768-1.457a.93.93,0,0,1-.49-.78v-2.048a5.97,5.97,0,0,1,5.2-5.958.476.476,0,0,1,.292.082,7.949,7.949,0,0,0,9.538,0,.476.476,0,0,1,.292-.082,5.97,5.97,0,0,1,5.2,5.958v.035l-1.952,1.664-1.36-1.391a1.317,1.317,0,0,0-1.895,0l-.592.606A1.4,1.4,0,0,0,295.771,303.178Z" fill="#59cc6b"/>
  </g>
</svg>
