<svg id="Capa_1" enable-background="new 0 0 512 512" height="512" viewBox="0 0 512 512" width="512" xmlns="http://www.w3.org/2000/svg"><g><g><path d="m467.74 199.265c13.902-19.246 16.107-45.622 3.468-67.514-12.64-21.893-36.584-33.171-60.203-30.754 2.417-23.619-8.861-47.563-30.754-60.203-21.893-12.64-48.268-10.435-67.514 3.468-9.718-21.664-31.457-36.762-56.737-36.762-25.28 0-47.019 15.098-56.735 36.76-19.246-13.902-45.622-16.107-67.514-3.468-21.893 12.64-33.171 36.584-30.754 60.203-23.619-2.417-47.563 8.861-60.203 30.754-12.64 21.893-10.435 48.268 3.468 67.514-21.664 9.718-36.762 31.457-36.762 56.737 0 25.28 15.098 47.019 36.76 56.735-13.902 19.246-16.107 45.622-3.468 67.514 12.64 21.893 36.584 33.171 60.203 30.754-2.417 23.619 8.861 47.563 30.754 60.203 21.893 12.64 48.268 10.435 67.514-3.468 9.716 21.663 31.456 36.76 56.735 36.76 25.28 0 47.019-15.098 56.735-36.76 19.246 13.902 45.622 16.107 67.514 3.468 21.893-12.64 33.171-36.584 30.754-60.203 23.619 2.417 47.563-8.861 60.203-30.754 12.64-21.893 10.435-48.268-3.468-67.514 21.663-9.716 36.76-31.456 36.76-56.735.004-25.28-15.094-47.019-36.756-56.735z" fill="#e27f83"/><path d="m127.32 94.68c0 2.1.1 4.21.32 6.32-23.62-2.42-47.56 8.86-60.2 30.75-5.65 9.79-8.34 20.47-8.34 31.01 0 13.04 4.11 25.86 11.8 36.5-21.66 9.72-36.76 31.46-36.76 56.74 0 12.64 3.78 24.4 10.26 34.2 6.48 9.82 15.67 17.68 26.5 22.54-13.9 19.24-16.1 45.62-3.46 67.51 11.51 19.94 32.4 31.07 53.88 31.07 2.1 0 4.21-.1 6.32-.32-2.42 23.62 8.86 47.57 30.75 60.21 5.67 3.27 11.63 5.55 17.7 6.88-4.37.96-8.84 1.45-13.34 1.45-10.54 0-21.22-2.68-31-8.33-21.89-12.64-33.17-36.59-30.75-60.21-2.11.22-4.22.32-6.32.32-21.48 0-42.38-11.13-53.89-31.07-12.64-21.89-10.43-48.27 3.47-67.51-10.83-4.86-20.02-12.72-26.5-22.54-6.48-9.8-10.26-21.56-10.26-34.2 0-25.28 15.1-47.02 36.76-56.74-7.69-10.64-11.8-23.47-11.8-36.51 0-10.54 2.68-21.22 8.33-31 12.64-21.89 36.59-33.17 60.21-30.75-.22-2.11-.32-4.22-.32-6.32 0-21.48 11.13-42.38 31.07-53.89 13.96-8.06 29.74-10.08 44.34-6.88-6.07 1.33-12.03 3.61-17.7 6.88-19.94 11.51-31.07 32.41-31.07 53.89z" fill="#c8646d"/><circle cx="259.376" cy="256" fill="#f8f6f9" r="183.42"/><path d="m293.676 436.22c-11.11 2.1-22.58 3.2-34.3 3.2-101.3 0-183.42-82.12-183.42-183.42s82.12-183.42 183.42-183.42c11.72 0 23.19 1.1 34.3 3.2-84.91 16.06-149.13 90.64-149.13 180.22s64.22 164.16 149.13 180.22z" fill="#dddaec"/><path d="m311.051 256 44.155-44.155c7.45-7.45 7.45-19.53 0-26.98l-24.695-24.695c-7.45-7.45-19.53-7.45-26.98 0l-44.155 44.155-44.155-44.155c-7.45-7.45-19.53-7.45-26.98 0l-24.695 24.695c-7.45 7.45-7.45 19.53 0 26.98l44.155 44.155-44.155 44.155c-7.45 7.45-7.45 19.53 0 26.98l24.695 24.695c7.45 7.45 19.53 7.45 26.98 0l44.155-44.155 44.155 44.155c7.45 7.45 19.53 7.45 26.98 0l24.695-24.695c7.45-7.45 7.45-19.53 0-26.98z" fill="#e27f83"/><g fill="#c8646d"><path d="m270.795 215.744 55.573-55.573c.653-.653 1.353-1.229 2.071-1.767-7.473-5.605-18.112-5.03-24.908 1.767l-44.155 44.155z"/><path d="m211.078 351.83-24.695-24.695c-7.45-7.45-7.45-19.53 0-26.98l44.155-44.155-44.155-44.155c-7.45-7.45-7.45-19.53 0-26.98l24.695-24.695c.653-.653 1.353-1.229 2.071-1.767-7.473-5.605-18.112-5.03-24.908 1.767l-24.695 24.695c-7.45 7.45-7.45 19.53 0 26.98l44.155 44.155-44.155 44.155c-7.45 7.45-7.45 19.53 0 26.98l24.695 24.695c6.797 6.797 17.436 7.372 24.908 1.767-.718-.539-1.417-1.114-2.071-1.767z"/><path d="m326.368 351.83-55.573-55.573-11.418 11.418 44.155 44.155c6.797 6.797 17.436 7.372 24.908 1.767-.719-.539-1.419-1.114-2.072-1.767z"/></g></g><g><path d="m256 512c-24.517 0-47.082-12.949-59.602-33.603-10.256 5.613-21.935 8.643-33.648 8.643-12.163 0-24.18-3.228-34.752-9.336-21.232-12.26-34.296-34.754-34.807-58.9-24.281-.521-46.748-13.757-58.897-34.805-12.258-21.229-12.327-47.237-.701-68.401-8.819-5.341-16.362-12.582-22.094-21.267-7.521-11.376-11.499-24.633-11.499-38.331 0-24.517 12.949-47.082 33.603-59.601-5.613-10.257-8.643-21.935-8.643-33.649 0-12.163 3.229-24.179 9.336-34.752 12.26-21.231 34.757-34.295 58.9-34.807.522-24.28 13.757-46.747 34.804-58.897 21.229-12.259 47.237-12.327 68.401-.7 5.341-8.82 12.582-16.362 21.268-22.094 11.376-7.522 24.633-11.5 38.331-11.5 24.517 0 47.082 12.949 59.602 33.603 10.256-5.613 21.935-8.643 33.648-8.643 12.163 0 24.18 3.228 34.752 9.336 3.431 1.979 6.711 4.264 9.745 6.789 3.184 2.649 3.618 7.378.969 10.562-2.65 3.184-7.379 3.617-10.562.969-2.38-1.98-4.954-3.773-7.651-5.329-8.297-4.794-17.72-7.326-27.252-7.326-11.451 0-22.856 3.686-32.116 10.379-1.828 1.321-4.152 1.75-6.333 1.166-2.179-.583-3.979-2.116-4.903-4.174-8.815-19.641-28.401-32.332-49.899-32.332-10.747 0-21.143 3.118-30.063 9.016-8.712 5.749-15.568 13.81-19.834 23.315-.923 2.058-2.724 3.591-4.902 4.174-2.176.584-4.503.156-6.332-1.165-17.447-12.605-40.751-13.804-59.367-3.054-16.852 9.728-27.32 27.888-27.32 47.395 0 1.901.094 3.766.279 5.542.234 2.246-.556 4.479-2.151 6.077s-3.825 2.392-6.073 2.163c-21.412-2.192-42.198 8.42-52.95 27.04-4.792 8.295-7.325 17.718-7.325 27.25 0 11.451 3.686 22.857 10.378 32.117 1.321 1.828 1.75 4.154 1.167 6.333s-2.117 3.98-4.174 4.903c-19.643 8.81-32.333 28.396-32.333 49.894 0 10.747 3.118 21.143 9.016 30.063 5.75 8.712 13.81 15.569 23.315 19.834 2.058.923 3.59 2.724 4.174 4.902.583 2.179.156 4.504-1.165 6.332-12.605 17.448-13.804 40.751-3.054 59.367 9.728 16.852 27.888 27.321 47.395 27.321 1.898 0 3.762-.094 5.542-.28 2.246-.235 4.478.556 6.076 2.151 1.599 1.595 2.393 3.826 2.163 6.073-2.194 21.415 8.419 42.199 27.04 52.951 8.295 4.792 17.717 7.325 27.25 7.325 11.451 0 22.856-3.686 32.116-10.379 1.829-1.321 4.154-1.75 6.333-1.166 2.179.583 3.979 2.116 4.903 4.174 8.812 19.641 28.398 32.332 49.896 32.332 10.747 0 21.143-3.118 30.063-9.016 8.712-5.749 15.568-13.81 19.834-23.315.923-2.058 2.724-3.591 4.902-4.174 2.179-.584 4.504-.156 6.332 1.165 17.448 12.605 40.752 13.804 59.367 3.054 16.852-9.728 27.32-27.888 27.32-47.395 0-1.901-.094-3.766-.279-5.542-.234-2.246.556-4.479 2.151-6.077s3.824-2.393 6.073-2.163c21.415 2.195 42.199-8.42 52.95-27.04 4.792-8.295 7.325-17.718 7.325-27.25 0-11.451-3.686-22.857-10.378-32.117-1.321-1.828-1.75-4.154-1.167-6.333s2.117-3.98 4.174-4.903c19.643-8.81 32.333-28.396 32.333-49.894 0-10.747-3.118-21.143-9.016-30.063-5.75-8.712-13.81-15.569-23.315-19.834-2.058-.923-3.59-2.724-4.174-4.902-.583-2.179-.156-4.504 1.165-6.332 12.605-17.448 13.804-40.751 3.054-59.367-9.728-16.852-27.888-27.321-47.395-27.321-1.898 0-3.762.094-5.542.28-2.246.233-4.479-.556-6.077-2.152-1.598-1.595-2.393-3.826-2.162-6.073.922-8.992-.43-18.186-3.908-26.585-1.585-3.827.232-8.214 4.06-9.799 3.826-1.585 8.214.233 9.799 4.06 3.327 8.033 5.125 16.641 5.314 25.285 24.283.52 46.752 13.755 58.902 34.805 12.258 21.229 12.327 47.237.701 68.401 8.819 5.341 16.362 12.582 22.094 21.267 7.522 11.375 11.5 24.632 11.5 38.33 0 24.517-12.949 47.082-33.603 59.601 5.613 10.257 8.643 21.935 8.643 33.649 0 12.163-3.229 24.179-9.336 34.752-12.26 21.231-34.757 34.295-58.9 34.807-.521 24.281-13.756 46.748-34.804 58.897-21.229 12.258-47.238 12.327-68.401.7-5.341 8.82-12.582 16.362-21.268 22.094-11.376 7.522-24.633 11.5-38.331 11.5z"/><path d="m259.38 446.92c-71.724 0-136.75-39.612-169.703-103.376-1.901-3.68-.46-8.205 3.22-10.106 3.682-1.902 8.205-.46 10.106 3.219 30.366 58.76 90.287 95.263 156.377 95.263 97.002 0 175.92-78.917 175.92-175.92s-78.918-175.92-175.92-175.92-175.92 78.918-175.92 175.92c0 18.531 2.862 36.77 8.506 54.211 1.275 3.941-.886 8.169-4.827 9.445-3.939 1.276-8.169-.886-9.445-4.827-6.127-18.935-9.234-38.728-9.234-58.829 0-105.274 85.646-190.92 190.92-190.92s190.92 85.646 190.92 190.92-85.647 190.92-190.92 190.92z"/><path d="m201.731 364.905c-6.806 0-13.612-2.591-18.793-7.772l-24.695-24.695c-10.363-10.362-10.363-27.224 0-37.586l38.852-38.852-38.852-38.852c-10.363-10.363-10.363-27.224 0-37.586l24.695-24.695c10.362-10.363 27.224-10.363 37.586 0l38.852 38.851 38.852-38.851c10.362-10.363 27.224-10.363 37.586 0l24.695 24.695c5.02 5.02 7.785 11.694 7.785 18.793s-2.765 13.773-7.785 18.793l-38.852 38.852 38.852 38.852c5.02 5.02 7.785 11.694 7.785 18.793s-2.765 13.774-7.785 18.793l-24.695 24.695c-10.362 10.363-27.224 10.363-37.586 0l-38.852-38.851-38.852 38.851c-5.181 5.181-11.987 7.772-18.793 7.772zm0-202.817c-2.965 0-5.93 1.128-8.187 3.385l-24.695 24.695c-4.514 4.514-4.514 11.859 0 16.374l44.155 44.155c1.407 1.406 2.197 3.314 2.197 5.303s-.79 3.897-2.197 5.303l-44.155 44.155c-4.514 4.514-4.514 11.859 0 16.373l24.695 24.695c4.515 4.514 11.859 4.514 16.374 0l44.155-44.155c2.929-2.929 7.678-2.929 10.606 0l44.155 44.155c4.514 4.514 11.858 4.514 16.373 0l24.695-24.695c2.187-2.187 3.391-5.094 3.391-8.187 0-3.092-1.204-6-3.391-8.187l-44.155-44.155c-2.929-2.929-2.929-7.677 0-10.606l44.155-44.155c2.187-2.187 3.391-5.094 3.391-8.187s-1.204-6-3.391-8.187l-24.695-24.695c-4.515-4.514-11.858-4.514-16.373 0l-44.155 44.155c-2.929 2.929-7.678 2.928-10.606 0l-44.155-44.155c-2.257-2.255-5.222-3.384-8.187-3.384z"/></g></g></svg>