<svg xmlns="http://www.w3.org/2000/svg" width="20.02" height="10.857" viewBox="0 0 20.02 10.857">
  <path id="attachment-clip" d="M5.429,0A5.435,5.435,0,0,0,0,5.429V15.706a.664.664,0,1,0,1.327,0V5.429a4.1,4.1,0,0,1,8.2,0v10.6a2.672,2.672,0,0,1-2.668,2.668c-.011,0-.021.006-.032.006s-.021-.006-.032-.006a2.671,2.671,0,0,1-2.668-2.668V9.669a1.3,1.3,0,1,1,2.6,0v6.038a.664.664,0,1,0,1.327,0V9.669a2.627,2.627,0,1,0-5.254,0v6.356a4,4,0,0,0,4,4c.012,0,.021-.006.032-.007s.021.007.032.007a4,4,0,0,0,4-4V5.429A5.435,5.435,0,0,0,5.429,0Z" transform="translate(0 10.857) rotate(-90)" fill="#4d67f4"/>
</svg>
