<svg width="142" height="142" viewBox="0 0 142 142" fill="none" xmlns="http://www.w3.org/2000/svg">
<path d="M142 134.439C141.823 134.859 141.646 135.279 141.492 135.699C140.21 139.103 136.585 142.065 132.541 141.999C127.369 141.933 122.198 141.999 117.026 141.999C116.629 141.999 116.231 141.955 115.811 141.933C116.518 140.496 117.247 139.236 117.778 137.865C119.126 134.373 119.413 130.726 119.038 126.99C118.728 123.962 117.358 121.574 115.104 119.629C113.866 118.546 112.407 117.883 110.684 117.397C110.507 116.225 110.264 115.032 110.109 113.816C109.601 109.859 108.496 106.079 107.059 102.366C103.877 94.0544 98.8818 87.0031 92.2738 81.0791C86.395 75.7961 79.6543 71.9721 72.0959 69.629C71.7423 69.5185 71.4108 69.3637 70.9688 69.1869V67.5291C70.9688 48.4087 71.0572 29.2884 70.9246 10.1459C70.8804 5.19454 74.3502 1.23785 78.0631 0.243149C78.2399 0.19894 78.3725 0.0884178 78.5272 0C97.1801 0 115.855 0 134.508 0C134.751 0.110522 134.994 0.243149 135.237 0.309462C138.442 1.39258 140.541 3.58092 141.669 6.74185C141.757 6.985 141.889 7.22815 142 7.4713V134.439ZM106.529 45.513C101.644 45.513 96.7381 45.513 91.8538 45.513C91.1245 45.513 90.3731 45.6015 89.688 45.8004C88.1852 46.2425 87.2348 47.2814 86.9696 48.8066C86.6823 50.4202 87.1464 51.8128 88.5388 52.8075C89.5333 53.5148 90.6383 53.6917 91.8096 53.6696C101.644 53.6696 111.457 53.6696 121.292 53.6696C121.977 53.6696 122.684 53.5812 123.325 53.4043C124.894 52.9843 125.867 51.8791 126.132 50.3097C126.397 48.6961 125.911 47.3035 124.496 46.3309C123.546 45.6678 122.463 45.4909 121.358 45.4909C116.43 45.4909 111.479 45.4909 106.551 45.4909L106.529 45.513ZM106.44 70.3363C111.369 70.3363 116.319 70.3363 121.248 70.3363C121.933 70.3363 122.64 70.2479 123.281 70.0711C125.447 69.4964 126.662 67.2196 125.999 65.0755C125.425 63.1966 123.855 62.1577 121.491 62.1577C111.523 62.1577 101.556 62.1577 91.5886 62.1577C90.9035 62.1577 90.1963 62.2461 89.5554 62.4671C88.0968 62.9755 87.1464 64.0145 86.9254 65.5618C86.7044 67.1312 87.1464 68.4795 88.4946 69.4521C89.4449 70.1374 90.5057 70.3363 91.6328 70.3363C96.5613 70.3363 101.512 70.3363 106.44 70.3363ZM106.551 28.7579C107.987 28.7579 109.402 28.78 110.838 28.7579C111.523 28.7579 112.231 28.6695 112.871 28.4705C114.352 28.0284 115.325 26.9674 115.59 25.4422C115.877 23.8286 115.413 22.436 114.021 21.4413C113.115 20.7782 112.098 20.5792 111.015 20.5792C108.009 20.5792 105.026 20.5792 102.02 20.5792C101.423 20.5792 100.827 20.6898 100.252 20.8445C98.1083 21.4413 96.8928 23.7402 97.5779 25.8622C98.1525 27.6527 99.6553 28.6916 101.843 28.7358C103.412 28.78 104.982 28.7358 106.551 28.7358V28.7579Z" fill="#E8E8FF" fill-opacity="0.68"/>
<path d="M102.241 116.955H8.82207C8.53477 113.241 11.3636 103.515 15.6953 96.9059C19.7176 90.7829 24.7566 85.7652 31.011 81.9412C37.1992 78.1613 43.9398 75.973 51.2109 75.2656V66.6228C50.2385 66.6228 49.244 66.6228 48.2495 66.5565C46.4151 66.4902 45.0891 65.6502 44.3377 63.9702C43.2547 61.5388 44.6692 58.7315 47.277 58.1568C47.8074 58.0463 48.36 57.9357 48.9125 57.9357C53.3105 57.9357 57.6864 57.9357 62.0844 57.9357C63.7198 57.9357 65.1785 58.3557 66.2172 59.7704C67.2338 61.1851 67.3443 62.6661 66.5708 64.1913C65.8415 65.6944 64.5818 66.468 62.9242 66.5565C61.9076 66.6007 60.9131 66.5565 59.808 66.5565V75.1993C74.0629 76.8571 85.511 83.3337 93.9976 94.9386C99.368 102.277 102.307 112.025 102.241 116.932V116.955ZM23.2095 104.178C23.1432 106.963 26.2152 108.886 28.4253 108.069C29.5966 107.649 30.3701 106.897 30.9668 105.858C32.6465 102.896 34.7681 100.31 37.4644 98.2321C37.9727 97.8342 38.5031 97.4585 38.9672 97.0164C40.5143 95.4912 40.6027 93.3249 39.2545 91.645C37.9727 90.0535 35.6079 89.6556 33.9062 90.8713C29.7292 93.8554 26.3036 97.5469 23.8946 102.123C23.5631 102.741 23.4305 103.493 23.2095 104.178ZM50.4816 93.1923C51.675 93.0597 52.6917 92.9934 53.6862 92.7944C55.7857 92.3745 57.156 90.164 56.6256 88.0862C56.1394 86.141 54.7028 84.9473 52.6254 84.9031C51.4761 84.881 50.3269 85.0579 49.1777 85.1463C47.4096 85.2789 45.8847 86.6936 45.5974 88.462C45.3101 90.2524 46.2604 92.1313 47.94 92.7281C48.7799 93.0376 49.7302 93.0597 50.4816 93.1702V93.1923Z" fill="#E8E8FF" fill-opacity="0.68"/>
<path d="M55.5205 125.222C72.759 125.222 89.9753 125.222 107.214 125.222C107.678 125.222 108.142 125.2 108.606 125.222C109.755 125.332 110.927 126.261 110.971 127.388C111.037 129.399 111.236 131.433 110.772 133.445C109.623 138.484 104.849 141.977 100.031 141.977C70.3721 141.933 40.7132 141.933 11.0763 141.977C6.08161 141.977 1.06478 138.263 0.158657 132.627C-0.10655 130.969 0.0260536 129.223 0.0923553 127.498C0.136556 126.283 1.26368 125.31 2.47921 125.2C2.94333 125.155 3.40744 125.2 3.87155 125.2C21.11 125.2 38.3263 125.2 55.5647 125.2L55.5205 125.222Z" fill="#E8E8FF" fill-opacity="0.68"/>
</svg>
