<svg xmlns="http://www.w3.org/2000/svg" xmlns:xlink="http://www.w3.org/1999/xlink" width="51.354" height="51.354" viewBox="0 0 51.354 51.354">
  <defs>
    <filter id="Tracé_1638" x="0" y="0" width="51.354" height="51.354" filterUnits="userSpaceOnUse">
      <feOffset dy="3" input="SourceAlpha"/>
      <feGaussianBlur stdDeviation="3" result="blur"/>
      <feFlood flood-color="#e24b4b" flood-opacity="0.204"/>
      <feComposite operator="in" in2="blur"/>
      <feComposite in="SourceGraphic"/>
    </filter>
  </defs>
  <g id="Clock" transform="translate(9 6)">
    <g id="Desactive">
      <path id="Tracé_1638-2" data-name="Tracé 1638" d="M334.842,318.176a16.677,16.677,0,1,1-16.665-16.688A16.676,16.676,0,0,1,334.842,318.176Z" transform="translate(-301.488 -301.488)" fill="#d9d9d9"/>
      <ellipse id="Ellipse_33" data-name="Ellipse 33" cx="13.297" cy="13.297" rx="13.297" ry="13.297" transform="translate(3.384 3.384)" fill="#fff"/>
      <g id="Groupe_443" data-name="Groupe 443" transform="translate(13.194 6.708)">
        <path id="Tracé_1639" data-name="Tracé 1639" d="M403.005,358.919v-11.88a1.087,1.087,0,1,0-2.173,0v11.88Z" transform="translate(-398.679 -345.952)" fill="#d9d9d9"/>
        <path id="Tracé_1640" data-name="Tracé 1640" d="M405.265,406.511l-6.523-6.523A.893.893,0,0,1,400,398.726l6.523,6.523a.893.893,0,1,1-1.263,1.263Z" transform="translate(-396.762 -388.828)" fill="#d9d9d9"/>
        <path id="Tracé_1641" data-name="Tracé 1641" d="M395.586,392.358a3.241,3.241,0,1,1-3.228-3.254A3.254,3.254,0,0,1,395.586,392.358Z" transform="translate(-389.104 -381.183)" fill="#d9d9d9"/>
      </g>
    </g>
    <g id="Active">
      <g transform="matrix(1, 0, 0, 1, -9, -6)" filter="url(#Tracé_1638)">
        <path id="Tracé_1638-3" data-name="Tracé 1638" d="M334.842,318.176a16.677,16.677,0,1,1-16.665-16.688A16.676,16.676,0,0,1,334.842,318.176Z" transform="translate(-292.49 -295.49)" fill="#f78d23"/>
      </g>
      <ellipse id="Ellipse_33-2" data-name="Ellipse 33" cx="13.297" cy="13.297" rx="13.297" ry="13.297" transform="translate(3.384 3.384)" fill="#fff"/>
      <path id="Tracé_1639-2" data-name="Tracé 1639" d="M402.87,358.112V346.971a1.019,1.019,0,1,0-2.038,0v11.141Z" transform="translate(-385.308 -338.686)" fill="#65b1ef"/>
      <path id="Tracé_1640-2" data-name="Tracé 1640" d="M404.843,406.011l-6.117-6.117a.837.837,0,1,1,1.184-1.184l6.117,6.117a.837.837,0,0,1-1.184,1.184Z" transform="translate(-383.364 -382.162)" fill="#f4c534"/>
      <path id="Tracé_1641-2" data-name="Tracé 1641" d="M395.183,392.156a3.039,3.039,0,1,1-3.027-3.052A3.052,3.052,0,0,1,395.183,392.156Z" transform="translate(-375.599 -374.41)" fill="#3e4347"/>
    </g>
  </g>
</svg>
