<svg id="Capa_1" enable-background="new 0 0 512 512" height="512" viewBox="0 0 512 512" width="512" xmlns="http://www.w3.org/2000/svg"><g><path d="m497 0h-371.29c-8.284 0-15 6.716-15 15v90h-95.71c-8.284 0-15 6.716-15 15v289.033c0 8.284 6.716 15 15 15h64.278l49.757 80.83c2.73 4.435 7.566 7.137 12.774 7.137s10.043-2.702 12.774-7.137l49.757-80.83h181.948c8.284 0 15-6.716 15-15v-90.003h95.712c8.284 0 15-6.716 15-15v-289.03c0-8.284-6.716-15-15-15zm-125.712 394.033h-175.328c-5.208 0-10.043 2.702-12.774 7.137l-41.377 67.216-41.377-67.216c-2.73-4.435-7.566-7.137-12.774-7.137h-57.658v-259.033h341.288zm110.712-105.003h-80.712v-169.03c0-8.284-6.716-15-15-15h-245.578v-75h341.29z"/><path d="m331.288 264.5c0-8.284-6.716-15-15-15h-231.288c-8.284 0-15 6.716-15 15s6.716 15 15 15h231.288c8.284 0 15-6.716 15-15z"/><path d="m316.29 309.5h-85.65c-8.284 0-15 6.716-15 15s6.716 15 15 15h85.65c8.284 0 15-6.716 15-15s-6.716-15-15-15z"/><path d="m170.64 309.5h-85.64c-8.284 0-15 6.716-15 15s6.716 15 15 15h85.64c8.284 0 15-6.716 15-15s-6.716-15-15-15z"/><path d="m230.64 219.5h85.65c8.284 0 15-6.716 15-15s-6.716-15-15-15h-85.65c-8.284 0-15 6.716-15 15s6.716 15 15 15z"/><path d="m70 204.5c0 8.284 6.716 15 15 15h85.64c8.284 0 15-6.716 15-15s-6.716-15-15-15h-85.64c-8.284 0-15 6.716-15 15z"/></g></svg>