<svg xmlns="http://www.w3.org/2000/svg" width="33.743" height="33.83" viewBox="0 0 33.743 33.83">
  <g id="edit-tools" transform="translate(-0.658 0)">
    <g id="Groupe_459" data-name="Groupe 459" transform="translate(2.984 0.494)">
      <g id="Groupe_456" data-name="Groupe 456">
        <g id="Groupe_454" data-name="Groupe 454" transform="translate(22.181 2.945)">
          <path id="Tracé_1683" data-name="Tracé 1683" d="M373.766,57.2h-1.307V52.18h1.31a.847.847,0,0,1,.847.847v3.319A.85.85,0,0,1,373.766,57.2Z" transform="translate(-372.459 -52.18)" fill="#b3e59f"/>
          <path id="Tracé_1684" data-name="Tracé 1684" d="M373.769,158.943h-1.311v-5.015h1.309a.847.847,0,0,1,.847.847V158.1A.846.846,0,0,1,373.769,158.943Z" transform="translate(-372.459 -147.221)" fill="#ff8086"/>
          <path id="Tracé_1685" data-name="Tracé 1685" d="M373.744,260.69h-1.285v-5.015h1.36a.8.8,0,0,1,.8.8v3.347A.872.872,0,0,1,373.744,260.69Z" transform="translate(-372.459 -242.262)" fill="#ffe07d"/>
        </g>
        <path id="Tracé_1686" data-name="Tracé 1686" d="M93.733,448.1l-2.01-1.1-2.14,1.1v-3.98h4.149Z" transform="translate(-86.048 -415.338)" fill="#e5646e"/>
        <g id="Groupe_455" data-name="Groupe 455">
          <path id="Tracé_1687" data-name="Tracé 1687" d="M55.281,36.484H36.991a1.047,1.047,0,0,1-1.047-1.047V8.184a.684.684,0,0,1,.684-.684H55.281a2.932,2.932,0,0,1,2.932,2.932v23.12A2.932,2.932,0,0,1,55.281,36.484Z" transform="translate(-35.944 -7.5)" fill="#c3ddff"/>
          <path id="Tracé_1688" data-name="Tracé 1688" d="M291.95,7.5h-2.637a2.932,2.932,0,0,1,2.932,2.932v23.12a2.932,2.932,0,0,1-2.932,2.932h2.637a2.932,2.932,0,0,0,2.932-2.932V10.432A2.932,2.932,0,0,0,291.95,7.5Z" transform="translate(-272.612 -7.5)" fill="#a4ccff"/>
        </g>
        <rect id="Rectangle_129" data-name="Rectangle 129" width="11.227" height="6.473" transform="translate(5.821 5.278)" fill="#fff"/>
        <rect id="Rectangle_130" data-name="Rectangle 130" width="2.637" height="6.473" transform="translate(14.412 5.278)" fill="#f0eef0"/>
      </g>
      <g id="Groupe_458" data-name="Groupe 458" transform="translate(20.405 9.506)">
        <path id="Tracé_1689" data-name="Tracé 1689" d="M447.619,151.786h0a1.121,1.121,0,0,1,.672,1.437l-.794,2.191a1.122,1.122,0,0,1-1.437.672h0a1.122,1.122,0,0,1-.672-1.437l.794-2.191A1.121,1.121,0,0,1,447.619,151.786Z" transform="translate(-438.743 -151.719)" fill="#857e87"/>
        <g id="Groupe_457" data-name="Groupe 457" transform="translate(0 2.608)">
          <path id="Tracé_1690" data-name="Tracé 1690" d="M345.631,252.308a1.885,1.885,0,0,0,1.13,2.414h0a1.885,1.885,0,0,0,2.414-1.13l4.689-12.934-3.544-1.285Z" transform="translate(-345.517 -236.204)" fill="#857e87"/>
          <path id="Tracé_1691" data-name="Tracé 1691" d="M421.481,191.4h0a1.885,1.885,0,0,0-2.414,1.13l-.7,1.927,3.544,1.285.7-1.927A1.885,1.885,0,0,0,421.481,191.4Z" transform="translate(-413.566 -191.282)" fill="#ffe07d"/>
        </g>
      </g>
    </g>
    <g id="Groupe_460" data-name="Groupe 460" transform="translate(0.658)">
      <path id="Tracé_1692" data-name="Tracé 1692" d="M128.476,80.071h-6.526a.5.5,0,0,0,0,.989h6.031v5.485H117.744V81.06h1.9a.5.5,0,0,0,0-.989h-2.395a.494.494,0,0,0-.494.494v6.473a.494.494,0,0,0,.494.494h11.227a.494.494,0,0,0,.494-.494V80.565A.494.494,0,0,0,128.476,80.071Z" transform="translate(-109.103 -74.793)"/>
      <path id="Tracé_1693" data-name="Tracé 1693" d="M34.355,17.641a.494.494,0,0,0-.279-.255l-1.707-.619L32.9,15.3a2.373,2.373,0,0,0-.123-1.9l.554-1.529a1.974,1.974,0,0,0,.15-1.014,1.616,1.616,0,0,0-3.115-.291l-.627,1.73-.084.037a2.363,2.363,0,0,0-1.228,1.344l-.7,1.927h0l-.379,1.045a1.285,1.285,0,0,0-.822-.3h-.777v-.7h.728a1.342,1.342,0,0,0,1.34-1.34V10.993a1.343,1.343,0,0,0-1.342-1.342h-.726v-.7h.724a1.345,1.345,0,0,0,1.344-1.344V4.286a1.342,1.342,0,0,0-1.341-1.341h-.762A3.432,3.432,0,0,0,22.321,0H3.668A1.18,1.18,0,0,0,2.49,1.178V5.338H1.136a.5.5,0,0,0,0,.989H2.49v5.114H1.136a.5.5,0,0,0,0,.989H2.49v5.114H1.136a.5.5,0,0,0,0,.989H2.49v5.114H1.136a.5.5,0,0,0,0,.989H2.49v3.8a1.543,1.543,0,0,0,1.541,1.541H6.025v3.281a.5.5,0,0,0,.721.439l1.906-.982,1.779.976a.5.5,0,0,0,.732-.433V29.973H22.321a3.442,3.442,0,0,0,.642-.06,2.385,2.385,0,0,0,1.054,1.461l-.654,1.8a.5.5,0,0,0,.93.337l.654-1.8a2.4,2.4,0,0,0,2.565-1.546l.776-2.14a.5.5,0,0,0-.93-.337l-.776,2.14a1.392,1.392,0,0,1-1.781.833,1.406,1.406,0,0,1-.833-1.781l4.52-12.469,2.614.948-2.884,7.956a.5.5,0,0,0,.93.337L32.031,17.7l1.243.45-1.783,4.918a.5.5,0,0,0,.93.337l1.951-5.383A.5.5,0,0,0,34.355,17.641Zm-8.58-7h.7a.353.353,0,0,1,.353.353v3.322a.352.352,0,0,1-.352.352h-.7V10.64Zm-15.6,21.778-1.278-.7a.5.5,0,0,0-.464-.006l-1.419.731V30.117h3.161ZM32.1,10.533a.627.627,0,0,1,.376.8l-.44,1.214a2.38,2.38,0,0,0-1.179-.428l.44-1.213A.628.628,0,0,1,32.1,10.533Zm-5.572,6.814a.3.3,0,0,1,.3.3v.441l-1.052,2.9V17.347Zm-.75-13.413h.7a.353.353,0,0,1,.352.352V7.605a.356.356,0,0,1-.355.355h-.7Zm-2.737,24.61a2.384,2.384,0,0,0-.1.361,2.439,2.439,0,0,1-.617.079H4.031a.553.553,0,0,1-.552-.552v-3.8H4.832a.494.494,0,1,0,0-.989H3.478V18.532H4.832a.494.494,0,1,0,0-.989H3.478V12.429H4.832a.494.494,0,1,0,0-.989H3.478V6.326H4.832a.494.494,0,1,0,0-.989H3.478V1.178a.19.19,0,0,1,.19-.19H22.321a2.441,2.441,0,0,1,2.438,2.438V23.8Zm5.786-13.062.53-1.462a1.39,1.39,0,1,1,2.614.948l-.53,1.462Z" transform="translate(-0.658)"/>
    </g>
  </g>
</svg>
