<svg id="Edit" xmlns="http://www.w3.org/2000/svg" width="18.37" height="22.448" viewBox="0 0 18.37 22.448">
  <path id="Tracé_1529" data-name="Tracé 1529" d="M22.506,114.3H6.307c-.341,0-.607.369-.607.8s.281.8.607.8H22.521c.341,0,.607-.369.607-.8A.736.736,0,0,0,22.506,114.3Z" transform="translate(-5.681 -93.444)"/>
  <path id="Tracé_1530" data-name="Tracé 1530" d="M5.619,20.707,5.6,24.494a.822.822,0,0,0,.233.583.778.778,0,0,0,.563.233l3.767-.019a.778.778,0,0,0,.563-.233L23.737,12.046a.821.821,0,0,0,0-1.146L20.009,7.133a.821.821,0,0,0-1.146,0l-2.6,2.622L5.852,20.144a.865.865,0,0,0-.233.563ZM19.446,8.842l2.622,2.622-1.476,1.476L17.97,10.318ZM7.231,21.057l9.593-9.593,2.622,2.622L9.853,23.659l-2.641.019Z" transform="translate(-5.6 -6.9)"/>
</svg>
