<svg fill="#03A4FE" id="Layer_1" enable-background="new 0 0 128 128" height="512" viewBox="0 0 128 128" width="512" xmlns="http://www.w3.org/2000/svg"><path d="m106 80.3h-16.9v-58.3c0-2.6-2.1-4.7-4.8-4.8h-62.3c-2.6 0-4.7 2.1-4.8 4.8v76.2c0 6.9 5.6 12.6 12.6 12.6h68.4c6.7 0 12.6-5.7 12.6-12.9v-12.8c-.1-2.6-2.2-4.7-4.8-4.8zm-76.2 26.9c-5 0-9.1-4.1-9.1-9.1v-76.1c0-.7.6-1.3 1.3-1.3h62.4c.7 0 1.2.6 1.3 1.3v76.2c0 3.4 1.4 6.7 3.9 9.1zm77.5-9.4c.1 5.3-4.3 9.4-9.1 9.4-5 0-9.1-4.1-9.1-9.1v-14.3h16.9c.7 0 1.2.6 1.3 1.3z"/><path d="m29.6 47.5c-1 0-1.7.8-1.8 1.7v22.3c0 1 .8 1.8 1.8 1.8h24.2c1 0 1.7-.8 1.8-1.8v-22.2c0-1-.8-1.8-1.8-1.8zm22.4 22.3h-20.6v-18.8h20.6z"/><path d="m79.4 47.5h-17.1c-1 0-1.8.8-1.8 1.8s.8 1.8 1.8 1.8h17.1c1 0 1.8-.8 1.8-1.8s-.8-1.8-1.8-1.8z"/><path d="m79.4 58.7h-17.1c-1 0-1.8.8-1.8 1.8s.8 1.8 1.8 1.8h17.1c1 0 1.8-.8 1.8-1.8s-.8-1.8-1.8-1.8z"/><path d="m79.4 69.8h-17.1c-1 0-1.8.8-1.8 1.8s.8 1.8 1.8 1.8h17.1c1 0 1.8-.8 1.8-1.8s-.8-1.8-1.8-1.8z"/><path d="m77 80.9h-47.4c-1 0-1.8.8-1.8 1.8s.8 1.8 1.8 1.8h47.4c1 0 1.8-.8 1.8-1.8s-.9-1.8-1.8-1.8z"/><path d="m77 92.1h-47.4c-1 0-1.8.8-1.8 1.8s.8 1.8 1.8 1.8h47.4c1 0 1.8-.8 1.8-1.8s-.9-1.8-1.8-1.8z"/><g><path d="m34.6 26.9c-1 0-1.8.8-1.8 1.8v6.1l-4.8-7.2c-.9-1.3-3.2-.9-3.2 1v11.7c0 2.4 3.6 2.4 3.6 0v-6.1l4.8 7.1c.9 1.5 3.1.8 3.1-1v-11.7c0-1-.8-1.7-1.7-1.7z"/><path d="m48.3 30.4c1 0 1.7-.8 1.7-1.8s-.8-1.8-1.8-1.8h-8c-1 0-1.8.8-1.8 1.8v5.9 5.9c0 1 .8 1.8 1.8 1.8h8c1 0 1.8-.8 1.8-1.8s-.8-1.8-1.8-1.8h-6.3v-2.4h5.3c1 0 1.8-.8 1.8-1.8s-.8-1.8-1.8-1.8h-5.3v-2.2z"/><path d="m66.6 26.9c-.9-.2-1.9.3-2.1 1.2l-1.4 5.3s-1-3.8-1.4-5.1c-.6-2-3.1-1.7-3.4-.2l-1.4 5.3-1.4-5.3c-.2-.9-1.2-1.5-2.1-1.2-.9.2-1.5 1.2-1.2 2.1l3.1 11.7c.4 1.5 2.8 1.9 3.4-.2.7-2.9 1.3-5.3 1.3-5.2l1.4 5.2c.3 1.7 2.9 2 3.4.1l3.1-11.7c.2-.8-.3-1.7-1.3-2z"/><path d="m77.1 32.7h-2.1c-.7 0-1.2-.5-1.2-1.2 0-.6.5-1.2 1.2-1.2h5c1 0 1.8-.8 1.8-1.8s-.8-1.6-1.8-1.6h-5c-2.6 0-4.7 2.1-4.7 4.7s2.1 4.7 4.7 4.7h2.2c.7 0 1.2.5 1.2 1.2 0 .6-.5 1.2-1.2 1.2h-5.2c-1 0-1.8.8-1.8 1.8s.8 1.8 1.8 1.8h5.1c2.6 0 4.7-2.1 4.7-4.7s-2.1-4.9-4.7-4.9z"/></g></svg>