<svg xmlns="http://www.w3.org/2000/svg" width="20.836" height="16.903" viewBox="0 0 20.836 16.903">
  <path id="Shape_1" data-name="Shape 1" d="M3.543,16.9A2.544,2.544,0,0,1,1,14.361V5.172a2.423,2.423,0,0,1,2.42-2.418H6.8L6.881,2.4A3.1,3.1,0,0,1,9.908,0h3.015a3.091,3.091,0,0,1,3.028,2.4l.081.353h3.385a2.42,2.42,0,0,1,2.42,2.418v9.189A2.544,2.544,0,0,1,19.293,16.9ZM2.042,5.172v9.189a1.5,1.5,0,0,0,1.5,1.5H19.289a1.5,1.5,0,0,0,1.5-1.5V5.172A1.377,1.377,0,0,0,19.412,3.8h-3.8a.523.523,0,0,1-.506-.4l-.174-.757a2.057,2.057,0,0,0-2.011-1.594H9.908A2.057,2.057,0,0,0,7.9,2.635l-.174.757a.518.518,0,0,1-.506.4h-3.8A1.377,1.377,0,0,0,2.042,5.172Zm5,4.684a4.376,4.376,0,1,1,4.376,4.373A4.379,4.379,0,0,1,7.042,9.856Zm1.042,0a3.334,3.334,0,1,0,3.334-3.332A3.338,3.338,0,0,0,8.084,9.856ZM3.828,6.018a.7.7,0,1,1,.7.7A.7.7,0,0,1,3.828,6.018Z" transform="translate(-1 0)" fill="#4d67f4"/>
</svg>
