<svg xmlns="http://www.w3.org/2000/svg" width="28.112" height="28.099" viewBox="0 0 28.112 28.099">
  <g id="link" transform="translate(0.001 -0.116)">
    <path id="Tracé_1705" data-name="Tracé 1705" d="M18.749,178.286l2.667-4.042-2.667-.687a7.351,7.351,0,0,0-1.782-2.877A7.238,7.238,0,0,0,14.09,168.9l-.035.035-3.25-.128-1.444.093a7.238,7.238,0,0,0-2.877,1.782L2.166,175A7.409,7.409,0,0,0,12.649,185.47l4.318-4.307A7.35,7.35,0,0,0,18.749,178.286Zm-9.012,4.272A3.295,3.295,0,0,1,5.078,177.9l4.283-4.272,2.341,2.318,2.353,2.306Z" transform="translate(0 -159.426)" fill="#4a696f"/>
    <path id="Tracé_1706" data-name="Tracé 1706" d="M54.261,213.442l-4.318,4.307a7.413,7.413,0,0,1-10.483,0l2.912-2.912a3.294,3.294,0,0,0,4.659,0l4.318-4.307L49,208.224l5.265-5.265a7.351,7.351,0,0,1,1.782,2.877l2.667.687-2.667,4.042A7.35,7.35,0,0,1,54.261,213.442Z" transform="translate(-37.293 -191.705)" fill="#384949"/>
    <path id="Tracé_1707" data-name="Tracé 1707" d="M390.9,392.065l-1.165-1.165a.824.824,0,0,1,1.165-1.165l1.165,1.165a.824.824,0,1,1-1.165,1.165Z" transform="translate(-368.113 -367.999)" fill="#d2c5c2"/>
    <path id="Tracé_1708" data-name="Tracé 1708" d="M72.683,73.846l-1.165-1.165a.824.824,0,0,1,1.165-1.165l1.165,1.165a.824.824,0,0,1-1.165,1.165Z" transform="translate(-67.364 -67.252)" fill="#dfd7d5"/>
    <path id="Tracé_1709" data-name="Tracé 1709" d="M443.879,295.952a.824.824,0,0,1,1.009-.582l1.591.427a.824.824,0,1,1-.427,1.591l-1.591-.427A.824.824,0,0,1,443.879,295.952Z" transform="translate(-419.481 -279.015)" fill="#d2c5c2"/>
    <path id="Tracé_1710" data-name="Tracé 1710" d="M9.185,179.478a.824.824,0,0,1,1.009-.582l1.591.427a.824.824,0,0,1-.427,1.591l-1.591-.427A.824.824,0,0,1,9.185,179.478Z" transform="translate(-8.655 -168.936)" fill="#dfd7d5"/>
    <path id="Tracé_1711" data-name="Tracé 1711" d="M295.8,446.471l-.427-1.591a.824.824,0,0,1,1.591-.427l.427,1.591a.824.824,0,1,1-1.591.427Z" transform="translate(-279.128 -419.362)" fill="#d2c5c2"/>
    <path id="Tracé_1712" data-name="Tracé 1712" d="M179.325,11.784l-.427-1.591a.824.824,0,1,1,1.591-.427l.427,1.591a.824.824,0,1,1-1.591.427Z" transform="translate(-169.05 -8.544)" fill="#dfd7d5"/>
    <path id="Tracé_1713" data-name="Tracé 1713" d="M180.471,2.287a7.413,7.413,0,0,0-10.483,0l-4.318,4.307a7.351,7.351,0,0,0-1.782,2.877,7.465,7.465,0,0,0,0,4.729,7.4,7.4,0,0,0,4.659,4.659l.035-.035a3.3,3.3,0,0,0,0-4.659,3.3,3.3,0,0,1,0-4.659L172.9,5.2a3.239,3.239,0,0,1,2.33-.955.533.533,0,0,1,.268.012,3.145,3.145,0,0,1,2.062.944,3.3,3.3,0,0,1,0,4.659l-4.283,4.272a7.465,7.465,0,0,1,0,4.729,7.51,7.51,0,0,0,2.877-1.782l4.318-4.307A7.424,7.424,0,0,0,180.471,2.287Z" transform="translate(-154.526 0)" fill="#ffd400"/>
    <g id="Groupe_463" data-name="Groupe 463" transform="translate(11.143 2.287)">
      <path id="Tracé_1714" data-name="Tracé 1714" d="M205.875,260.654l-.035.035a7.34,7.34,0,0,1-2.877-1.782L205.875,256A3.3,3.3,0,0,1,205.875,260.654Z" transform="translate(-202.963 -244.117)" fill="#ff9f00"/>
      <path id="Tracé_1715" data-name="Tracé 1715" d="M348.689,50.139l-4.318,4.307a7.509,7.509,0,0,1-2.877,1.782,7.465,7.465,0,0,0,0-4.729l4.283-4.272a3.3,3.3,0,0,0,0-4.659l2.912-2.912A7.424,7.424,0,0,1,348.689,50.139Z" transform="translate(-333.888 -39.656)" fill="#ff9f00"/>
    </g>
  </g>
</svg>
