<svg xmlns="http://www.w3.org/2000/svg" width="16.932" height="11.952" viewBox="0 0 16.932 11.952">
  <g id="Icon" transform="translate(0 0)">
    <g id="Rectangle_122" data-name="Rectangle 122" transform="translate(2.988 5.976)" fill="#fff" stroke="#c9c9c9" stroke-width="1.4">
      <path d="M2.49,0h0A2.49,2.49,0,0,1,4.98,2.49V5.976a0,0,0,0,1,0,0H0a0,0,0,0,1,0,0V2.49A2.49,2.49,0,0,1,2.49,0Z" stroke="none"/>
      <path d="M2.49.7h0A1.79,1.79,0,0,1,4.28,2.49V4.731a.545.545,0,0,1-.545.545H1.245A.545.545,0,0,1,.7,4.731V2.49A1.79,1.79,0,0,1,2.49.7Z" fill="none"/>
    </g>
    <g id="Rectangle_123" data-name="Rectangle 123" transform="translate(8.964 5.976)" fill="#fff" stroke="#c9c9c9" stroke-width="1.4">
      <path d="M2.49,0h0A2.49,2.49,0,0,1,4.98,2.49V5.976a0,0,0,0,1,0,0H0a0,0,0,0,1,0,0V2.49A2.49,2.49,0,0,1,2.49,0Z" stroke="none"/>
      <path d="M2.49.7h0A1.79,1.79,0,0,1,4.28,2.49V4.731a.545.545,0,0,1-.545.545H1.245A.545.545,0,0,1,.7,4.731V2.49A1.79,1.79,0,0,1,2.49.7Z" fill="none"/>
    </g>
    <g id="Rectangle_124" data-name="Rectangle 124" fill="none" stroke="#c9c9c9" stroke-width="1.4">
      <path d="M5,0h6.932a5,5,0,0,1,5,5v6.952a0,0,0,0,1,0,0H0a0,0,0,0,1,0,0V5A5,5,0,0,1,5,0Z" stroke="none"/>
      <path d="M5,.7h6.932a4.3,4.3,0,0,1,4.3,4.3v5.552a.7.7,0,0,1-.7.7H1.4a.7.7,0,0,1-.7-.7V5A4.3,4.3,0,0,1,5,.7Z" fill="none"/>
    </g>
  </g>
</svg>
