
<svg xmlns="http://www.w3.org/2000/svg" width="15" height="15" viewBox="0 0 15 15">
  <path id="Tracé_14" data-name="Tracé 14" d="M244.712,246.617a.586.586,0,1,1-1.172,0h0a.586.586,0,0,1,1.172,0Zm4.512.586a.586.586,0,0,0,.586-.586h0a.586.586,0,1,0-1.172,0h0A.586.586,0,0,0,249.224,247.2Zm3.135-.586h0a.586.586,0,1,0-1.172,0h0a.586.586,0,1,0,1.172,0Zm-7.647,2.549a.586.586,0,1,0-1.172,0h0a.586.586,0,0,0,1.172,0Zm-.586,1.963a.586.586,0,0,0-.586.586h0a.586.586,0,0,0,1.172,0h0A.586.586,0,0,0,244.126,251.129Zm2.549-5.1a.586.586,0,0,0-.586.586h0a.586.586,0,1,0,1.172,0h0A.586.586,0,0,0,246.675,246.031Zm0,2.549a.586.586,0,0,0-.586.586h0a.586.586,0,0,0,1.172,0h0A.586.586,0,0,0,246.675,248.58Zm0,2.549a.586.586,0,0,0-.586.586h0a.586.586,0,0,0,1.172,0h0A.586.586,0,0,0,246.675,251.129Zm1.963-1.963a.586.586,0,0,0,1.172,0h0a.586.586,0,1,0-1.172,0Zm4.482-7.53h-.762v-.586a.586.586,0,0,0-1.172,0v.586h-2.666v-.586a.586.586,0,0,0-1.172,0v.586h-2.637v-.586a.586.586,0,0,0-1.172,0v.586h-.732a2.347,2.347,0,0,0-2.344,2.344v9.141a2.347,2.347,0,0,0,2.344,2.344h3.574a.586.586,0,1,0,0-1.172h-3.574a1.173,1.173,0,0,1-1.172-1.172V243.98a1.173,1.173,0,0,1,1.172-1.172h.732v.586a.586.586,0,1,0,1.172,0v-.586h2.637v.586a.586.586,0,1,0,1.172,0v-.586h2.666v.586a.586.586,0,1,0,1.172,0v-.586h.762a1.173,1.173,0,0,1,1.172,1.172v2.637a.586.586,0,1,0,1.172,0V243.98A2.347,2.347,0,0,0,253.121,241.637Zm1.829,7.312a1.759,1.759,0,0,1,0,2.486l-3.21,3.2a.59.59,0,0,1-.258.15l-2.365.655a.586.586,0,0,1-.717-.735l.7-2.307a.588.588,0,0,1,.147-.244l3.217-3.21A1.759,1.759,0,0,1,254.949,248.949Zm-1.771,2.6-.828-.829-2.171,2.166-.348,1.147,1.19-.33Zm.943-1.77a.587.587,0,0,0-.829,0l-.113.113.829.829.113-.113A.587.587,0,0,0,254.121,249.777Z" transform="translate(-240.464 -240.465)" fill="#fff"/>
</svg>