<svg xmlns="http://www.w3.org/2000/svg" xmlns:xlink="http://www.w3.org/1999/xlink" width="213.359" height="207.311" viewBox="0 0 213.359 207.311">
  <defs>
    <linearGradient id="linear-gradient" y1="0.5" x2="1" y2="0.5" gradientUnits="objectBoundingBox">
      <stop offset="0" stop-color="#ff4199"/>
      <stop offset="0.782" stop-color="#ff4a59"/>
    </linearGradient>
  </defs>
  <g id="Groupe_49" data-name="Groupe 49" transform="translate(-45.32 -79.267)">
    <g id="freepik--background-simple--inject-255" transform="translate(67.498 93.995)" opacity="0.29">
      <path id="Tracé_426" data-name="Tracé 426" d="M271.229,134.115l-1.149-1.895c-9.68-15.953-27.186-25.571-45.639-24.406a47.871,47.871,0,0,0-7.045.973,52.518,52.518,0,0,0-37.435,32.533c-3.556,9.555-4.55,20.56-11.3,28.149-8.8,9.871-23.718,10.182-36.834,9.773s-28.055-.062-36.8,9.835c-5.482,6.212-7.247,15.011-6.781,23.35,1.17,22.01,16.507,41.69,36.011,51.473s42.445,10.658,63.818,6.356c29.909-6.03,58.347-22.584,75.439-48.139S284.915,161.71,271.229,134.115Z" transform="translate(-88.166 -107.719)" fill="#becbfc"/>
    </g>
    <g id="freepik--Characters--inject-255" transform="translate(47.722 79.267)">
      <path id="Tracé_427" data-name="Tracé 427" d="M235.166,262.33a2.211,2.211,0,0,1-2.288,1,6.078,6.078,0,0,1-2.407-1.092c-.735-.481-1.553-1.1-1.553-1.977a4.381,4.381,0,0,1,.342-1.408,9.577,9.577,0,0,0-.207-4.4,20.062,20.062,0,0,1-.062-7.816,11.744,11.744,0,0,1,3.882-6.672,12.289,12.289,0,0,1,4.959-2.329,13.183,13.183,0,0,1,9.012.9,9.033,9.033,0,0,1,4.938,7.33c.1,2.21-.637,4.814.927,6.382.476.471,1.108.766,1.553,1.248a3.452,3.452,0,0,1,.191,4.182,6.179,6.179,0,0,1-3.706,2.4,10.51,10.51,0,0,1-5.59-.072" transform="translate(-136.148 -155.464)" fill="#263238"/>
      <path id="Tracé_428" data-name="Tracé 428" d="M266.316,264.638a3.544,3.544,0,0,1,.958,2.138,8.565,8.565,0,0,0,.518,2.324,1.983,1.983,0,0,0,1.853,1.258,7.356,7.356,0,0,1-7.92,2.935l-.295-9.343" transform="translate(-151.967 -168.353)" fill="#263238"/>
      <path id="Tracé_429" data-name="Tracé 429" d="M232.519,251.49c.155-3.147,3.5-6.341,6.641-6.056l10.2,1.786v1.7l-.321,20.98h0s-.776,6.776-6.491,6.47c-5.13-.269-4.928-5.694-4.928-5.694l.1-3.955s-4.141-.109-5.052-5.342A50.409,50.409,0,0,1,232.519,251.49Z" transform="translate(-137.943 -159.413)" fill="#ffbe9d"/>
      <path id="Tracé_430" data-name="Tracé 430" d="M234.42,264.384c.088.088.59-.3,1.315-.305s1.258.342,1.335.254-.047-.2-.28-.362a1.833,1.833,0,0,0-1.071-.311,1.762,1.762,0,0,0-1.035.352C234.451,264.187,234.378,264.353,234.42,264.384Z" transform="translate(-138.933 -168.213)" fill="#263238"/>
      <path id="Tracé_431" data-name="Tracé 431" d="M247.81,264.25c.088.083.59-.3,1.315-.311s1.258.347,1.336.259-.047-.2-.28-.362a1.869,1.869,0,0,0-1.071-.316,1.766,1.766,0,0,0-1.035.357C247.841,264.048,247.768,264.208,247.81,264.25Z" transform="translate(-145.392 -168.145)" fill="#263238"/>
      <path id="Tracé_432" data-name="Tracé 432" d="M241.635,267.234a5.477,5.477,0,0,0-1.18-.171c-.186,0-.362-.041-.393-.15a.808.808,0,0,1,.109-.466l.518-1.2a17.812,17.812,0,0,0,1.154-3.132,19.032,19.032,0,0,0-1.429,3.044c-.176.419-.342.818-.518,1.2a.782.782,0,0,0-.083.616.45.45,0,0,0,.311.228,1.461,1.461,0,0,0,.311.036A5.516,5.516,0,0,0,241.635,267.234Z" transform="translate(-141.525 -167.47)" fill="#263238"/>
      <path id="Tracé_433" data-name="Tracé 433" d="M242.64,284.787a13.352,13.352,0,0,0,7-1.977s-1.744,3.691-7,3.277Z" transform="translate(-142.903 -177.451)" fill="#eb996e"/>
      <path id="Tracé_434" data-name="Tracé 434" d="M245.007,271.57c-.119,0-.109.782-.771,1.351s-1.5.492-1.506.6.186.15.544.155a1.972,1.972,0,0,0,1.258-.461,1.7,1.7,0,0,0,.6-1.128C245.152,271.756,245.064,271.565,245.007,271.57Z" transform="translate(-142.947 -172.029)" fill="#263238"/>
      <path id="Tracé_435" data-name="Tracé 435" d="M247.632,258.182c.1.248.8.052,1.662.1s1.553.28,1.662.036c.041-.119-.1-.352-.409-.575a2.358,2.358,0,0,0-1.273-.435,2.133,2.133,0,0,0-1.258.331C247.72,257.83,247.585,258.047,247.632,258.182Z" transform="translate(-145.307 -165.147)" fill="#263238"/>
      <path id="Tracé_436" data-name="Tracé 436" d="M234.482,257.863c.15.254.813.041,1.594.072s1.434.249,1.6,0c.078-.119,0-.368-.29-.611a2.1,2.1,0,0,0-2.588-.062C234.518,257.5,234.414,257.744,234.482,257.863Z" transform="translate(-138.958 -164.927)" fill="#263238"/>
      <path id="Tracé_437" data-name="Tracé 437" d="M264.137,263.854c.1-.041,4.006-1.092,3.794,2.868s-4.141,2.935-4.141,2.821S264.137,263.854,264.137,263.854Z" transform="translate(-153.106 -168.231)" fill="#ffbe9d"/>
      <path id="Tracé_438" data-name="Tracé 438" d="M265.6,269.307a.989.989,0,0,0,.181.114.7.7,0,0,0,.518.036,1.707,1.707,0,0,0,.87-1.486,2.235,2.235,0,0,0-.14-1,.781.781,0,0,0-.492-.559.347.347,0,0,0-.414.166c-.062.109-.041.192-.062.2s-.083-.072-.041-.233a.424.424,0,0,1,.171-.238.518.518,0,0,1,.388-.083.973.973,0,0,1,.688.652,2.319,2.319,0,0,1,.176,1.118,1.794,1.794,0,0,1-1.1,1.656.742.742,0,0,1-.621-.14C265.6,269.405,265.587,269.317,265.6,269.307Z" transform="translate(-153.976 -169.445)" fill="#eb996e"/>
      <path id="Tracé_439" data-name="Tracé 439" d="M240.381,242.108c.264-1.082,1.455-1.522,2.485-1.734a14.79,14.79,0,0,1,6.595-.16,7.584,7.584,0,0,1,5.176,4.089c1.087,2.454.575,5.332.036,7.987l-1.418-.026c-.544,2.231-3.323,1.941-3.81-.839a4.127,4.127,0,0,0-1.382-2.666,3.491,3.491,0,0,0-1.646-.424,7.464,7.464,0,0,1-5.766-4.56A2.755,2.755,0,0,1,240.381,242.108Z" transform="translate(-141.798 -156.755)" fill="#263238"/>
      <path id="Tracé_440" data-name="Tracé 440" d="M270.457,247.509c-.243-.352.155-.787.518-1a6.155,6.155,0,0,1,3.375-1.035,3.3,3.3,0,0,1,2.883,1.827,4.325,4.325,0,0,1,.311,1.522,3.316,3.316,0,0,1-.316,1.915,2.831,2.831,0,0,1-2.039,1.191,4.058,4.058,0,0,1-1.693-.067c-1.662-.455-2.671-2.07-3.525-3.577" transform="translate(-156.087 -159.439)" fill="#263238"/>
      <path id="Tracé_441" data-name="Tracé 441" d="M245.144,250.6c0,.176-.518.352-1.444.326a3.621,3.621,0,0,1-1.636-.471,4.052,4.052,0,0,1-.8-.626,5.214,5.214,0,0,1-.683-.828,5.755,5.755,0,0,1-.7-1.884,7.973,7.973,0,0,1-.145-1.553c0-.88.166-1.418.347-1.423s.368.518.6,1.294c.119.4.243.864.409,1.367a7.006,7.006,0,0,0,.632,1.47,5.821,5.821,0,0,0,.518.637,4.7,4.7,0,0,0,.518.518,3.97,3.97,0,0,0,1.123.569C244.621,250.238,245.159,250.408,245.144,250.6Z" transform="translate(-141.504 -158.797)" fill="#263238"/>
      <path id="Tracé_442" data-name="Tracé 442" d="M272.522,252.258c-.036,0,.052-.29.078-.751a8.475,8.475,0,0,0-.062-1.8,7,7,0,0,0-.58-1.687c-.2-.43-.311-.7-.274-.714s.2.217.44.626a5.183,5.183,0,0,1,.683,1.734,6.277,6.277,0,0,1,0,1.863A1.336,1.336,0,0,1,272.522,252.258Z" transform="translate(-156.91 -160.326)" fill="#ff725e"/>
      <path id="Tracé_443" data-name="Tracé 443" d="M278.974,250.491a5.15,5.15,0,0,0-.7-.4,4.318,4.318,0,0,0-1.926-.16,26.917,26.917,0,0,0-2.764.518,5.9,5.9,0,0,1,2.743-.776,3.866,3.866,0,0,1,2.024.254C278.86,250.16,279.02,250.481,278.974,250.491Z" transform="translate(-157.828 -161.448)" fill="#455a64"/>
      <path id="Tracé_444" data-name="Tracé 444" d="M257.441,246.4a.643.643,0,0,1-.207.036c-.14,0-.342.036-.606.041a4.266,4.266,0,0,1-2.169-.45,4.848,4.848,0,0,1-1.175-1.035c-.362-.409-.74-.859-1.134-1.336a21.685,21.685,0,0,0-2.733-2.883,7.245,7.245,0,0,0-3.5-1.687,5.573,5.573,0,0,0-3.106.481,5.8,5.8,0,0,0-1.755,1.258c-.352.378-.518.621-.518.606a.739.739,0,0,1,.1-.186,3.921,3.921,0,0,1,.357-.487,5.439,5.439,0,0,1,1.75-1.361,5.623,5.623,0,0,1,3.209-.538,7.444,7.444,0,0,1,3.623,1.729,20.274,20.274,0,0,1,2.754,2.935,11.046,11.046,0,0,0,2.21,2.34,4.423,4.423,0,0,0,2.071.518A7.746,7.746,0,0,1,257.441,246.4Z" transform="translate(-141.89 -156.227)" fill="#455a64"/>
      <path id="Tracé_445" data-name="Tracé 445" d="M234.34,374.771s2,13.893,2.407,20.4c.518,8.4,3.535,21.689,3.535,21.689h7.961l.15-31.472,7.091,30.638,9.121-.823-3.38-33.946-1.077-8.556Z" transform="translate(-138.9 -220.811)" fill="#becbfc"/>
      <path id="Tracé_446" data-name="Tracé 446" d="M247.557,460.132l-.549-14.452-10.213.3s1.335,9.623,1.113,10.4c-.932,3.24-5.637,3.406-5.637,3.406a1.936,1.936,0,0,0-2.174,2.3l17.6-.124Z" transform="translate(-136.841 -256.014)" fill="#ff725e"/>
      <path id="Tracé_447" data-name="Tracé 447" d="M256.483,460.626a10.578,10.578,0,0,1-.062-1.7,9.848,9.848,0,0,1,.072-1.7,21.5,21.5,0,0,1,0,3.4Z" transform="translate(-149.546 -261.586)" fill="#fafafa"/>
      <path id="Tracé_448" data-name="Tracé 448" d="M256.573,460.475a7.16,7.16,0,0,1-1.444,0,7.571,7.571,0,0,1-1.439-.119,15.474,15.474,0,0,1,2.883.1Z" transform="translate(-148.234 -263.082)" fill="#fafafa"/>
      <path id="Tracé_449" data-name="Tracé 449" d="M256.45,458.81a8.139,8.139,0,0,1-1.128,1.035,9.084,9.084,0,0,1-1.222.916,8.42,8.42,0,0,1,1.134-1.035A8.839,8.839,0,0,1,256.45,458.81Z" transform="translate(-148.431 -262.348)" fill="#fafafa"/>
      <path id="Tracé_450" data-name="Tracé 450" d="M256.629,460.443a1.648,1.648,0,0,1-.362-.352c-.207-.233-.476-.564-.756-.942s-.518-.74-.678-1a1.74,1.74,0,0,1-.233-.445,2.082,2.082,0,0,1,.316.393c.176.248.424.6.7.973s.518.714.725.963A2.441,2.441,0,0,1,256.629,460.443Z" transform="translate(-148.673 -261.813)" fill="#fafafa"/>
      <path id="Tracé_451" data-name="Tracé 451" d="M249.933,452.526a10.568,10.568,0,0,1-.062-1.7,9.794,9.794,0,0,1,.073-1.7,10.575,10.575,0,0,1,.062,1.7A9.852,9.852,0,0,1,249.933,452.526Z" transform="translate(-146.386 -257.679)" fill="#fafafa"/>
      <path id="Tracé_452" data-name="Tracé 452" d="M250.023,452.371a7.651,7.651,0,0,1-1.444,0,8.207,8.207,0,0,1-1.439-.119,14.4,14.4,0,0,1,2.883.1Z" transform="translate(-145.074 -259.17)" fill="#fafafa"/>
      <path id="Tracé_453" data-name="Tracé 453" d="M249.9,450.71a8.129,8.129,0,0,1-1.128,1.035,7.966,7.966,0,0,1-1.222.911,8.81,8.81,0,0,1,1.134-1.035A8.417,8.417,0,0,1,249.9,450.71Z" transform="translate(-145.272 -258.441)" fill="#fafafa"/>
      <path id="Tracé_454" data-name="Tracé 454" d="M250.109,452.363a1.825,1.825,0,0,1-.362-.352c-.2-.233-.476-.564-.756-.942s-.518-.74-.678-1a1.74,1.74,0,0,1-.233-.445,4.08,4.08,0,0,1,.316.388c.181.249.424.6.7.978s.518.714.725.963A1.8,1.8,0,0,1,250.109,452.363Z" transform="translate(-145.528 -257.915)" fill="#fafafa"/>
      <path id="Tracé_455" data-name="Tracé 455" d="M250.85,472.286a10.883,10.883,0,0,1-.067-1.7,10.112,10.112,0,0,1,.078-1.7,21.49,21.49,0,0,1,0,3.4Z" transform="translate(-146.827 -267.21)" fill="#fafafa"/>
      <path id="Tracé_456" data-name="Tracé 456" d="M250.943,472.14a15.466,15.466,0,0,1-2.883-.1,7.314,7.314,0,0,1,1.444,0A7.84,7.84,0,0,1,250.943,472.14Z" transform="translate(-145.518 -268.711)" fill="#fafafa"/>
      <path id="Tracé_457" data-name="Tracé 457" d="M250.81,470.47a8.133,8.133,0,0,1-1.128,1.035,8.282,8.282,0,0,1-1.222.911,8.462,8.462,0,0,1,1.134-1.035A8.089,8.089,0,0,1,250.81,470.47Z" transform="translate(-145.711 -267.973)" fill="#fafafa"/>
      <path id="Tracé_458" data-name="Tracé 458" d="M250.994,472.123a2.107,2.107,0,0,1-.357-.352c-.207-.233-.476-.564-.756-.942s-.518-.74-.678-1a1.743,1.743,0,0,1-.233-.445,1.867,1.867,0,0,1,.316.393c.176.249.424.6.7.973s.518.714.725.963A1.675,1.675,0,0,1,250.994,472.123Z" transform="translate(-145.957 -267.447)" fill="#fafafa"/>
      <path id="Tracé_459" data-name="Tracé 459" d="M277.967,459.882l-.549-14.452-11.088.326s2.205,9.6,1.988,10.353c-.932,3.24-5.637,3.406-5.637,3.406a1.936,1.936,0,0,0-2.174,2.3l17.6-.124Z" transform="translate(-151.51 -255.894)" fill="#ff725e"/>
      <path id="Tracé_460" data-name="Tracé 460" d="M278.68,452.436a10.882,10.882,0,0,1-.067-1.7,10.118,10.118,0,0,1,.078-1.7,21.5,21.5,0,0,1,0,3.4Z" transform="translate(-160.252 -257.635)" fill="#fafafa"/>
      <path id="Tracé_461" data-name="Tracé 461" d="M278.773,452.29a15.469,15.469,0,0,1-2.883-.1,7.319,7.319,0,0,1,1.444,0A7.842,7.842,0,0,1,278.773,452.29Z" transform="translate(-158.942 -259.136)" fill="#fafafa"/>
      <path id="Tracé_462" data-name="Tracé 462" d="M278.65,450.62a8.128,8.128,0,0,1-1.128,1.035,8.29,8.29,0,0,1-1.222.911,16.971,16.971,0,0,1,2.35-1.931Z" transform="translate(-159.14 -258.397)" fill="#fafafa"/>
      <path id="Tracé_463" data-name="Tracé 463" d="M278.824,452.273a2.106,2.106,0,0,1-.357-.352c-.207-.233-.476-.564-.756-.942s-.518-.74-.678-1a1.742,1.742,0,0,1-.233-.445,1.862,1.862,0,0,1,.316.393c.176.248.424.6.7.973s.518.714.725.963A1.675,1.675,0,0,1,278.824,452.273Z" transform="translate(-159.381 -257.872)" fill="#fafafa"/>
      <path id="Tracé_464" data-name="Tracé 464" d="M288.363,461.406a10.577,10.577,0,0,1-.062-1.7,9.855,9.855,0,0,1,.072-1.7,10.561,10.561,0,0,1,.062,1.7A9.745,9.745,0,0,1,288.363,461.406Z" transform="translate(-164.924 -261.962)" fill="#fafafa"/>
      <path id="Tracé_465" data-name="Tracé 465" d="M288.453,461.262a14.4,14.4,0,0,1-2.883-.1,7.641,7.641,0,0,1,1.444,0A8.115,8.115,0,0,1,288.453,461.262Z" transform="translate(-163.612 -263.464)" fill="#fafafa"/>
      <path id="Tracé_466" data-name="Tracé 466" d="M288.33,459.59a8.129,8.129,0,0,1-1.128,1.035,8.7,8.7,0,0,1-1.222.916,8.815,8.815,0,0,1,1.134-1.035A9.19,9.19,0,0,1,288.33,459.59Z" transform="translate(-163.809 -262.724)" fill="#fafafa"/>
      <path id="Tracé_467" data-name="Tracé 467" d="M288.509,461.243a1.647,1.647,0,0,1-.362-.352c-.2-.233-.476-.559-.756-.942s-.518-.735-.678-1a1.741,1.741,0,0,1-.233-.445,1.853,1.853,0,0,1,.316.393c.181.248.424.6.7.973s.518.72.725.963A2.122,2.122,0,0,1,288.509,461.243Z" transform="translate(-164.051 -262.199)" fill="#fafafa"/>
      <path id="Tracé_468" data-name="Tracé 468" d="M281.32,472.521a10.882,10.882,0,0,1-.067-1.7,10.18,10.18,0,0,1,.078-1.7,10.635,10.635,0,0,1,.062,1.7A10.516,10.516,0,0,1,281.32,472.521Z" transform="translate(-161.525 -267.321)" fill="#fafafa"/>
      <path id="Tracé_469" data-name="Tracé 469" d="M281.413,472.365a7.652,7.652,0,0,1-1.444,0,7.331,7.331,0,0,1-1.439-.124,8.217,8.217,0,0,1,1.444,0A7.333,7.333,0,0,1,281.413,472.365Z" transform="translate(-160.216 -268.811)" fill="#fafafa"/>
      <path id="Tracé_470" data-name="Tracé 470" d="M281.29,470.71a8.558,8.558,0,0,1-1.128,1.035,8.289,8.289,0,0,1-1.222.911,8.464,8.464,0,0,1,1.134-1.035A8.087,8.087,0,0,1,281.29,470.71Z" transform="translate(-160.414 -268.088)" fill="#fafafa"/>
      <path id="Tracé_471" data-name="Tracé 471" d="M281.464,472.358a3.2,3.2,0,0,1-.357-.352,11.8,11.8,0,0,1-.756-.942c-.285-.378-.518-.735-.678-1a1.852,1.852,0,0,1-.233-.445,4.058,4.058,0,0,1,.316.388c.181.249.424.6.7.978s.518.714.725.958A1.915,1.915,0,0,1,281.464,472.358Z" transform="translate(-160.655 -267.563)" fill="#fafafa"/>
      <path id="Tracé_472" data-name="Tracé 472" d="M262.563,472.671a1.884,1.884,0,0,1-.476.166,2.216,2.216,0,0,0-.994.6,2.191,2.191,0,0,0-.518,1.035,3.885,3.885,0,0,1-.1.492c-.031,0-.078-.192-.047-.518a2.018,2.018,0,0,1,.518-1.149,2.039,2.039,0,0,1,1.108-.6C262.366,472.635,262.563,472.645,262.563,472.671Z" transform="translate(-151.48 -269.024)" fill="#263238"/>
      <path id="Tracé_473" data-name="Tracé 473" d="M201.591,297.817a3.018,3.018,0,0,0-5.088,1.144,3.354,3.354,0,0,0-4.247-2.114c-.067.022-.134.047-.2.074-1.113-1.346-2.878-1.936-4.55-2.459a3.425,3.425,0,0,0-4.752,1.765c-1.092,1.511-2.215,3.106-2.366,4.98s1.118,3.96,2.976,4a3.163,3.163,0,0,0,4.876,2.681,4.3,4.3,0,0,0,5.885,1.341,3.3,3.3,0,0,0,4.757,1.2c1.594,1.512,7.009,1.2,8.329-.559l3.106-14.173C208.377,294.727,202.507,295.84,201.591,297.817Z" transform="translate(-112.869 -182.907)" fill="#908ef4"/>
      <path id="Tracé_474" data-name="Tracé 474" d="M217.748,312.361a1.786,1.786,0,0,1-.1-.456c-.052-.3-.1-.725-.135-1.263a18.708,18.708,0,0,1,1.372-8.215c.207-.492.393-.885.518-1.149a1.878,1.878,0,0,1,.243-.4c.041,0-.238.621-.606,1.62a22.06,22.06,0,0,0-1.356,8.137C217.7,311.7,217.748,312.356,217.748,312.361Z" transform="translate(-130.766 -186.167)" fill="#263238"/>
      <path id="Tracé_475" data-name="Tracé 475" d="M208.314,311.018a3.618,3.618,0,0,1,0-1.191,20.361,20.361,0,0,1,.45-2.826,23.073,23.073,0,0,1,.776-2.759,3.911,3.911,0,0,1,.518-1.082,8.1,8.1,0,0,1-.311,1.144c-.2.7-.45,1.672-.694,2.754s-.424,2.071-.518,2.79A9.875,9.875,0,0,1,208.314,311.018Z" transform="translate(-126.322 -187.267)" fill="#263238"/>
      <path id="Tracé_476" data-name="Tracé 476" d="M196.14,307.992a4.8,4.8,0,0,1,.192-1.341,24.744,24.744,0,0,1,.952-3.106,15.917,15.917,0,0,1,1.423-2.95,3.2,3.2,0,0,1,.885-1.035c.031.031-.321.409-.725,1.128a21.682,21.682,0,0,0-1.33,2.945c-.445,1.185-.792,2.277-1.035,3.106A10.428,10.428,0,0,1,196.14,307.992Z" transform="translate(-120.473 -185.53)" fill="#263238"/>
      <path id="Tracé_477" data-name="Tracé 477" d="M249.533,285.56s-.031-2.821-1.46-3.209-3.789.264-5.176.787c-2.412.906-6.45,1.511-8.867,2.417a2.622,2.622,0,0,0-1.858,1.553c-.3.621.316,2.516.316,2.516-.994-.238-3.07,1.372-3.975,2.7-.963,1.408-1.367,3.106-.057,4.214-1.775,1.8-2.071,5.176-1.191,7.542.3.787.688.7.751,1.553.078,1.035-.549,1.786-.745,2.8a7.3,7.3,0,0,0,1.491,5.368,6.755,6.755,0,0,0-.492,8.96,13.626,13.626,0,0,0-1.9,4.659,4.631,4.631,0,0,0,1.662,4.493,6.865,6.865,0,0,0,4.063.75l21.9-.518a4.788,4.788,0,0,0,2.743-.6c1.154-.8,1.408-2.371,1.553-3.763.243-2.21.305-4.855-1.48-6.17a7.48,7.48,0,0,0-.481-8.468c1.17-.9,1.3-2.614,1.077-4.074s-.714-2.935-.414-4.379c.2-.937.709-1.781.87-2.723a14.616,14.616,0,0,0-.305-3.748c-.15-1.713.264-3.442.1-5.176s-1.982-5.57-3.691-5.808C253.974,287.206,251.339,284.555,249.533,285.56Z" transform="translate(-135.028 -177.172)" fill="#908ef4"/>
      <path id="Tracé_478" data-name="Tracé 478" d="M258.957,358.689a4.136,4.136,0,0,1-.875.73,6.256,6.256,0,0,1-1.2.616,9.718,9.718,0,0,1-1.719.466,26.527,26.527,0,0,1-4.612.254H244.9c-4.012-.047-7.64-.212-10.259-.445-1.31-.114-2.366-.233-3.106-.326l-.833-.119a1.842,1.842,0,0,1-.3-.052,2,2,0,0,1,.3,0l.844.083c.73.067,1.791.166,3.106.259,2.619.2,6.243.347,10.249.388l5.647.036a27.731,27.731,0,0,0,4.591-.212,9.469,9.469,0,0,0,1.7-.435,6.479,6.479,0,0,0,1.2-.575A11.171,11.171,0,0,0,258.957,358.689Z" transform="translate(-137.004 -214.052)" fill="#263238"/>
      <path id="Tracé_479" data-name="Tracé 479" d="M258.48,342a1.485,1.485,0,0,1-.269.088l-.782.212c-.342.093-.761.2-1.247.311s-1.035.243-1.667.357-1.3.254-2.029.362-1.522.223-2.35.331c-1.656.186-3.489.331-5.414.378a52.4,52.4,0,0,1-5.43-.135c-.833-.072-1.625-.129-2.36-.223s-1.423-.181-2.045-.274-1.191-.2-1.682-.285-.916-.171-1.258-.248l-.8-.181a1.605,1.605,0,0,1-.269-.072,1.135,1.135,0,0,1,.28.036l.8.14c.347.067.771.145,1.268.223s1.035.176,1.677.254,1.31.176,2.045.248,1.553.14,2.355.207c1.662.1,3.494.155,5.414.119s3.748-.186,5.4-.362c.828-.1,1.615-.191,2.345-.311s1.413-.228,2.029-.342,1.18-.233,1.667-.331.911-.192,1.253-.274l.792-.181A1.968,1.968,0,0,1,258.48,342Z" transform="translate(-137.231 -206.002)" fill="#263238"/>
      <path id="Tracé_480" data-name="Tracé 480" d="M255.261,288.66a.639.639,0,0,1-.16.078l-.471.2c-.414.166-1.035.4-1.77.668-1.5.549-3.592,1.242-5.953,1.874a36.909,36.909,0,0,1-6.129,1.149c-.4.036-.761.062-1.077.062h-.818l-.518-.036a.6.6,0,0,1-.176-.026.669.669,0,0,1,.176,0h.518a7.768,7.768,0,0,0,.813-.031c.3-.031.673-.047,1.066-.088a41.363,41.363,0,0,0,6.1-1.206c2.35-.626,4.446-1.3,5.953-1.812l1.791-.611.487-.166A.83.83,0,0,1,255.261,288.66Z" transform="translate(-140.757 -180.272)" fill="#263238"/>
      <path id="Tracé_481" data-name="Tracé 481" d="M228.841,302.77a8.89,8.89,0,0,0-.264.978,3.891,3.891,0,0,0,.466,2.619l.031.057-.041.057a7.4,7.4,0,0,0-1.273,2.961,7.857,7.857,0,0,0,.223,3.846,7.065,7.065,0,0,0,.958,1.952l.052.072-.047.078a7.469,7.469,0,0,0-1.092,3.235,7.915,7.915,0,0,0,.2,2.749,10.229,10.229,0,0,0,.963,2.309.9.9,0,0,1-.114-.135,4.86,4.86,0,0,1-.28-.414,7.181,7.181,0,0,1-.735-1.718,7.865,7.865,0,0,1-.264-2.811,7.7,7.7,0,0,1,1.1-3.359v.15a7.244,7.244,0,0,1-1-2.024,7.942,7.942,0,0,1-.207-3.975,7.377,7.377,0,0,1,1.356-3.038v.114a3.976,3.976,0,0,1-.4-2.749,3.614,3.614,0,0,1,.243-.725A.927.927,0,0,1,228.841,302.77Z" transform="translate(-135.528 -187.079)" fill="#263238"/>
      <path id="Tracé_482" data-name="Tracé 482" d="M252.19,334.4a1.085,1.085,0,0,1-.14-.109c-.088-.078-.217-.191-.378-.352a7.581,7.581,0,0,1-1.16-1.6,8.169,8.169,0,0,1-.921-2.976,7.768,7.768,0,0,1,.616-4.043v.1a7.29,7.29,0,0,1-1.18-4.074,7.369,7.369,0,0,1,1.553-4.534v.176a7.578,7.578,0,0,1-2.215-6.522,7.123,7.123,0,0,1,.424-1.589,4.27,4.27,0,0,0,.373-1.486,2.071,2.071,0,0,0-.585-1.32,6.316,6.316,0,0,1-.89-1.273,4.888,4.888,0,0,1-.461-2.945c.166-.973.6-1.822.652-2.692a7.465,7.465,0,0,0-.575-2.474,5.869,5.869,0,0,1-.15-2.4,6,6,0,0,1,1.863-3.556v.088a6.727,6.727,0,0,1-.58-3.535,4.752,4.752,0,0,1,.285-1.253,2.418,2.418,0,0,1-.062.321,8.665,8.665,0,0,0-.14.937,6.86,6.86,0,0,0,.637,3.463l.026.052-.041.041a5.872,5.872,0,0,0-1.77,3.468,5.749,5.749,0,0,0,.16,2.319,7.189,7.189,0,0,1,.6,2.547c-.067.958-.518,1.8-.642,2.718a4.659,4.659,0,0,0,.445,2.79,6.045,6.045,0,0,0,.864,1.222,2.347,2.347,0,0,1,.647,1.48,4.51,4.51,0,0,1-.388,1.584,6.793,6.793,0,0,0-.409,1.553,7.319,7.319,0,0,0,2.122,6.289l.088.083-.072.093a7.246,7.246,0,0,0-.409,8.329l.031.052v.052a7.6,7.6,0,0,0-.637,3.939,8.094,8.094,0,0,0,.854,2.935A8.673,8.673,0,0,0,252.19,334.4Z" transform="translate(-145.051 -179.004)" fill="#263238"/>
      <path id="Tracé_483" data-name="Tracé 483" d="M252.491,323.995a4.988,4.988,0,0,1-.766.145c-.492.072-1.211.171-2.1.28-1.775.212-4.234.461-6.957.647s-5.176.269-6.978.3h-2.117a4.228,4.228,0,0,1-.776-.041,4.07,4.07,0,0,1,.776-.067l2.112-.088c1.786-.073,4.25-.192,6.967-.373s5.176-.4,6.952-.569l2.107-.192A3.817,3.817,0,0,1,252.491,323.995Z" transform="translate(-138.157 -197.314)" fill="#263238"/>
      <path id="Tracé_484" data-name="Tracé 484" d="M254.577,305.26a5.4,5.4,0,0,1-.792.186c-.518.109-1.253.249-2.174.409-1.838.316-4.389.694-7.247,1s-5.409.481-7.247.564c-.932.041-1.687.062-2.21.067a5.387,5.387,0,0,1-.807,0,3.983,3.983,0,0,1,.8-.088l2.205-.155c1.858-.129,4.426-.336,7.247-.637s5.378-.657,7.247-.927l2.184-.316A4.046,4.046,0,0,1,254.577,305.26Z" transform="translate(-138.784 -188.28)" fill="#263238"/>
      <path id="Tracé_485" data-name="Tracé 485" d="M270.84,286.8c2.1-1.035,8.437.145,9.426,2.283a3.256,3.256,0,0,1,5.492,1.237,3.623,3.623,0,0,1,4.59-2.277c.07.024.14.049.208.077,1.206-1.455,3.106-2.071,4.912-2.655a3.688,3.688,0,0,1,5.13,1.92c1.175,1.631,2.391,3.37,2.552,5.373s-1.206,4.27-3.214,4.312a3.416,3.416,0,0,1-5.264,2.9,4.659,4.659,0,0,1-6.346,1.444,3.558,3.558,0,0,1-5.135,1.289,4.4,4.4,0,0,1-6.207-.439l-.067-.079" transform="translate(-156.506 -178.553)" fill="#908ef4"/>
      <path id="Tracé_486" data-name="Tracé 486" d="M281.325,312.693a1.512,1.512,0,0,1-.518-.036,4.256,4.256,0,0,1-1.315-.461,6.575,6.575,0,0,1-2.93-3.453,12.091,12.091,0,0,1-.673-4.5c0-.585.041-1.035.072-1.382a1.737,1.737,0,0,1,.078-.518c.041,0,0,.725.041,1.879a13.254,13.254,0,0,0,.73,4.415,6.755,6.755,0,0,0,2.774,3.38A7.444,7.444,0,0,0,281.325,312.693Z" transform="translate(-158.938 -186.871)" fill="#263238"/>
      <path id="Tracé_487" data-name="Tracé 487" d="M290.911,302.454a6.161,6.161,0,0,1-.59-1.413,18.143,18.143,0,0,1-.782-3.623,17.625,17.625,0,0,1,0-3.7,6.133,6.133,0,0,1,.269-1.506q0,.762-.078,1.522a22.676,22.676,0,0,0,.093,3.655,23.292,23.292,0,0,0,.694,3.592A13.447,13.447,0,0,1,290.911,302.454Z" transform="translate(-165.479 -181.985)" fill="#263238"/>
      <path id="Tracé_488" data-name="Tracé 488" d="M301.948,301.264a3.409,3.409,0,0,1-.637-.952,10.419,10.419,0,0,1-1.165-5.368,3.572,3.572,0,0,1,.181-1.134,20.233,20.233,0,0,0,.3,3.841A19.576,19.576,0,0,0,301.948,301.264Z" transform="translate(-170.636 -182.757)" fill="#263238"/>
      <path id="Tracé_489" data-name="Tracé 489" d="M312.83,302.019c-.041,0-.083-.657-.331-1.7a39.366,39.366,0,0,0-1.216-3.986c-.559-1.527-1.123-2.893-1.584-3.856s-.808-1.522-.771-1.553.119.119.29.367a10.846,10.846,0,0,1,.647,1.1,30.722,30.722,0,0,1,1.672,3.851,28.161,28.161,0,0,1,1.149,4.037,11.156,11.156,0,0,1,.166,1.263A1.489,1.489,0,0,1,312.83,302.019Z" transform="translate(-174.877 -181.364)" fill="#263238"/>
      <path id="Tracé_490" data-name="Tracé 490" d="M278.029,288.44a9.313,9.313,0,0,0-3.349,4.431A5.917,5.917,0,0,1,278.029,288.44Z" transform="translate(-158.359 -180.166)" fill="#263238"/>
      <path id="Tracé_491" data-name="Tracé 491" d="M353.955,100.86a10.78,10.78,0,0,0-3.075,7.521,9.325,9.325,0,0,1-.274,3.711c-.518,1.227-1.8,2.071-2.07,3.411a5.683,5.683,0,0,0,.585,2.925,3.378,3.378,0,0,1,.031,2.919,10.109,10.109,0,0,1-1.242,1.253c-1.035,1.18-.958,2.961-.8,4.54l14.856-.632Z" transform="translate(-193.252 -89.683)" fill="#0776f4"/>
      <path id="Tracé_492" data-name="Tracé 492" d="M382.06,104.036c-.973-4.141-1.972-8.453-5.4-10.969-3.054-2.241-6.476-2.78-10.254-2.5a13.391,13.391,0,0,0-5.528,2.039c-2.184,1.335-3.049,3.918-4.043,6.274-2,4.721-1.527,11.01,0,12.713l19.768,9.633c3.38-1.9,5.652-2.816,6.439-6.615C383.566,112.028,382.676,106.608,382.06,104.036Z" transform="translate(-197.344 -84.685)" fill="#0776f4"/>
      <path id="Tracé_493" data-name="Tracé 493" d="M377.023,102.683l-11.75-6.01h0c-3.96-.445-6.626,4.415-6.905,8.391-.305,4.415-.518,9.835,0,13.117,1,6.6,6.041,6.89,6.082,6.9l.041,2.676-.036,4.431h0c1.63,5.373,7.076,4.726,13.883,1.936h0l-1.279-31.441Z" transform="translate(-198.576 -87.65)" fill="#ffbe9d"/>
      <path id="Tracé_494" data-name="Tracé 494" d="M362.43,123.288a.854.854,0,0,0,.818.864.813.813,0,0,0,.878-.741l0-.02a.849.849,0,0,0-.813-.864.818.818,0,0,0-.884.746Z" transform="translate(-200.687 -100.133)" fill="#263238"/>
      <path id="Tracé_495" data-name="Tracé 495" d="M360.828,118.869c.1.109.751-.362,1.667-.352s1.579.471,1.682.357-.057-.248-.347-.466a2.388,2.388,0,0,0-1.367-.409,2.267,2.267,0,0,0-1.33.419C360.874,118.616,360.776,118.818,360.828,118.869Z" transform="translate(-199.907 -97.951)" fill="#263238"/>
      <path id="Tracé_496" data-name="Tracé 496" d="M378.5,123.288a.854.854,0,0,0,.813.864.818.818,0,0,0,.884-.746v-.015a.854.854,0,0,0-.813-.864.818.818,0,0,0-.884.746Z" transform="translate(-208.438 -100.133)" fill="#263238"/>
      <path id="Tracé_497" data-name="Tracé 497" d="M377.054,118.5c.1.114.751-.362,1.667-.352s1.584.471,1.682.357-.057-.248-.347-.461a2.308,2.308,0,0,0-1.346-.424,2.23,2.23,0,0,0-1.33.414C377.1,118.251,377.023,118.448,377.054,118.5Z" transform="translate(-207.738 -97.767)" fill="#263238"/>
      <path id="Tracé_498" data-name="Tracé 498" d="M369.545,124.744a6.035,6.035,0,0,0-1.48-.28c-.233,0-.456-.072-.492-.233a1.123,1.123,0,0,1,.16-.688l.7-1.775a29.349,29.349,0,0,0,1.584-4.659,29.466,29.466,0,0,0-1.952,4.5c-.233.626-.461,1.216-.673,1.786a1.35,1.35,0,0,0-.129.916.581.581,0,0,0,.383.342,1.749,1.749,0,0,0,.393.062A6.165,6.165,0,0,0,369.545,124.744Z" transform="translate(-203.004 -97.52)" fill="#263238"/>
      <path id="Tracé_499" data-name="Tracé 499" d="M370.32,149.373a16.823,16.823,0,0,0,8.888-2.3s-2.226,4.622-8.851,3.955Z" transform="translate(-204.493 -111.973)" fill="#eb996e"/>
      <path id="Tracé_500" data-name="Tracé 500" d="M374.638,134.567a1.46,1.46,0,0,0-1.216-.673,1.9,1.9,0,0,0-1.75.849,1.188,1.188,0,0,0-.083.854c.062.15,0,.078.124.176a3.343,3.343,0,0,0,1.361.859,1.434,1.434,0,0,0,1.522-.549A1.47,1.47,0,0,0,374.638,134.567Z" transform="translate(-205.084 -105.614)" fill="#eb996e"/>
      <path id="Tracé_501" data-name="Tracé 501" d="M374.451,133.18c-.145,0-.16.983-1.035,1.677s-1.915.575-1.926.709.233.2.683.217a2.486,2.486,0,0,0,1.6-.518,2.164,2.164,0,0,0,.792-1.408C374.627,133.423,374.518,133.175,374.451,133.18Z" transform="translate(-205.057 -105.273)" fill="#263238"/>
      <path id="Tracé_502" data-name="Tracé 502" d="M377.327,113.222c.072.254.989.2,2.071.393s1.91.518,2.07.331c.067-.1-.067-.347-.4-.606a3.624,3.624,0,0,0-3.142-.554C377.5,112.917,377.3,113.1,377.327,113.222Z" transform="translate(-207.871 -95.368)" fill="#263238"/>
      <path id="Tracé_503" data-name="Tracé 503" d="M360.791,114.6c.212.171.87-.166,1.7-.321s1.553-.14,1.687-.378c.052-.119-.1-.305-.44-.445a2.673,2.673,0,0,0-1.444-.088,2.589,2.589,0,0,0-1.284.652C360.755,114.28,360.7,114.508,360.791,114.6Z" transform="translate(-199.876 -95.685)" fill="#263238"/>
      <path id="Tracé_504" data-name="Tracé 504" d="M372.206,95.31a1.246,1.246,0,0,1-.026.145h.026Z" transform="translate(-205.39 -87.006)" fill="#263238"/>
      <path id="Tracé_505" data-name="Tracé 505" d="M364.892,94.676l-1.044-.01c-1.268-.611-2.107-1.32-4,.456a11.876,11.876,0,0,0-2.562,3.82,15.211,15.211,0,0,0-1.356,4.084,17.608,17.608,0,0,0,0,5.083,5.7,5.7,0,0,0,1.962-3.432,17.814,17.814,0,0,1,1.123-3.872,10.354,10.354,0,0,0-.109,3.359,1.4,1.4,0,0,0,.388.823.585.585,0,0,0,.823,0,7.248,7.248,0,0,1-.1-3.981,20.619,20.619,0,0,1,1.4-3.784,19.889,19.889,0,0,0,.44,6.729,1.734,1.734,0,0,0,.4.87,1.585,1.585,0,0,0,1.377.248,10.071,10.071,0,0,1,2.547-.063C364.252,101.763,364.241,98.07,364.892,94.676Z" transform="translate(-197.462 -86.372)" fill="#0776f4"/>
      <path id="Tracé_506" data-name="Tracé 506" d="M405.136,157.6a2.175,2.175,0,0,0-1.77-.621h-.026" transform="translate(-220.421 -116.754)" fill="#263238"/>
      <path id="Tracé_507" data-name="Tracé 507" d="M393.681,118.017a7.057,7.057,0,0,0,.357-3.623c-.321-1.092-1.258-1.957-1.413-3.106-.135-.978.357-1.967.186-2.935-.2-1.128-1.216-1.889-1.967-2.754-1.553-1.812-1.957-7.733-5.388-10.171l-.311.606a10.848,10.848,0,0,0-3.7-1.8,18.719,18.719,0,0,0-9.783-.119l-.047.269a14.671,14.671,0,0,0,1.294,7.858,5.4,5.4,0,0,0,1.273,1.843,2.417,2.417,0,0,0,2.071.606,8.99,8.99,0,0,1-1.972-5.088,19.054,19.054,0,0,0,3.106,5.254,7.767,7.767,0,0,0,2.852,1.988,5.84,5.84,0,0,0,.518,1.636,7.258,7.258,0,0,1,1.035,3.225,7.962,7.962,0,0,1-1.1,2.992,9.479,9.479,0,0,0-.072,7.459,99.748,99.748,0,0,0,13.458-.626C393.262,120.61,393.386,119.213,393.681,118.017Z" transform="translate(-205.073 -86.145)" fill="#0776f4"/>
      <path id="Tracé_508" data-name="Tracé 508" d="M359.784,435.43l4.353,17.449-20.669,5.5c-.424-2.1,10.047-9.255,10.047-9.255l-3.2-11.652Z" transform="translate(-191.534 -251.07)" fill="#ff725e"/>
      <g id="Groupe_37" data-name="Groupe 37" transform="translate(166.412 195.561)" opacity="0.6">
        <path id="Tracé_509" data-name="Tracé 509" d="M372.278,457.08a.916.916,0,0,1,.854.854.844.844,0,0,1-.787.864.963.963,0,0,1-.9-.906c.026-.445.518-.916.916-.807" transform="translate(-371.45 -457.069)" fill="#fff"/>
      </g>
      <g id="Groupe_38" data-name="Groupe 38" transform="translate(151.875 200.07)" opacity="0.6">
        <path id="Tracé_510" data-name="Tracé 510" d="M364.088,467.519l-.518-1.739-19.623,5.927s-.813.663-.518,1.315Z" transform="translate(-343.365 -465.78)" fill="#fff"/>
      </g>
      <path id="Tracé_511" data-name="Tracé 511" d="M362.377,462.217c.031.1.549,0,1.134.223s.968.585,1.035.518-.228-.637-.942-.875S362.331,462.124,362.377,462.217Z" transform="translate(-200.66 -263.881)" fill="#263238"/>
      <path id="Tracé_512" data-name="Tracé 512" d="M357.649,465.631c0,.109.487.171.947.518s.688.8.787.771,0-.647-.575-1.077S357.623,465.527,357.649,465.631Z" transform="translate(-198.38 -265.592)" fill="#263238"/>
      <path id="Tracé_513" data-name="Tracé 513" d="M355.5,469.863c.1,0,.1-.564-.311-1.077s-.947-.616-.968-.518.357.331.688.756S355.394,469.879,355.5,469.863Z" transform="translate(-196.726 -266.895)" fill="#263238"/>
      <path id="Tracé_514" data-name="Tracé 514" d="M361.2,456.081c.067.083.518-.186,1.071-.295s1.077-.041,1.1-.145-.518-.367-1.18-.228S361.13,456.008,361.2,456.081Z" transform="translate(-200.091 -260.69)" fill="#263238"/>
      <path id="Tracé_515" data-name="Tracé 515" d="M359.17,449.606a1.96,1.96,0,0,0,1.035-.279,4.667,4.667,0,0,0,.989-.637,5.609,5.609,0,0,0,.518-.487,1.312,1.312,0,0,0,.243-.342.518.518,0,0,0-.1-.575.564.564,0,0,0-.518-.124,1.4,1.4,0,0,0-.373.16,3.776,3.776,0,0,0-.585.4,3.934,3.934,0,0,0-.782.9,1.83,1.83,0,0,0-.373,1.035c.052,0,.2-.368.585-.885a4.152,4.152,0,0,1,.782-.787,3.6,3.6,0,0,1,.544-.352c.2-.119.388-.171.471-.083s.036.047,0,.129a1.092,1.092,0,0,1-.181.243,5.78,5.78,0,0,1-.461.476,5.641,5.641,0,0,1-.9.668A7.8,7.8,0,0,0,359.17,449.606Z" transform="translate(-199.114 -256.721)" fill="#263238"/>
      <path id="Tracé_516" data-name="Tracé 516" d="M357.577,449.117a1.841,1.841,0,0,0,0-1.123,3.862,3.862,0,0,0-.45-1.149,4.128,4.128,0,0,0-.44-.585.9.9,0,0,0-.807-.373.517.517,0,0,0-.352.414,1.7,1.7,0,0,0,0,.43,2.663,2.663,0,0,0,.932,1.734c.554.45,1,.466,1,.43a4.88,4.88,0,0,1-.839-.631,2.582,2.582,0,0,1-.6-.932,2.5,2.5,0,0,1-.145-.632c-.031-.238,0-.445.093-.445a.771.771,0,0,1,.455.259,3.726,3.726,0,0,1,.409.518,4.25,4.25,0,0,1,.487,1.035C357.52,448.693,357.52,449.117,357.577,449.117Z" transform="translate(-197.351 -256.113)" fill="#263238"/>
      <path id="Tracé_517" data-name="Tracé 517" d="M388.26,442.337l-.331,17.982-21.388-.062c.135-2.138,12.107-6.325,12.107-6.325l-.057-12.081Z" transform="translate(-202.669 -254.167)" fill="#ff725e"/>
      <g id="Groupe_39" data-name="Groupe 39" transform="translate(180.656 198.716)" opacity="0.6">
        <path id="Tracé_518" data-name="Tracé 518" d="M400.019,463.183a.916.916,0,0,1,.6,1.035.833.833,0,0,1-.983.632.963.963,0,0,1-.652-1.1.87.87,0,0,1,1.1-.544" transform="translate(-398.967 -463.164)" fill="#fff"/>
      </g>
      <g id="Groupe_40" data-name="Groupe 40" transform="translate(163.863 204.335)" opacity="0.6">
        <path id="Tracé_519" data-name="Tracé 519" d="M387.921,475.837l-.047-1.817-20.493.621s-.952.435-.849,1.134Z" transform="translate(-366.525 -474.02)" fill="#fff"/>
      </g>
      <path id="Tracé_520" data-name="Tracé 520" d="M389.31,465.49c0,.109.518.161,1.035.518s.787.813.88.771-.057-.673-.683-1.092S389.289,465.392,389.31,465.49Z" transform="translate(-213.652 -265.524)" fill="#263238"/>
      <path id="Tracé_521" data-name="Tracé 521" d="M383.889,467.489c-.026.1.424.3.776.756s.455.952.559.952.171-.626-.28-1.2S383.889,467.386,383.889,467.489Z" transform="translate(-211.038 -266.514)" fill="#263238"/>
      <path id="Tracé_522" data-name="Tracé 522" d="M380.718,471c.093.026.243-.518-.026-1.123s-.745-.818-.8-.745.259.409.471.906S380.614,470.986,380.718,471Z" transform="translate(-209.109 -267.318)" fill="#263238"/>
      <path id="Tracé_523" data-name="Tracé 523" d="M389.657,459.43c.041.1.518-.047,1.113,0s1.035.238,1.1.145-.388-.481-1.082-.518S389.6,459.347,389.657,459.43Z" transform="translate(-213.818 -262.466)" fill="#263238"/>
      <path id="Tracé_524" data-name="Tracé 524" d="M389,452.916a1.934,1.934,0,0,0,1.066,0,4.549,4.549,0,0,0,1.123-.357,4.315,4.315,0,0,0,.616-.342,1.2,1.2,0,0,0,.326-.264.486.486,0,0,0,.052-.58.57.57,0,0,0-.456-.254,1.5,1.5,0,0,0-.4.057,4.236,4.236,0,0,0-.668.238,3.843,3.843,0,0,0-.989.678c-.518.481-.673.89-.637.911s.29-.305.8-.7a4.265,4.265,0,0,1,.958-.559,3.3,3.3,0,0,1,.616-.2c.228-.062.419-.062.481.042s0,.057,0,.124a.929.929,0,0,1-.238.192,5.175,5.175,0,0,1-.569.336,5.483,5.483,0,0,1-1.035.414A5.954,5.954,0,0,0,389,452.916Z" transform="translate(-213.503 -258.639)" fill="#263238"/>
      <path id="Tracé_525" data-name="Tracé 525" d="M387.909,451.571a1.864,1.864,0,0,0,.285-1.082,3.738,3.738,0,0,0-.14-1.232,3.371,3.371,0,0,0-.269-.678.884.884,0,0,0-.683-.569.518.518,0,0,0-.445.311,1.559,1.559,0,0,0-.114.409,2.644,2.644,0,0,0,.45,1.915c.414.585.849.714.859.678a4.444,4.444,0,0,1-.647-.823,2.672,2.672,0,0,1-.331-1.035,2.258,2.258,0,0,1,0-.647c.036-.238.119-.43.207-.409a.776.776,0,0,1,.373.368,3.842,3.842,0,0,1,.259.611,4.193,4.193,0,0,1,.207,1.123C387.966,451.147,387.852,451.556,387.909,451.571Z" transform="translate(-212.303 -257.138)" fill="#263238"/>
      <path id="Tracé_526" data-name="Tracé 526" d="M339.141,270s-8.945,52.358-7.935,56.178,12.941,42.746,12.941,42.746l14.68-4.628-9.229-36.84s6.051-28.894,6.051-29.37,2.422-21.482,2.422-21.482Z" transform="translate(-185.587 -171.271)" fill="#becbfc"/>
      <path id="Tracé_527" data-name="Tracé 527" d="M398.681,278.469a63.419,63.419,0,0,0-3.432-16.279C394.442,262.609,372.66,274,372.66,274l4.213,49.692,2.443,42.332h12.7s2-36.12,2.588-43.755C394.576,322.23,399.489,288.066,398.681,278.469Z" transform="translate(-205.621 -167.504)" fill="#becbfc"/>
      <path id="Tracé_528" data-name="Tracé 528" d="M359.816,377.591c-.031.026-.347-.336-.927-.844a11.3,11.3,0,0,0-2.5-1.641,11.17,11.17,0,0,0-2.847-.926c-.756-.135-1.237-.145-1.237-.191a3.669,3.669,0,0,1,1.268,0,9.259,9.259,0,0,1,2.93.87,9.38,9.38,0,0,1,2.51,1.744A3.566,3.566,0,0,1,359.816,377.591Z" transform="translate(-195.805 -221.406)" fill="#455a64"/>
      <path id="Tracé_529" data-name="Tracé 529" d="M398.239,389.372a1.4,1.4,0,0,1-.393.171,10.423,10.423,0,0,1-1.108.321,14.566,14.566,0,0,1-7.563-.264,9.56,9.56,0,0,1-1.087-.4,1.558,1.558,0,0,1-.378-.2c0-.042.58.166,1.517.409a16.962,16.962,0,0,0,7.469.264C397.648,389.517,398.213,389.326,398.239,389.372Z" transform="translate(-212.881 -228.674)" fill="#455a64"/>
      <path id="Tracé_530" data-name="Tracé 530" d="M327.8,289.194a4.655,4.655,0,0,0,2.247-1.165,7.7,7.7,0,0,0,1.191-1.553,6.676,6.676,0,0,0,1.185-3.106c.062-1.118-.725-3.318-1.755-3.763a1.656,1.656,0,0,0-2.014.44,7.488,7.488,0,0,0-.709,2.205c-.119.839.2,1.874-.44,2.428-.305.269-.756.326-1.035.6-.518.492-.316,1.361,0,2.014a13.02,13.02,0,0,0,1.134,1.967" transform="translate(-183.19 -175.832)" fill="#ffbe9d"/>
      <path id="Tracé_531" data-name="Tracé 531" d="M327.506,289.125a.912.912,0,0,1-.166-.2c-.1-.129-.243-.331-.409-.6a11.413,11.413,0,0,1-.569-1.035,3.049,3.049,0,0,1-.362-1.475,1.141,1.141,0,0,1,.44-.833c.269-.2.6-.28.849-.45a1.067,1.067,0,0,0,.44-.787,7.25,7.25,0,0,0,0-1.071,4.253,4.253,0,0,1,.145-1.165,8.339,8.339,0,0,1,.368-1.159,3.423,3.423,0,0,1,.28-.575,1.228,1.228,0,0,1,.518-.44,2.11,2.11,0,0,1,1.336-.083,1.957,1.957,0,0,1,1.077.8,5.185,5.185,0,0,1,.606,1.1,4.914,4.914,0,0,1,.4,2.345,6.019,6.019,0,0,1-.7,2.034,14.074,14.074,0,0,1-.994,1.553,4.809,4.809,0,0,1-2.071,1.687,4.283,4.283,0,0,1-.7.217,1.047,1.047,0,0,1-.254.031,5.521,5.521,0,0,0,.911-.347,4.912,4.912,0,0,0,1.972-1.7,15.854,15.854,0,0,0,.947-1.553,5.8,5.8,0,0,0,.642-1.941,4.721,4.721,0,0,0-.393-2.215,5.02,5.02,0,0,0-.575-1.061,1.667,1.667,0,0,0-.927-.694,1.846,1.846,0,0,0-1.16.062.958.958,0,0,0-.419.347,3.773,3.773,0,0,0-.259.518,6.218,6.218,0,0,0-.518,2.226,7.856,7.856,0,0,1-.026,1.1,1.309,1.309,0,0,1-.554.942c-.305.2-.621.264-.849.435a.916.916,0,0,0-.373.678,2.852,2.852,0,0,0,.336,1.423c.186.4.362.745.518,1.035C327.33,288.824,327.522,289.114,327.506,289.125Z" transform="translate(-183.114 -175.701)" fill="#eb996e"/>
      <path id="Tracé_532" data-name="Tracé 532" d="M327.465,279.157a2.586,2.586,0,0,1,1.3.336.874.874,0,0,1,.285,1.18c-.274.347-.8.311-1.237.243a2.069,2.069,0,0,1,1.035.316.73.73,0,0,1,.223.973.992.992,0,0,1-.792.274,8.256,8.256,0,0,1-1.884-.171,2.021,2.021,0,0,1-1.227-.616.849.849,0,0,1,.093-1.2l.037-.03a1.682,1.682,0,0,1-.859-1.185c-.088-.492.088-.678-.269-1.035a1.708,1.708,0,0,1-.435-2.293c.544-.952,1.579-.973,2.655-1.993l3.773,3.727Z" transform="translate(-181.888 -173.182)" fill="#ffbe9d"/>
      <path id="Tracé_533" data-name="Tracé 533" d="M331.475,277.885c-2.723,2.495-4.98-.776-5.233-.243s-.968,1.387-1.594,1.387-1.035-.114-1-1.1,2.862-4.307,2.862-4.307Z" transform="translate(-181.978 -173.018)" fill="#ffbe9d"/>
      <path id="Tracé_534" data-name="Tracé 534" d="M331.384,277.755a3.776,3.776,0,0,1-.4-.311l-1.035-.864c-.9-.74-2.143-1.77-3.587-3h.176a28.824,28.824,0,0,0-2.474,3.391,2.112,2.112,0,0,0-.347.958c0,.342.057.688.336.782a1.48,1.48,0,0,0,.466.067.834.834,0,0,0,.43-.1,2.411,2.411,0,0,0,.714-.6,3.533,3.533,0,0,0,.269-.368,1.9,1.9,0,0,0,.114-.2l.031-.052a.2.2,0,0,1,.083-.088.253.253,0,0,1,.2,0,4.264,4.264,0,0,1,.787.481,4.875,4.875,0,0,0,1.392.683,2.784,2.784,0,0,0,2.169-.3c.466-.285.668-.466.7-.466a2.632,2.632,0,0,1-.647.554,2.848,2.848,0,0,1-2.267.393,4.947,4.947,0,0,1-1.47-.683,5.487,5.487,0,0,0-.725-.44h0l-.026.047a1.852,1.852,0,0,1-.119.217,4.023,4.023,0,0,1-.285.4,2.649,2.649,0,0,1-.792.673,1.161,1.161,0,0,1-.549.129,1.682,1.682,0,0,1-.559-.088.714.714,0,0,1-.43-.45,1.7,1.7,0,0,1-.078-.575,2.322,2.322,0,0,1,.383-1.092,26.485,26.485,0,0,1,2.521-3.416l.078-.1.1.083c1.47,1.284,2.707,2.386,3.566,3.152l.989.9A2.081,2.081,0,0,1,331.384,277.755Z" transform="translate(-181.888 -172.887)" fill="#eb996e"/>
      <path id="Tracé_535" data-name="Tracé 535" d="M326.415,287a.518.518,0,0,0-.176.8,1.553,1.553,0,0,0,.782.492,5.985,5.985,0,0,0,2.842.544c.311-.036.663-.176.745-.476s-.243-.657-.564-.823a6.725,6.725,0,0,0-2.391-.518" transform="translate(-183.172 -179.472)" fill="#ffbe9d"/>
      <path id="Tracé_536" data-name="Tracé 536" d="M327.6,286.986a1.124,1.124,0,0,1,.368,0,7.718,7.718,0,0,1,.994.1,3.31,3.31,0,0,1,1.413.554.934.934,0,0,1,.285.393.591.591,0,0,1-.062.518,1.185,1.185,0,0,1-.932.409,4.854,4.854,0,0,1-1.822-.259,8.52,8.52,0,0,1-1.392-.559.934.934,0,0,1-.4-.466.684.684,0,0,1,0-.461c.109-.248.3-.248.29-.238a.414.414,0,0,0-.191.274.559.559,0,0,0,.026.373.768.768,0,0,0,.352.352,10.676,10.676,0,0,0,1.367.487,4.81,4.81,0,0,0,1.729.228.989.989,0,0,0,.735-.285c.135-.186,0-.435-.171-.6a3.4,3.4,0,0,0-1.289-.554C328.118,287.079,327.59,287.033,327.6,286.986Z" transform="translate(-183.12 -179.458)" fill="#eb996e"/>
      <path id="Tracé_537" data-name="Tracé 537" d="M329.61,285.2a.791.791,0,0,1,.228-.036,1.753,1.753,0,0,0,.559-.114c.2-.088.419-.342.326-.585s-.44-.373-.823-.45a10.576,10.576,0,0,0-1.951-.347,7.38,7.38,0,0,1-.828,0,1.554,1.554,0,0,1,.828-.176,7.236,7.236,0,0,1,2.014.274,2.827,2.827,0,0,1,.575.181.814.814,0,0,1,.419.45.605.605,0,0,1-.1.564.817.817,0,0,1-.383.28,1.417,1.417,0,0,1-.637.041C329.687,285.246,329.61,285.22,329.61,285.2Z" transform="translate(-183.654 -177.78)" fill="#eb996e"/>
      <path id="Tracé_538" data-name="Tracé 538" d="M438.243,278.505q-1.035-3-2.071-5.984c-.833-2.392-1.729-4.876-3.541-6.641s-5.482-2.79-7.552-1.335l-1.553,22.822a1.428,1.428,0,0,0,.445,1.946,3.622,3.622,0,0,0,2.148.481,18.889,18.889,0,0,0,8.9-2.293c1.8-.978,3.551-2.428,3.965-4.436A8.9,8.9,0,0,0,438.243,278.505Z" transform="translate(-230.048 -168.306)" fill="#455a64"/>
      <path id="Tracé_539" data-name="Tracé 539" d="M376.989,213.142c-1-7.309-3.318-16.342-3.318-16.342s2.024-11.279,1.589-17.786c-.3-4.5-.818-12.785-1.108-17.46a4.907,4.907,0,0,0-3.535-4.4l-7.06-2.071-14.815,2.547-7.387,1.62a9.11,9.11,0,0,0-3.944,1.941,14.64,14.64,0,0,0-4.659,7.469c-.952,3.68-3.411,25.721-3.411,25.721L323,216.362l10.187,5.994s1.838-8.976,2.35-10.658c-1.123,5.14-6.294,24.9-8.329,39.366l19.473.74,2.816-7.583,1.688,7.764,24.163.885S379.23,229.463,376.989,213.142Z" transform="translate(-181.667 -115.837)" fill="url(#linear-gradient)"/>
      <path id="Tracé_540" data-name="Tracé 540" d="M350.072,178.33a.678.678,0,0,1-.072.124l-.228.336a11.372,11.372,0,0,0-.8,1.356,18.809,18.809,0,0,0-1.662,5.513,30.2,30.2,0,0,0-.057,8.551,90.1,90.1,0,0,1,.606,10.539c0,1.869.062,3.7-.052,5.466a41.3,41.3,0,0,1-.616,5.062c-.59,3.194-1.31,6.025-1.827,8.417s-.932,4.338-1.206,5.694c-.135.657-.238,1.175-.316,1.553-.036.166-.067.3-.088.4a.453.453,0,0,1-.041.14.524.524,0,0,1,0-.145l.062-.4q.093-.567.264-1.553c.243-1.346.611-3.3,1.123-5.694s1.2-5.244,1.77-8.427a42.888,42.888,0,0,0,.6-5.031c.1-1.755.057-3.577.041-5.451a93.18,93.18,0,0,0-.585-10.508,30.055,30.055,0,0,1,.114-8.613,18.105,18.105,0,0,1,1.76-5.528,9.822,9.822,0,0,1,.844-1.341l.254-.326A.522.522,0,0,1,350.072,178.33Z" transform="translate(-191.657 -127.052)" fill="#263238"/>
      <path id="Tracé_541" data-name="Tracé 541" d="M367.431,156.279l-.311-4.395A59.6,59.6,0,0,0,384.1,149.86l.808,4Z" transform="translate(-202.949 -113.319)" fill="url(#linear-gradient)"/>
      <path id="Tracé_542" data-name="Tracé 542" d="M375.548,153.63a1.939,1.939,0,0,1,0,.233c0,.166.036.388.062.678.047.616.114,1.5.2,2.624.176,2.278.383,5.58.611,9.659.445,8.158.864,19.447.7,31.922s-.9,23.749-1.553,31.891c-.342,4.074-.647,7.366-.885,9.638-.119,1.128-.212,2-.279,2.614l-.078.683a.585.585,0,0,1-.036.228v-.233c0-.155.026-.388.052-.683.052-.611.129-1.491.223-2.619.212-2.272.487-5.57.807-9.643.626-8.142,1.32-19.411,1.491-31.881s-.228-23.749-.626-31.907c-.2-4.079-.383-7.381-.518-9.664-.062-1.128-.114-2.008-.15-2.624a5.831,5.831,0,0,0-.031-.683C375.543,153.708,375.548,153.63,375.548,153.63Z" transform="translate(-206.408 -115.138)" fill="#263238"/>
      <path id="Tracé_543" data-name="Tracé 543" d="M382.972,181.741a.816.816,0,0,1,.383,0,1.649,1.649,0,0,1,.911.518,1.626,1.626,0,0,1,.352,1.553,1.718,1.718,0,0,1-3.152.414,1.6,1.6,0,0,1-.057-1.553,1.676,1.676,0,0,1,.735-.761.694.694,0,0,1,.373-.109s-.124.067-.321.2a1.771,1.771,0,0,0-.616.751,1.45,1.45,0,0,0,.1,1.361,1.48,1.48,0,0,0,2.7-.357,1.423,1.423,0,0,0-.264-1.335,1.721,1.721,0,0,0-.787-.569A2.68,2.68,0,0,1,382.972,181.741Z" transform="translate(-209.758 -128.688)" fill="#263238"/>
      <path id="Tracé_544" data-name="Tracé 544" d="M382.972,230.981a.816.816,0,0,1,.383,0,1.651,1.651,0,0,1,.911.544,1.626,1.626,0,0,1,.352,1.553,1.718,1.718,0,0,1-3.152.414,1.6,1.6,0,0,1-.057-1.553,1.675,1.675,0,0,1,.735-.761c.228-.114.368-.119.373-.1a3.664,3.664,0,0,1-.321.192,1.761,1.761,0,0,0-.616.756,1.439,1.439,0,0,0,.1,1.356,1.48,1.48,0,0,0,2.7-.357,1.423,1.423,0,0,0-.264-1.335,1.721,1.721,0,0,0-.787-.569A2.646,2.646,0,0,1,382.972,230.981Z" transform="translate(-209.758 -152.44)" fill="#263238"/>
      <path id="Tracé_545" data-name="Tracé 545" d="M382.972,280.143a.913.913,0,0,1,.383,0,1.666,1.666,0,0,1,.911.549,1.614,1.614,0,0,1,.352,1.527,1.718,1.718,0,0,1-3.152.414,1.6,1.6,0,0,1-.057-1.553,1.676,1.676,0,0,1,.735-.761c.228-.114.368-.119.373-.1a3.649,3.649,0,0,1-.321.192,1.761,1.761,0,0,0-.616.756,1.439,1.439,0,0,0,.1,1.356,1.48,1.48,0,0,0,2.7-.357,1.423,1.423,0,0,0-.264-1.335,1.667,1.667,0,0,0-.787-.564C383.107,280.174,382.967,280.169,382.972,280.143Z" transform="translate(-209.758 -176.155)" fill="#263238"/>
      <g id="Groupe_41" data-name="Groupe 41" transform="translate(167.044 67.966)" opacity="0.3">
        <path id="Tracé_546" data-name="Tracé 546" d="M372.934,210.943c6.284,6.5,13.417,12.775,22.2,14.944a3.523,3.523,0,0,0,1.729.114,1.319,1.319,0,0,0,1.035-1.242c-2.516.543-6.7-2.3-9.9-3.981-5.528-2.9-10-6.947-15.327-10.208" transform="translate(-372.67 -210.57)"/>
      </g>
      <g id="Groupe_42" data-name="Groupe 42" transform="translate(153.26 62.857)" opacity="0.3">
        <path id="Tracé_547" data-name="Tracé 547" d="M348,200.7a19.46,19.46,0,0,0-1.553,9.017c.207,3.054.756,6.077.844,9.136.15,4.943-1.672,10.943-1.154,15.42l.248.342C350.766,220.458,348.8,212.02,348,200.7Z" transform="translate(-346.041 -200.7)"/>
      </g>
      <path id="Tracé_548" data-name="Tracé 548" d="M384.974,157a2.927,2.927,0,0,1-.626.316c-.207.1-.471.191-.771.3s-.652.228-1.035.342a34.882,34.882,0,0,1-6.212,1.154,50.443,50.443,0,0,1-6.315.248c-.813,0-1.465-.062-1.915-.1a3.31,3.31,0,0,1-.7-.093,4,4,0,0,1,.7,0c.45,0,1.1.026,1.91,0,1.615,0,3.841-.078,6.289-.326a40.739,40.739,0,0,0,6.212-1.072c.388-.1.74-.2,1.035-.3s.569-.176.776-.259A3.9,3.9,0,0,1,384.974,157Z" transform="translate(-203.084 -116.763)" fill="#263238"/>
      <path id="Tracé_549" data-name="Tracé 549" d="M413.277,162.158c.026.041-.461.362-1.144,1a10.632,10.632,0,0,0-3.225,6.382c-.114.927-.083,1.511-.129,1.517a1.133,1.133,0,0,1-.062-.409,6.323,6.323,0,0,1,0-1.128,9.646,9.646,0,0,1,1-3.572,9.8,9.8,0,0,1,2.278-2.93,7.142,7.142,0,0,1,.906-.673C413.137,162.21,413.266,162.142,413.277,162.158Z" transform="translate(-223.002 -119.25)" fill="#263238"/>
      <path id="Tracé_550" data-name="Tracé 550" d="M358.292,166.32a22.85,22.85,0,0,1-.585,2.448,23.982,23.982,0,0,1-.564,2.454,7.729,7.729,0,0,1,.305-2.516A7.921,7.921,0,0,1,358.292,166.32Z" transform="translate(-198.133 -121.259)" fill="#263238"/>
      <path id="Tracé_551" data-name="Tracé 551" d="M351.99,164.384c-.311.709,5.839,38.372,39.34,55.655a19.871,19.871,0,0,0-.575-4.71s-25.043-18.966-29.5-34.609l-4.716-18.07S352.663,162.867,351.99,164.384Z" transform="translate(-195.645 -119.489)" fill="#455a64"/>
      <path id="Tracé_552" data-name="Tracé 552" d="M393.018,159.08s4.716.839,6.056,4.488c1.713,4.659,3.691,15.891,4.094,23.759s-5.249,12.677-8.08,12.791-25.659-15.27-25.659-15.27l5.3-8.21,15.529,7.247Z" transform="translate(-204.063 -117.767)" fill="url(#linear-gradient)"/>
      <path id="Tracé_553" data-name="Tracé 553" d="M389.787,184.88a1.132,1.132,0,0,1,0,.2l.031.59c0,.518.052,1.289.088,2.267.072,1.983.171,4.845.3,8.406v.15l-.135-.062-15.529-7.247.16-.047-5.275,8.23-.036-.181,3.318,2.2c4.886,3.214,9.571,6.212,13.909,8.851,2.169,1.294,4.25,2.521,6.274,3.494a11.434,11.434,0,0,0,1.517.616,2.269,2.269,0,0,0,.378.093h.186a1.319,1.319,0,0,0,.191,0l.378-.052.373-.109a7.729,7.729,0,0,0,2.542-1.491,12.424,12.424,0,0,0,3.106-4.027,13.316,13.316,0,0,0,1.216-3.675,11.724,11.724,0,0,0,.186-1.408,7.8,7.8,0,0,0,.047-1.035V200a1.165,1.165,0,0,1,0-.217,1.181,1.181,0,0,1,0,.217v.642a7.44,7.44,0,0,1-.026,1.035,10.616,10.616,0,0,1-.166,1.418,12.941,12.941,0,0,1-1.18,3.727,12.542,12.542,0,0,1-3.049,4.1A7.957,7.957,0,0,1,396,212.48l-.388.114a2.832,2.832,0,0,0-.4.062h-.424a2.056,2.056,0,0,1-.409-.093,11.823,11.823,0,0,1-1.553-.626c-2.045-.973-4.141-2.19-6.3-3.484-4.348-2.588-9.043-5.621-13.924-8.841l-3.308-2.2-.114-.078.072-.109,5.3-8.2.062-.093.1.047,15.529,7.293-.129.083c-.093-3.561-.16-6.424-.212-8.411,0-.978-.031-1.734-.041-2.267v-.59A1.154,1.154,0,0,1,389.787,184.88Z" transform="translate(-203.938 -130.212)" fill="#263238"/>
      <path id="Tracé_554" data-name="Tracé 554" d="M417.722,212.36c-.036,0-.352-.456-.963-1.154a12.574,12.574,0,0,0-6.025-3.789c-.89-.248-1.46-.326-1.455-.373a1.235,1.235,0,0,1,.409,0,7.506,7.506,0,0,1,1.1.181,11.11,11.11,0,0,1,6.113,3.862,7.4,7.4,0,0,1,.637.911C417.676,212.22,417.738,212.35,417.722,212.36Z" transform="translate(-223.286 -140.895)" fill="#263238"/>
      <g id="Groupe_43" data-name="Groupe 43" transform="translate(183.354 54.668)" opacity="0.3">
        <path id="Tracé_555" data-name="Tracé 555" d="M406.675,184.88a27.646,27.646,0,0,1-2.495,10.151,9.521,9.521,0,0,1,2.826,1.486c.254-.186,0-.367,0-.678-.186-3.458-.135-7.506-.321-10.958" transform="translate(-404.18 -184.88)"/>
      </g>
      <g id="Groupe_44" data-name="Groupe 44" transform="translate(186.274 66.123)" opacity="0.3">
        <path id="Tracé_556" data-name="Tracé 556" d="M409.82,207.077a26.882,26.882,0,0,1,3.82,0,5.213,5.213,0,0,1,1.765.316,5.105,5.105,0,0,1,1.227.8,4.737,4.737,0,0,1,1.889,2.557,1.154,1.154,0,0,1-.036.688.569.569,0,0,1-.544.362.879.879,0,0,1-.518-.347c-.342-.368-.678-.735-1.035-1.077a11.893,11.893,0,0,0-6.553-3.287" transform="translate(-409.82 -207.009)"/>
      </g>
      <path id="Tracé_557" data-name="Tracé 557" d="M361.286,190.63c2.479.854,2.588.166,2.588.166l3.789-5.968s-1.527-4.058-1.982-4.778-2.019-4.26-2.019-4.26a2.272,2.272,0,0,0-.989,2,9.844,9.844,0,0,0,1.159,3.572l-3.623-.87-4.814-.057s-.807.559,0,1.439h0a1.444,1.444,0,0,0,0,1.651l.6.875s-.321.192-.041.792a4.509,4.509,0,0,0,1.392,1.284s-1.035.606-.637,1.247S361.286,190.63,361.286,190.63Z" transform="translate(-197.12 -125.827)" fill="#ffbe9d"/>
      <path id="Tracé_558" data-name="Tracé 558" d="M360.219,188.493c-.036.072-1-.435-2.293-.7s-2.381-.2-2.386-.285a4.836,4.836,0,0,1,2.443,0A4.895,4.895,0,0,1,360.219,188.493Z" transform="translate(-197.363 -131.402)" fill="#eb996e"/>
      <path id="Tracé_559" data-name="Tracé 559" d="M359.908,193.276a12.122,12.122,0,0,1-1.651-.518,12.956,12.956,0,0,1-1.667-.487,3.768,3.768,0,0,1,1.744.233A3.668,3.668,0,0,1,359.908,193.276Z" transform="translate(-197.87 -133.768)" fill="#eb996e"/>
      <path id="Tracé_560" data-name="Tracé 560" d="M360.734,197.987c-.052.057-.481-.264-1-.642s-.958-.694-.921-.756.518.14,1.077.518S360.78,197.935,360.734,197.987Z" transform="translate(-198.939 -135.855)" fill="#eb996e"/>
      <path id="Tracé_561" data-name="Tracé 561" d="M90.447,443.452l-.44,11.15s11.186,4.193,11.31,6.258l-21.658-.078v-17.4Z" transform="translate(-64.286 -254.905)" fill="#ff725e"/>
      <path id="Tracé_562" data-name="Tracé 562" d="M86.133,463.194a.89.89,0,0,0-.616,1.009.849.849,0,0,0,.994.616.932.932,0,0,0,.647-1.066.875.875,0,0,0-1.1-.518" transform="translate(-67.105 -264.46)" fill="#e0e0e0"/>
      <path id="Tracé_563" data-name="Tracé 563" d="M79.66,475.365l.067-1.755,20.736.719s.963.419.854,1.1Z" transform="translate(-64.286 -269.487)" fill="#263238"/>
      <path id="Tracé_564" data-name="Tracé 564" d="M98.506,464.773c0,.1-.518.15-1.035.492s-.8.782-.9.74.062-.657.7-1.035S98.527,464.674,98.506,464.773Z" transform="translate(-72.433 -265.184)" fill="#263238"/>
      <path id="Tracé_565" data-name="Tracé 565" d="M103.366,466.64c.026.1-.435.28-.8.725s-.466.921-.569.916-.171-.606.29-1.149S103.366,466.536,103.366,466.64Z" transform="translate(-75.026 -266.104)" fill="#263238"/>
      <path id="Tracé_566" data-name="Tracé 566" d="M107.066,470.24c-.093,0-.238-.518.036-1.087s.766-.807.813-.719-.264.4-.481.88S107.175,470.23,107.066,470.24Z" transform="translate(-77.447 -266.982)" fill="#263238"/>
      <path id="Tracé_567" data-name="Tracé 567" d="M131.6,443.036l-.44,11.155s11.186,4.188,11.305,6.258l-21.652-.072L120.78,443Z" transform="translate(-84.122 -254.722)" fill="#ff725e"/>
      <path id="Tracé_568" data-name="Tracé 568" d="M127.313,462.75a.89.89,0,0,0-.616,1.009.849.849,0,0,0,.994.616.937.937,0,0,0,.647-1.071.885.885,0,0,0-1.108-.518" transform="translate(-86.969 -264.244)" fill="#e0e0e0"/>
      <path id="Tracé_569" data-name="Tracé 569" d="M120.84,474.935l.067-1.755,20.736.725s.963.424.849,1.1Z" transform="translate(-84.151 -269.28)" fill="#263238"/>
      <path id="Tracé_570" data-name="Tracé 570" d="M139.686,464.329c0,.1-.518.15-1.035.487s-.8.782-.9.74.062-.652.7-1.035S139.707,464.231,139.686,464.329Z" transform="translate(-92.297 -264.969)" fill="#263238"/>
      <path id="Tracé_571" data-name="Tracé 571" d="M144.546,466.191c.026.1-.435.28-.8.725s-.466.921-.569.916-.171-.606.29-1.149S144.546,466.067,144.546,466.191Z" transform="translate(-94.89 -265.883)" fill="#263238"/>
      <path id="Tracé_572" data-name="Tracé 572" d="M148.246,469.8c-.093,0-.238-.518.036-1.087s.766-.807.813-.719-.264.4-.481.875S148.354,469.79,148.246,469.8Z" transform="translate(-97.311 -266.769)" fill="#263238"/>
      <path id="Tracé_573" data-name="Tracé 573" d="M76.149,280.614s-.657,11.74-.89,14.675S76.651,374.6,76.651,374.6H89.188s4.576-43.952,4.8-50.919,2.588-26.627,2.588-26.627v-17l-19.779.663" transform="translate(-62.152 -176.124)" fill="#0d1182"/>
      <path id="Tracé_574" data-name="Tracé 574" d="M111.44,288.724c3.313.776,3.862,41.778,3.862,41.778l.083,37.269,12.827.109s1.874-16.331,2.588-32.424c.461-10.4,1.1-19.318,1.1-19.318s1.279-13.458,1.372-24.7-1.1-27.051-1.1-27.051l-19.059,4.457Z" transform="translate(-79.616 -168.565)" fill="#0d1182"/>
      <path id="Tracé_575" data-name="Tracé 575" d="M117.043,290.88a7.681,7.681,0,0,1,.114,1.579c0,.978,0,2.329-.109,3.82s-.3,2.831-.466,3.794a7.68,7.68,0,0,1-.352,1.553,11.087,11.087,0,0,1,.166-1.553c.119-.968.274-2.3.383-3.789s.166-2.826.186-3.8A11.3,11.3,0,0,1,117.043,290.88Z" transform="translate(-81.927 -181.343)" fill="#455a64"/>
      <path id="Tracé_576" data-name="Tracé 576" d="M83.87,289.23a2.951,2.951,0,0,1-.518,1.035,7.8,7.8,0,0,1-1.895,2.019,7.686,7.686,0,0,1-2.479,1.222,3.052,3.052,0,0,1-1.128.171,11.386,11.386,0,0,0,3.447-1.61A11.529,11.529,0,0,0,83.87,289.23Z" transform="translate(-63.413 -180.547)" fill="#455a64"/>
      <path id="Tracé_577" data-name="Tracé 577" d="M143.849,297.212a4.1,4.1,0,0,1-1.315-.285,8.885,8.885,0,0,1-4.9-4.11,4.079,4.079,0,0,1-.518-1.247c.041,0,.238.456.668,1.149a10.035,10.035,0,0,0,2.071,2.4,10.23,10.23,0,0,0,2.723,1.63C143.357,297.052,143.859,297.166,143.849,297.212Z" transform="translate(-92.004 -181.676)" fill="#455a64"/>
      <path id="Tracé_578" data-name="Tracé 578" d="M110.852,289.947a.368.368,0,0,1,.192-.129.929.929,0,0,1,.637,0,1.03,1.03,0,1,1-1.351.932.967.967,0,0,1,.207-.6c.1-.114.181-.14.192-.129a1.218,1.218,0,0,0-.207.725.88.88,0,0,0,.357.668.838.838,0,0,0,1.227-.844.911.911,0,0,0-.518-.575A1.277,1.277,0,0,0,110.852,289.947Z" transform="translate(-79.08 -180.804)" fill="#455a64"/>
      <path id="Tracé_579" data-name="Tracé 579" d="M96.326,382.16a8.629,8.629,0,0,1-1.092,1.19,31.472,31.472,0,0,1-2.95,2.542,32.358,32.358,0,0,1-3.23,2.179,8.329,8.329,0,0,1-1.434.735,11.1,11.1,0,0,1,1.335-.9c.828-.518,1.962-1.315,3.168-2.231s2.241-1.812,2.982-2.469A10.789,10.789,0,0,1,96.326,382.16Z" transform="translate(-68.126 -225.374)" fill="#455a64"/>
      <path id="Tracé_580" data-name="Tracé 580" d="M134.524,374.49a8.388,8.388,0,0,1-.989,1.237c-.647.735-1.553,1.719-2.64,2.754s-2.071,1.931-2.847,2.547a8.058,8.058,0,0,1-1.268.947,11.344,11.344,0,0,1,1.144-1.092c.725-.652,1.713-1.553,2.785-2.588s2.008-1.993,2.687-2.692A10.275,10.275,0,0,1,134.524,374.49Z" transform="translate(-87.016 -221.674)" fill="#455a64"/>
      <path id="Tracé_581" data-name="Tracé 581" d="M60.62,293.047v5.875l1.284,3s6.4,3.51,7.123,3.51,1-.057.89-.668a38.541,38.541,0,0,0-2.34-4.229l-.223-3.623s.559-1.553,1.227-1.392,1.832,2.34,2,2.619,1.335,1.553,2.391,1.3l-.611-2.531-2.448-4.063-2.635-2.071Z" transform="translate(-55.102 -181.295)" fill="#db8a76"/>
      <path id="Tracé_582" data-name="Tracé 582" d="M72.809,312.362a3.9,3.9,0,0,1-.932-.792,11.187,11.187,0,0,1-1.744-2.376,11.336,11.336,0,0,1-1.077-2.749,3.934,3.934,0,0,1-.176-1.206,15.4,15.4,0,0,0,3.929,7.123Z" transform="translate(-59.086 -188.27)" fill="#a45b4a"/>
      <path id="Tracé_583" data-name="Tracé 583" d="M67.782,311.654a2.3,2.3,0,0,1-.657-.461,5.613,5.613,0,0,1-1.113-1.61,10.162,10.162,0,0,1-.647-1.812,2.235,2.235,0,0,1-.135-.782,2.478,2.478,0,0,1,.316.725c.171.455.393,1.092.709,1.75a7.145,7.145,0,0,0,1,1.553C67.575,311.416,67.8,311.607,67.782,311.654Z" transform="translate(-57.326 -189.114)" fill="#a45b4a"/>
      <path id="Tracé_584" data-name="Tracé 584" d="M70.019,300.934c0,.078-.393.124-.735.424s-.45.678-.518.668-.057-.119,0-.29a1.186,1.186,0,0,1,.994-.859C69.9,300.841,70.019,300.882,70.019,300.934Z" transform="translate(-59.009 -186.159)" fill="#a45b4a"/>
      <path id="Tracé_585" data-name="Tracé 585" d="M64.361,301.978c.031.067-.233.248-.362.6s-.078.647-.15.678-.285-.331-.1-.782S64.361,301.895,64.361,301.978Z" transform="translate(-56.576 -186.685)" fill="#a45b4a"/>
      <path id="Tracé_586" data-name="Tracé 586" d="M174.666,286.17v2.158a20.319,20.319,0,0,0-2.138,2.19,35.707,35.707,0,0,0-.549,4.074,16.3,16.3,0,0,0,1.341,2.774c.243.057.937.109.813-.823s-.518-2.464-.518-2.464l1.035-1.806.984,1.858v3.261s-1.972,1.232-1.832,1.729a.8.8,0,0,0,.9.687.823.823,0,0,0,.132-.029,11.782,11.782,0,0,0,1.641-.606s.549,1.253,1.589.626l1.035-.626s.766,1.035,1.48.8a1.485,1.485,0,0,0,.927-.952l1.165-4.017a9.421,9.421,0,0,0,.362-3.178l-.316-5.528Z" transform="translate(-108.819 -179.071)" fill="#db8a76"/>
      <path id="Tracé_587" data-name="Tracé 587" d="M176.336,296.862a3.4,3.4,0,0,1,.885-1.387c.305-.285.787-.518,1.118-.259a.663.663,0,0,1,.212.652,1.347,1.347,0,0,1-.336.626.989.989,0,0,1,.958.052.658.658,0,0,1,.041.807,1.893,1.893,0,0,1-.657.569c.217-.16.549.067.59.331a1.108,1.108,0,0,1-.264.756,2.321,2.321,0,0,1-.818.813.947.947,0,0,1-1.087-.129.6.6,0,0,1,.048-.848.606.606,0,0,1,.165-.1.668.668,0,0,1-.844-.212,1.232,1.232,0,0,1-.347-.89,2.526,2.526,0,0,1,.331-.756" transform="translate(-110.758 -183.381)" fill="#ffbe9d"/>
      <path id="Tracé_588" data-name="Tracé 588" d="M183.1,301.65a17.828,17.828,0,0,1-.419,3.064,2.167,2.167,0,0,1-.424,1.185,1.91,1.91,0,0,1-.937.424,2.884,2.884,0,0,0-.616.2c-.135.067-.2.119-.217.1s.031-.088.16-.191a2.139,2.139,0,0,1,.616-.29,1.9,1.9,0,0,0,.813-.414,2.129,2.129,0,0,0,.342-1.035A18.122,18.122,0,0,1,183.1,301.65Z" transform="translate(-112.921 -186.538)" fill="#a45b4a"/>
      <path id="Tracé_589" data-name="Tracé 589" d="M187.116,304.15a3.893,3.893,0,0,1-.368,2.21,2.82,2.82,0,0,1-.921,1.33c-.373.243-.668.181-.657.15a2.18,2.18,0,0,0,.549-.3,3.39,3.39,0,0,0,.782-1.279C186.966,305.144,187.038,304.14,187.116,304.15Z" transform="translate(-115.181 -187.744)" fill="#a45b4a"/>
      <path id="Tracé_590" data-name="Tracé 590" d="M65.4,154s-5.761,2.588-8.153,10.492-8.587,37.89-6.978,47.549c0,0,3.706,14.851,4.3,15.363l8.365-2.94L67.5,170.186Z" transform="translate(-49.985 -115.316)" fill="#ffa852"/>
      <path id="Tracé_591" data-name="Tracé 591" d="M107.76,148.275,93.784,144.89s-15.167,3.4-16.207,4.71-1.625,51.509-2.071,54.17c-.564,3.334,0,14.24,0,14.24l40.328,1.682,1.972-6.574-1.972-60.267Z" transform="translate(-62.162 -110.922)" fill="#ffa852"/>
      <path id="Tracé_592" data-name="Tracé 592" d="M161.118,225.429s-10.725-28.759-10.29-32.74.952-22.5.952-22.5l.518-9.918a9.783,9.783,0,0,1,6.1,7.506c.963,5.792,4.99,23.661,4.99,23.661s9.783,30.431,9.141,34.132Z" transform="translate(-98.61 -118.341)" fill="#ffa852"/>
      <path id="Tracé_593" data-name="Tracé 593" d="M81.607,171.49a.991.991,0,0,1,.041.15,3.134,3.134,0,0,0,.093.445l.145.725.124,1a25.541,25.541,0,0,1-.181,6.424,75.351,75.351,0,0,1-2.133,9.317,83.453,83.453,0,0,0-2.459,11.388c-.58,4.094-.88,8.028-1.035,11.61s-.223,6.812-.264,9.524-.062,4.892-.083,6.429c0,.745-.031,1.33-.036,1.744v.456a.6.6,0,0,1,0,.155v-8.8c0-2.712.052-5.948.207-9.535s.445-7.531,1.035-11.636a80.949,80.949,0,0,1,2.485-11.414,78.543,78.543,0,0,0,2.179-9.26,26.331,26.331,0,0,0,.181-6.388c-.036-.373-.072-.709-.1-1s-.088-.518-.119-.73-.052-.331-.067-.45A.6.6,0,0,1,81.607,171.49Z" transform="translate(-62.434 -123.753)" fill="#263238"/>
      <path id="Tracé_594" data-name="Tracé 594" d="M154.726,177.89a2.33,2.33,0,0,1,0,.4c0,.29-.041.673-.072,1.149-.072.994-.16,2.433-.243,4.214-.176,3.556-.259,8.484-.062,13.919s.569,10.353.823,13.9c.124,1.755.223,3.189.3,4.208.031.481.052.859.072,1.149a2.324,2.324,0,0,1,0,.4,2.026,2.026,0,0,1-.062-.393c-.031-.29-.067-.668-.119-1.144-.093-1.035-.223-2.454-.383-4.2-.3-3.556-.7-8.468-.9-13.914s-.083-10.353.14-13.935c.109-1.781.223-3.22.331-4.213.047-.476.088-.854.119-1.139A2.074,2.074,0,0,1,154.726,177.89Z" transform="translate(-100.132 -126.84)" fill="#263238"/>
      <path id="Tracé_595" data-name="Tracé 595" d="M119.733,244.53a.983.983,0,0,1-.14.207c-.119.155-.264.336-.435.564-.378.487-.963,1.17-1.713,1.983s-1.687,1.75-2.774,2.733a43.146,43.146,0,0,1-7.728,5.564c-1.279.72-2.459,1.315-3.468,1.765s-1.843.792-2.428.994l-.673.238a.7.7,0,0,1-.243.062,1.5,1.5,0,0,1,.223-.114l.657-.285c.569-.233,1.387-.6,2.381-1.071s2.164-1.077,3.432-1.8,2.588-1.6,3.981-2.588,2.588-2,3.7-2.956,2.039-1.884,2.8-2.681,1.367-1.455,1.77-1.92l.476-.518A.989.989,0,0,1,119.733,244.53Z" transform="translate(-74.161 -158.985)" fill="#263238"/>
      <path id="Tracé_596" data-name="Tracé 596" d="M126.311,207.42a.942.942,0,0,1-.057.264c-.057.2-.124.45-.212.751-.186.647-.518,1.553-.906,2.707a41.408,41.408,0,0,1-1.636,3.908,48.134,48.134,0,0,1-2.412,4.576c-.932,1.553-1.92,3.044-2.852,4.338s-1.843,2.412-2.635,3.323-1.449,1.631-1.926,2.107l-.554.518a1.4,1.4,0,0,1-.2.181,1.441,1.441,0,0,1,.166-.217l.518-.58c.456-.518,1.092-1.232,1.858-2.159s1.646-2.071,2.588-3.344,1.884-2.749,2.821-4.327,1.734-3.132,2.423-4.56,1.242-2.754,1.677-3.877.771-2.034.989-2.671c.1-.29.192-.518.259-.73A.9.9,0,0,1,126.311,207.42Z" transform="translate(-80.33 -141.085)" fill="#263238"/>
      <g id="Groupe_45" data-name="Groupe 45" transform="translate(13.34 58.462)" opacity="0.3">
        <path id="Tracé_597" data-name="Tracé 597" d="M81.849,192.21c-5.259,14.664-6.662,30.431-5.942,45.991,1.951-1.889,2.588-4.773,2.588-7.485s-.611-5.394-.725-8.106C77.335,212.32,83.785,202.324,81.849,192.21Z" transform="translate(-75.731 -192.21)"/>
      </g>
      <g id="Groupe_46" data-name="Groupe 46" transform="translate(34.779 68.779)" opacity="0.3">
        <path id="Tracé_598" data-name="Tracé 598" d="M127.539,212.161c.166-.476-1.154,7.537-2.976,10.549a21.847,21.847,0,0,1-7.412,7.366A62.051,62.051,0,0,0,127.539,212.161Z" transform="translate(-117.15 -212.141)"/>
      </g>
      <g id="Groupe_47" data-name="Groupe 47" transform="translate(53.963 54.13)" opacity="0.3">
        <path id="Tracé_599" data-name="Tracé 599" d="M154.21,184.275s.093,30.116,1.273,31.751c0,0,.326-7.692.518-11.543.357-6.905-.642-13.805-1.646-20.643" transform="translate(-154.21 -183.84)"/>
      </g>
      <path id="Tracé_600" data-name="Tracé 600" d="M74.548,183.462a2.062,2.062,0,0,1-.518,0,12.3,12.3,0,0,1-1.372-.145,32.232,32.232,0,0,1-4.441-.921,32.846,32.846,0,0,1-4.281-1.527c-.518-.233-.952-.44-1.242-.59a2.1,2.1,0,0,1-.435-.259,16.33,16.33,0,0,1,1.755.673,43.583,43.583,0,0,0,8.665,2.422A18.174,18.174,0,0,1,74.548,183.462Z" transform="translate(-55.893 -127.868)" fill="#fff"/>
      <path id="Tracé_601" data-name="Tracé 601" d="M121.959,181.385c0,.072-7.625-.047-17.025-.264s-17.02-.456-17.014-.518,7.619.047,17.025.264S121.959,181.318,121.959,181.385Z" transform="translate(-68.271 -128.141)" fill="#fff"/>
      <path id="Tracé_602" data-name="Tracé 602" d="M162.259,189.65a26.843,26.843,0,0,1-3.535,1.372,25.734,25.734,0,0,1-3.623,1.113,26.927,26.927,0,0,1,3.535-1.367A27.173,27.173,0,0,1,162.259,189.65Z" transform="translate(-100.677 -132.513)" fill="#fff"/>
      <path id="Tracé_603" data-name="Tracé 603" d="M67.047,217.943a1.7,1.7,0,0,1-.518.031,14.051,14.051,0,0,1-1.408-.057,21.959,21.959,0,0,1-8.862-2.738,13.548,13.548,0,0,1-1.2-.745,2.378,2.378,0,0,1-.414-.316c.026-.041.652.352,1.7.9a27.048,27.048,0,0,0,4.27,1.755,26.5,26.5,0,0,0,4.514.958C66.312,217.87,67.052,217.9,67.047,217.943Z" transform="translate(-52.222 -144.314)" fill="#fff"/>
      <path id="Tracé_604" data-name="Tracé 604" d="M108.984,215.429a1.174,1.174,0,0,1-.274.041l-.792.067c-.688.057-1.687.1-2.919.124a64.491,64.491,0,0,1-19.054-2.588c-1.18-.352-2.133-.663-2.78-.9l-.771-.28a1.081,1.081,0,0,1-.254-.114.893.893,0,0,1,.274.062l.756.228c.657.207,1.615.492,2.8.818a71.883,71.883,0,0,0,19,2.588c1.232,0,2.231,0,2.919-.041h.792A.992.992,0,0,1,108.984,215.429Z" transform="translate(-65.483 -143.188)" fill="#fff"/>
      <path id="Tracé_605" data-name="Tracé 605" d="M145.074,212.23a5.05,5.05,0,0,1-1.191.347,30.363,30.363,0,0,1-5.906.714,5.129,5.129,0,0,1-1.237-.052,6.227,6.227,0,0,1,1.227-.14c.756-.057,1.8-.15,2.95-.29s2.184-.3,2.93-.419A6.449,6.449,0,0,1,145.074,212.23Z" transform="translate(-91.82 -143.405)" fill="#fff"/>
      <path id="Tracé_606" data-name="Tracé 606" d="M165.544,219.25a6.238,6.238,0,0,1-1.263.6c-.8.326-1.915.74-3.173,1.134s-2.417.688-3.261.87a6.177,6.177,0,0,1-1.377.228,8.3,8.3,0,0,1,1.33-.414c.833-.228,1.972-.549,3.225-.942s2.376-.771,3.189-1.035A8.516,8.516,0,0,1,165.544,219.25Z" transform="translate(-101.337 -146.791)" fill="#fff"/>
      <path id="Tracé_607" data-name="Tracé 607" d="M63.465,252.047a2.1,2.1,0,0,1-.569,0,13.819,13.819,0,0,1-1.553-.135,24.881,24.881,0,0,1-9.638-3.328c-.564-.336-1-.632-1.3-.849a2.263,2.263,0,0,1-.445-.357c.026-.036.7.409,1.838,1.035a29.7,29.7,0,0,0,4.659,2.071,30.187,30.187,0,0,0,4.912,1.247C62.663,251.938,63.47,252,63.465,252.047Z" transform="translate(-49.96 -160.358)" fill="#fff"/>
      <path id="Tracé_608" data-name="Tracé 608" d="M102.858,252.5a1.113,1.113,0,0,1-.269,0H99c-2.386-.057-5.694-.248-9.286-.683s-6.859-1.035-9.183-1.553c-1.165-.259-2.1-.481-2.749-.652l-.74-.2a1.768,1.768,0,0,1-.254-.088.874.874,0,0,1,.269.031l.751.155c.652.14,1.594.336,2.759.569,2.335.466,5.575,1.035,9.178,1.47s6.884.657,9.26.766c1.185.052,2.148.088,2.816.1l.766.031A.935.935,0,0,1,102.858,252.5Z" transform="translate(-62.902 -161.295)" fill="#fff"/>
      <path id="Tracé_609" data-name="Tracé 609" d="M143.968,251a1.672,1.672,0,0,1-.476.15c-.311.083-.766.181-1.33.29a33.06,33.06,0,0,1-4.446.518,32.557,32.557,0,0,1-4.483-.093c-.569-.052-1.035-.109-1.346-.16a2.033,2.033,0,0,1-.487-.1,17.757,17.757,0,0,1,1.848.078,43.6,43.6,0,0,0,4.452,0c1.734-.093,3.3-.264,4.431-.43A17.413,17.413,0,0,1,143.968,251Z" transform="translate(-89.244 -162.106)" fill="#fff"/>
      <path id="Tracé_610" data-name="Tracé 610" d="M175.119,257.16a1.937,1.937,0,0,1-.4.28c-.264.166-.657.388-1.149.647a28.382,28.382,0,0,1-4.006,1.7,27.815,27.815,0,0,1-4.224,1.035c-.549.093-.994.15-1.3.176a1.829,1.829,0,0,1-.487,0,17.07,17.07,0,0,1,1.755-.383,36.491,36.491,0,0,0,8.184-2.743A17.429,17.429,0,0,1,175.119,257.16Z" transform="translate(-104.753 -165.078)" fill="#fff"/>
      <path id="Tracé_611" data-name="Tracé 611" d="M65.567,280.48a7.742,7.742,0,0,1-1.423.652,24.376,24.376,0,0,1-3.623,1.061,23.609,23.609,0,0,1-3.748.481,7.31,7.31,0,0,1-1.553-.026,12.815,12.815,0,0,1,1.553-.166,33.254,33.254,0,0,0,3.706-.554,34.115,34.115,0,0,0,3.623-.978A11.74,11.74,0,0,1,65.567,280.48Z" transform="translate(-52.497 -176.327)" fill="#fff"/>
      <path id="Tracé_612" data-name="Tracé 612" d="M117.248,280.656a3.533,3.533,0,0,1-.409.072l-1.185.16c-1.035.135-2.521.3-4.369.471-3.7.342-8.8.642-14.494.626S86,281.619,82.3,281.246c-1.848-.181-3.339-.357-4.364-.518l-1.185-.171a2.242,2.242,0,0,1-.409-.078,3.148,3.148,0,0,1,.419.026l1.185.119c1.035.114,2.526.259,4.374.419,3.691.321,8.8.631,14.463.652s10.772-.248,14.468-.543c1.848-.145,3.344-.28,4.374-.383l1.191-.114A2.1,2.1,0,0,1,117.248,280.656Z" transform="translate(-62.685 -176.327)" fill="#fff"/>
      <path id="Tracé_613" data-name="Tracé 613" d="M119.894,158.872c0,.078-7.982-.031-17.822-.238s-17.827-.44-17.822-.518,7.982.031,17.827.243S119.9,158.8,119.894,158.872Z" transform="translate(-66.501 -117.29)" fill="#fff"/>
      <path id="Tracé_614" data-name="Tracé 614" d="M175.753,283.179a3.4,3.4,0,0,1-.725-1.517,3.485,3.485,0,0,1-.171-1.672,72.832,72.832,0,0,0,.9,3.189Z" transform="translate(-110.19 -176.09)" fill="#263238"/>
      <path id="Tracé_615" data-name="Tracé 615" d="M182.9,283.092a11.248,11.248,0,0,1-1.18-3.3,5.945,5.945,0,0,1,.714,1.6A6.07,6.07,0,0,1,182.9,283.092Z" transform="translate(-113.517 -175.994)" fill="#263238"/>
      <path id="Tracé_616" data-name="Tracé 616" d="M62.849,290.9a9.029,9.029,0,0,1-.782-2.071,9.354,9.354,0,0,1-.518-2.138,8.9,8.9,0,0,1,.787,2.071A9.178,9.178,0,0,1,62.849,290.9Z" transform="translate(-55.551 -179.322)" fill="#263238"/>
      <path id="Tracé_617" data-name="Tracé 617" d="M68.9,288.755a7.721,7.721,0,0,1-.766-1.869,8.006,8.006,0,0,1-.518-1.957,7.486,7.486,0,0,1,.766,1.869A7.382,7.382,0,0,1,68.9,288.755Z" transform="translate(-58.479 -178.473)" fill="#263238"/>
      <path id="Tracé_618" data-name="Tracé 618" d="M109.375,120.649h0a3.621,3.621,0,0,1-.321-1.729l1.553-22.444c0-6.268,3.623-11.507,9.866-11.388l.575.047a11.207,11.207,0,0,1,10.29,11.186c0,5.43-.083,11.429-.357,14.323-.564,5.989-6.636,6.429-6.636,6.429l-.29,2.329s.316,4.079-4.441,5.275c-3.66.921-7.537-1.506-9.131-2.681A3.545,3.545,0,0,1,109.375,120.649Z" transform="translate(-78.462 -82.074)" fill="#db8a76"/>
      <path id="Tracé_619" data-name="Tracé 619" d="M131.566,144.18a14.591,14.591,0,0,1-7.666-2.94s1.491,4.462,7.516,4.415Z" transform="translate(-85.627 -109.161)" fill="#a45b4a"/>
      <path id="Tracé_620" data-name="Tracé 620" d="M147,116.213a.854.854,0,0,1-.9.8.818.818,0,0,1-.818-.817v-.026a.859.859,0,0,1,.9-.8.822.822,0,0,1,.818.828Z" transform="translate(-95.944 -96.681)" fill="#263238"/>
      <path id="Tracé_621" data-name="Tracé 621" d="M146.008,111.311c-.114.1-.725-.43-1.646-.518s-1.636.331-1.724.212.078-.248.393-.44a2.323,2.323,0,0,1,1.392-.305,2.271,2.271,0,0,1,1.294.518C145.987,111.057,146.065,111.264,146.008,111.311Z" transform="translate(-94.654 -94.212)" fill="#263238"/>
      <path id="Tracé_622" data-name="Tracé 622" d="M130.128,115.273a.864.864,0,0,1-.89.8.822.822,0,0,1-.818-.828v-.016a.854.854,0,0,1,.9-.8.818.818,0,0,1,.813.823Z" transform="translate(-87.807 -96.228)" fill="#263238"/>
      <path id="Tracé_623" data-name="Tracé 623" d="M128.486,110.216c-.114.1-.725-.43-1.646-.518s-1.631.336-1.724.212.078-.243.393-.435a2.323,2.323,0,0,1,1.392-.305,2.272,2.272,0,0,1,1.3.518C128.465,109.957,128.543,110.169,128.486,110.216Z" transform="translate(-86.201 -93.686)" fill="#263238"/>
      <path id="Tracé_624" data-name="Tracé 624" d="M137,117.737a6.172,6.172,0,0,1,1.517-.145c.238,0,.466-.036.518-.192a1.246,1.246,0,0,0-.1-.709l-.549-1.848a30.813,30.813,0,0,1-1.18-4.814,30.083,30.083,0,0,1,1.553,4.705l.518,1.858a1.355,1.355,0,0,1,.047.932.6.6,0,0,1-.414.316,1.88,1.88,0,0,1-.4,0A6,6,0,0,1,137,117.737Z" transform="translate(-91.946 -94.106)" fill="#263238"/>
      <path id="Tracé_625" data-name="Tracé 625" d="M131.515,125.72c.15,0,.072,1,.87,1.786s1.869.756,1.863.9-.254.176-.7.15a2.505,2.505,0,0,1-1.553-.688,2.185,2.185,0,0,1-.663-1.491C131.313,125.947,131.448,125.709,131.515,125.72Z" transform="translate(-89.209 -101.674)" fill="#263238"/>
      <path id="Tracé_626" data-name="Tracé 626" d="M128.734,103.443c-.109.243-1.035.047-2.112.093s-1.988.264-2.112,0c-.057-.114.114-.336.487-.549a3.665,3.665,0,0,1,3.22-.093C128.6,103.117,128.786,103.309,128.734,103.443Z" transform="translate(-85.916 -90.506)" fill="#263238"/>
      <path id="Tracé_627" data-name="Tracé 627" d="M146.033,106.054c-.181.192-.8-.078-1.553-.15s-1.423,0-1.553-.2c-.057-.114.062-.316.362-.518a2.268,2.268,0,0,1,2.505.285C146.064,105.733,146.111,105.956,146.033,106.054Z" transform="translate(-94.798 -91.647)" fill="#263238"/>
      <path id="Tracé_628" data-name="Tracé 628" d="M109.115,116.913a1.631,1.631,0,0,0-1.546-1.711l-.08,0c-1.128,0-2.422.549-2.536,2.862-.207,4.11,3.96,3.468,3.97,3.354S109.047,118.632,109.115,116.913Z" transform="translate(-76.484 -96.6)" fill="#db8a76"/>
      <path id="Tracé_629" data-name="Tracé 629" d="M109.434,121.065a1.7,1.7,0,0,1-.2.1.731.731,0,0,1-.518,0,1.783,1.783,0,0,1-.74-1.631,2.369,2.369,0,0,1,.254-1.035.814.814,0,0,1,.564-.518.367.367,0,0,1,.414.217c.047.119,0,.2.036.207s.093-.067.067-.238a.423.423,0,0,0-.145-.264.553.553,0,0,0-.393-.124,1,1,0,0,0-.776.6,2.347,2.347,0,0,0-.305,1.134,1.873,1.873,0,0,0,.952,1.822.771.771,0,0,0,.663-.072C109.4,121.164,109.445,121.076,109.434,121.065Z" transform="translate(-77.807 -97.843)" fill="#a45b4a"/>
      <path id="Tracé_630" data-name="Tracé 630" d="M128.442,93.369c.031.828,1.2-1.936.8-2.671A2.164,2.164,0,1,0,130,86.469a1.941,1.941,0,0,0-.269-2.366,2.888,2.888,0,0,0-1.2-.518,2.912,2.912,0,0,0-.29-1.475,3.624,3.624,0,0,0-5.606-1.279,3.624,3.624,0,0,0-5.963,0,3.437,3.437,0,0,0-5.073,1.517,2.676,2.676,0,0,0-3.209.368,10.156,10.156,0,0,1-.958,1.087,9,9,0,0,1-1.522.683,2.915,2.915,0,0,0-.828,4.333,6.717,6.717,0,0,0-1.589,1.5,2.319,2.319,0,0,0-.362,2.071c.316.818,1.222,1.3,1.553,2.127.14.383.14.8.274,1.185a2.345,2.345,0,0,0,1.392,1.341c.326,1.672,1.46,2.164,1.475,2.65.145,5.125,2.366,2.241,3.83-8.494.347-2.521-.518-3.846,1.553-5.326a11.206,11.206,0,0,1,.694,1.035,3.416,3.416,0,0,0,4.8.58c.083-.065.164-.135.24-.207a2.92,2.92,0,0,0,4.659.652c.714.683,2.391,1.863,3.737.725A11.035,11.035,0,0,1,128.442,93.369Z" transform="translate(-75.561 -79.267)" fill="#263238"/>
      <path id="Tracé_631" data-name="Tracé 631" d="M123.7,146.634c-.714-1.035-2.505-.839-3.913-.688a16.885,16.885,0,0,1-11.093-2.505,8.263,8.263,0,0,0-1.128-.745c-1.258-.6-1.827.145-1.951.833s-.29,1.387-.518,2.505c-.668,2.226,1.071,4.141,3.737,5.59s6.01,1.724,9.2,1.672a7.3,7.3,0,0,0,3.779-.771c1.506-.921,1.853-2.645,2.071-4.188A2.278,2.278,0,0,0,123.7,146.634Z" transform="translate(-76.487 -109.757)" fill="#ffa852"/>
      <path id="Tracé_632" data-name="Tracé 632" d="M124.387,148.951a.974.974,0,0,1,.041.259,2.991,2.991,0,0,1-.072.756,3.861,3.861,0,0,1-1.594,2.252,5.173,5.173,0,0,1-1.786.745,12.08,12.08,0,0,1-2.195.248,32.662,32.662,0,0,1-5.031-.109,10.25,10.25,0,0,1-4.741-1.672,7.8,7.8,0,0,1-2.588-3.189,5.861,5.861,0,0,1-.518-2.723c0-.155.031-.3.041-.435a1.772,1.772,0,0,1,.067-.311.943.943,0,0,1,.072-.254,1.024,1.024,0,0,1,0,.264l-.041.311v.43a6.066,6.066,0,0,0,.58,2.64,7.807,7.807,0,0,0,2.588,3.064,10.253,10.253,0,0,0,4.659,1.61,35.681,35.681,0,0,0,4.99.124,7.278,7.278,0,0,0,3.877-.906,3.826,3.826,0,0,0,1.6-2.117A5.22,5.22,0,0,0,124.387,148.951Z" transform="translate(-76.942 -110.743)" fill="#263238"/>
      <g id="Groupe_48" data-name="Groupe 48" transform="translate(29.004 34.527)" opacity="0.3">
        <path id="Tracé_633" data-name="Tracé 633" d="M115.283,153.574a16.849,16.849,0,0,1-5.29-1.035c-2.552-1.18-3.675-3.763-3.944-6.569v.575a6.905,6.905,0,0,0,1.9,5.694,9.633,9.633,0,0,0,5.44,2.749,16.047,16.047,0,0,0,6.16-.311,4.815,4.815,0,0,0,3.313-1.92A18.386,18.386,0,0,1,115.283,153.574Z" transform="translate(-105.993 -145.97)"/>
      </g>
      <path id="Tracé_634" data-name="Tracé 634" d="M111.936,152.193a2.981,2.981,0,0,1-.181-.911,7.162,7.162,0,0,1,.041-2.262,3.825,3.825,0,0,1,1.035-2.014,1.554,1.554,0,0,1,.808-.487,9.051,9.051,0,0,0-.668.616,4.178,4.178,0,0,0-.921,1.936,9.332,9.332,0,0,0-.114,2.195A3.308,3.308,0,0,1,111.936,152.193Z" transform="translate(-79.734 -111.708)" fill="#263238"/>
      <path id="Tracé_635" data-name="Tracé 635" d="M126.07,155.7a22.815,22.815,0,0,0,.554-3.106,22.044,22.044,0,0,0-.155-3.163,8.23,8.23,0,0,1-.4,6.279Z" transform="translate(-86.673 -113.112)" fill="#263238"/>
      <path id="Tracé_636" data-name="Tracé 636" d="M136.532,149.12a.53.53,0,0,1,.264.1,1.441,1.441,0,0,1,.45.621,4.271,4.271,0,0,1,.15,2.454,4.53,4.53,0,0,1-1.17,2.169,2.069,2.069,0,0,1-.828.6c-.026-.036.3-.259.688-.725a4.961,4.961,0,0,0,1.035-2.071,4.655,4.655,0,0,0-.067-2.329A1.666,1.666,0,0,0,136.532,149.12Z" transform="translate(-91.172 -112.962)" fill="#263238"/>
    </g>
    <g id="freepik--Floor--inject-255" transform="translate(45.32 285.088)">
      <path id="Tracé_637" data-name="Tracé 637" d="M257.216,477.025c0,.078-47.441.135-105.943.135S45.32,477.1,45.32,477.025s47.43-.135,105.953-.135S257.216,476.947,257.216,477.025Z" transform="translate(-45.32 -476.89)" fill="#263238"/>
    </g>
  </g>
</svg>
