<svg xmlns="http://www.w3.org/2000/svg" width="75.843" height="84.314" viewBox="0 0 75.843 84.314">
  <g id="Groupe_158" data-name="Groupe 158" transform="translate(-578.491 -124.679)">
    <g id="Flat" transform="translate(578.491 124.679)">
      <path id="Tracé_1003" data-name="Tracé 1003" d="M690.523,290.006h-34V266.468a5.231,5.231,0,0,1,5.231-5.23h23.538a5.23,5.23,0,0,1,5.23,5.23Z" transform="translate(-635.602 -224.624)" fill="#395d7b"/>
      <path id="Tracé_1004" data-name="Tracé 1004" d="M690.664,261.238h15.692v14.384H690.664Z" transform="translate(-660.588 -224.624)" fill="#fdb683"/>
      <path id="Tracé_1005" data-name="Tracé 1005" d="M690.523,314.745h-34v-34h9.154l.025.127a7.975,7.975,0,0,0,15.641,0l.025-.127h9.154Z" transform="translate(-635.602 -238.902)" fill="#fff"/>
      <path id="Tracé_1006" data-name="Tracé 1006" d="M690.523,314.745h-34v-34h9.154l.025.127a7.975,7.975,0,0,0,15.641,0l.025-.127h9.154Z" transform="translate(-635.602 -238.902)" fill="#ff9b0b"/>
      <path id="Tracé_1007" data-name="Tracé 1007" d="M704.171,319.178a13.835,13.835,0,0,1-5.772-1.252l1.083-2.38a11.242,11.242,0,0,0,4.689,1.017,11.38,11.38,0,0,0,5.016-1.172l1.159,2.344a14.01,14.01,0,0,1-6.175,1.443Z" transform="translate(-666.25 -264.258)" fill="#ffb757"/>
      <path id="Tracé_1008" data-name="Tracé 1008" d="M656.524,280.746h7.846v34h-7.846Z" transform="translate(-635.602 -238.902)" fill="#426887"/>
      <path id="Tracé_1009" data-name="Tracé 1009" d="M599.413,291.207V280.746a10.461,10.461,0,0,0-8.369,4.185l-10.592,14.122a9.807,9.807,0,0,0,7.846,15.692h7.192V304.284h-6.538Z" transform="translate(-578.491 -238.902)" fill="#ff9b0b"/>
      <path id="Tracé_1010" data-name="Tracé 1010" d="M761.912,314.745h-7.846v-34h7.846Z" transform="translate(-706.991 -238.902)" fill="#426887"/>
      <path id="Tracé_1011" data-name="Tracé 1011" d="M652.354,368.287H641.893V357.826l.481-1.442a3.628,3.628,0,0,1,3.442-2.481v3.923h6.538a2.615,2.615,0,0,1,2.615,2.615v5.23A2.615,2.615,0,0,1,652.354,368.287Z" transform="translate(-624.894 -292.444)" fill="#fdc8a2"/>
      <path id="Tracé_1012" data-name="Tracé 1012" d="M751.8,368.287h10.461V357.826l-.48-1.442a3.628,3.628,0,0,0-3.442-2.481v3.923H751.8a2.615,2.615,0,0,0-2.615,2.615v5.23A2.615,2.615,0,0,0,751.8,368.287Z" transform="translate(-703.422 -292.444)" fill="#fdc8a2"/>
      <path id="Tracé_1013" data-name="Tracé 1013" d="M783.329,291.207V280.746a10.461,10.461,0,0,1,8.369,4.185l10.592,14.122a9.808,9.808,0,0,1-7.846,15.692h-7.192V304.284h6.538Z" transform="translate(-728.408 -238.902)" fill="#ff9b0b"/>
      <path id="Tracé_1014" data-name="Tracé 1014" d="M674.125,144.188H687.2a7.846,7.846,0,0,1,7.846,7.846v14.384a14.384,14.384,0,1,1-28.768,0V152.034A7.846,7.846,0,0,1,674.125,144.188Z" transform="translate(-642.741 -138.957)" fill="#fdc8a2"/>
      <path id="Tracé_1015" data-name="Tracé 1015" d="M666.279,156.309l1.108-.443a15.38,15.38,0,0,0,8.045-7.4V139.31h-1.308a7.846,7.846,0,0,0-7.846,7.846Z" transform="translate(-642.741 -135.387)" fill="#1e2335"/>
      <path id="Tracé_1016" data-name="Tracé 1016" d="M748.589,147.156v9.154a16.437,16.437,0,0,1-9.154-9.154V139.31h1.308A7.846,7.846,0,0,1,748.589,147.156Z" transform="translate(-696.283 -135.387)" fill="#1e2335"/>
      <g id="Groupe_155" data-name="Groupe 155" transform="translate(20.922 0)">
        <circle id="Ellipse_12" data-name="Ellipse 12" cx="1.699" cy="1.699" r="1.699" transform="translate(9.182 21.839)" fill="#844e3a"/>
        <circle id="Ellipse_13" data-name="Ellipse 13" cx="1.699" cy="1.699" r="1.699" transform="translate(21.247 21.839)" fill="#844e3a"/>
        <path id="Tracé_1017" data-name="Tracé 1017" d="M678.754,128.6v7.846a31.126,31.126,0,0,1-17.275,5.23h-4.955v-3.923a13.166,13.166,0,0,1,.129-1.84A13.078,13.078,0,0,1,669.6,124.679h3.711A5.737,5.737,0,0,1,678.754,128.6Z" transform="translate(-656.524 -124.679)" fill="#1e2335"/>
      </g>
      <path id="Tracé_1018" data-name="Tracé 1018" d="M650.693,202.713H652v7.846h-1.308a3.923,3.923,0,1,1,0-7.846Z" transform="translate(-628.463 -181.791)" fill="#fdb683"/>
      <path id="Tracé_1019" data-name="Tracé 1019" d="M774.883,210.559h-1.308v-7.846h1.308a3.923,3.923,0,0,1,0,7.846Z" transform="translate(-721.269 -181.791)" fill="#fdb683"/>
      <path id="Tracé_1020" data-name="Tracé 1020" d="M753.746,160.176v4.459l-1.064-1.489-.024-.034a25.609,25.609,0,0,0-6.176-6.177l1.452-2.176A28.565,28.565,0,0,1,753.746,160.176Z" transform="translate(-701.441 -146.694)" fill="#1e2335"/>
      <path id="Tracé_1021" data-name="Tracé 1021" d="M675.223,148.663a34.566,34.566,0,0,1-12.307,5.072c-1.2.258-2.421.458-3.629.6-.878.1-1.785.175-2.7.214l-.069,0v-.785a13.166,13.166,0,0,1,.129-1.84c.791-.038,1.574-.1,2.334-.191,1.128-.127,2.264-.315,3.38-.554a32.352,32.352,0,0,0,11.31-4.626Z" transform="translate(-635.602 -140.688)" fill="#1e2335"/>
      <path id="Tracé_1022" data-name="Tracé 1022" d="M672.738,137.73a46.141,46.141,0,0,1-13.464,3.459,12.912,12.912,0,0,1,1.394-2.821,41.776,41.776,0,0,0,11.01-3.027,1.014,1.014,0,0,1,.122-.047l.417,1.267Z" transform="translate(-637.615 -132.447)" fill="#1e2335"/>
    </g>
    <circle id="Ellipse_14" data-name="Ellipse 14" cx="14.414" cy="14.414" r="14.414" transform="translate(601.387 180.165)" fill="#0f96f2"/>
    <g id="Groupe_157" data-name="Groupe 157" transform="translate(607.103 185.337)">
      <g id="Layer_2" data-name="Layer 2" transform="translate(0)">
        <g id="Groupe_156" data-name="Groupe 156">
          <path id="Tracé_1023" data-name="Tracé 1023" d="M724,413.851c-.154.038-.31.072-.465.1a.748.748,0,0,0,.273,1.472c.185-.034.372-.075.555-.12a.748.748,0,0,0-.362-1.452Z" transform="translate(-712.81 -396.96)" fill="#fff"/>
          <path id="Tracé_1024" data-name="Tracé 1024" d="M746.992,372.47a.748.748,0,1,0,1.421-.471c-.059-.179-.125-.358-.195-.533a.748.748,0,1,0-1.39.556C746.887,372.169,746.942,372.32,746.992,372.47Z" transform="translate(-730.267 -365.612)" fill="#fff"/>
          <path id="Tracé_1025" data-name="Tracé 1025" d="M733.882,409.587c-.132.087-.268.172-.406.251a.748.748,0,1,0,.748,1.3c.163-.094.326-.194.483-.3a.748.748,0,0,0-.825-1.249Z" transform="translate(-720.26 -393.765)" fill="#fff"/>
          <path id="Tracé_1026" data-name="Tracé 1026" d="M750.536,382.328a.749.749,0,0,0-1.5.059c.006.158.008.318,0,.476a.749.749,0,1,0,1.5.033C750.545,382.707,750.543,382.516,750.536,382.328Z" transform="translate(-731.925 -373.379)" fill="#fff"/>
          <path id="Tracé_1027" data-name="Tracé 1027" d="M742.969,402.173a.748.748,0,0,0-1.048.15c-.095.127-.195.252-.3.372a.749.749,0,0,0,.084,1.055c.018.015.036.029.055.042a.749.749,0,0,0,1-.127c.122-.144.242-.293.355-.445A.749.749,0,0,0,742.969,402.173Z" transform="translate(-726.366 -388.32)" fill="#fff"/>
          <path id="Tracé_1028" data-name="Tracé 1028" d="M748.111,392.4a.749.749,0,0,0-.938.49c-.047.151-.1.3-.156.45a.748.748,0,0,0,.268.878.728.728,0,0,0,.165.088.748.748,0,0,0,.966-.433c.067-.176.129-.356.186-.535A.749.749,0,0,0,748.111,392.4Z" transform="translate(-730.408 -381.25)" fill="#fff"/>
          <path id="Tracé_1029" data-name="Tracé 1029" d="M693.131,367.913a7.733,7.733,0,0,1-1.92-.61.181.181,0,0,0-.021-.012c-.143-.068-.287-.14-.425-.216h0a8,8,0,0,1-.745-.465,7.81,7.81,0,0,1,.033-12.793l.027-.019a7.824,7.824,0,0,1,8.769-.071l-.585.845c-.163.235-.063.406.222.381l2.54-.227a.418.418,0,0,0,.379-.547l-.682-2.458c-.076-.276-.272-.309-.435-.073l-.586.847a9.243,9.243,0,0,0-6.773-1.44q-.359.062-.709.151h0l-.027.008a9.229,9.229,0,0,0-5.118,3.43c-.011.013-.022.025-.032.039-.043.057-.085.116-.126.174-.067.1-.134.194-.2.293-.008.012-.014.024-.021.036a9.228,9.228,0,0,0-1.475,5.443c0,.006,0,.013,0,.019.008.188.023.378.043.565,0,.012,0,.024.006.036.021.188.047.377.08.566a9.236,9.236,0,0,0,2.6,5.009l.01.01,0,0a9.408,9.408,0,0,0,1.193,1,9.226,9.226,0,0,0,3.711,1.553.748.748,0,0,0,.264-1.473Z" transform="translate(-685.206 -350.915)" fill="#fff"/>
          <path id="Tracé_1030" data-name="Tracé 1030" d="M716.56,363.082a.606.606,0,0,0-.606.606v6.033l5.518,2.853a.605.605,0,0,0,.556-1.076l-4.863-2.514v-5.3A.606.606,0,0,0,716.56,363.082Z" transform="translate(-707.71 -359.82)" fill="#fff"/>
        </g>
      </g>
    </g>
  </g>
</svg>
