<svg xmlns="http://www.w3.org/2000/svg" width="76.636" height="85.195" viewBox="0 0 76.636 85.195">
  <g id="Groupe_153" data-name="Groupe 153" transform="translate(-114.564 -124.679)">
    <g id="Flat" transform="translate(114.564 124.679)">
      <path id="Tracé_982" data-name="Tracé 982" d="M226.952,290.307H192.6V266.523a5.285,5.285,0,0,1,5.285-5.285h23.784a5.285,5.285,0,0,1,5.285,5.285Z" transform="translate(-171.457 -224.241)" fill="#395d7b"/>
      <path id="Tracé_983" data-name="Tracé 983" d="M226.737,261.238h15.856v14.534H226.737Z" transform="translate(-196.347 -224.241)" fill="#fdb683"/>
      <path id="Tracé_984" data-name="Tracé 984" d="M226.952,315.1H192.6V280.746h9.249l.026.128a8.059,8.059,0,0,0,15.8,0l.026-.128h9.249Z" transform="translate(-171.457 -238.464)" fill="#fff"/>
      <path id="Tracé_985" data-name="Tracé 985" d="M226.952,315.1H192.6V280.746h9.249l.026.128a8.059,8.059,0,0,0,15.8,0l.026-.128h9.249Z" transform="translate(-171.457 -238.464)" fill="#ff9b0b"/>
      <path id="Tracé_986" data-name="Tracé 986" d="M240.3,319.218a13.981,13.981,0,0,1-5.832-1.265l1.094-2.405a11.36,11.36,0,0,0,4.738,1.028,11.5,11.5,0,0,0,5.069-1.184l1.171,2.369a14.156,14.156,0,0,1-6.24,1.458Z" transform="translate(-201.986 -263.723)" fill="#ffb757"/>
      <path id="Tracé_987" data-name="Tracé 987" d="M192.6,280.746h7.928V315.1H192.6Z" transform="translate(-171.457 -238.464)" fill="#426887"/>
      <path id="Tracé_988" data-name="Tracé 988" d="M135.705,291.316v-10.57a10.571,10.571,0,0,0-8.457,4.228l-10.7,14.27a9.91,9.91,0,0,0,7.928,15.856h7.267V304.53h-6.607Z" transform="translate(-114.564 -238.464)" fill="#ff9b0b"/>
      <path id="Tracé_989" data-name="Tracé 989" d="M298.068,315.1H290.14V280.746h7.928Z" transform="translate(-242.573 -238.464)" fill="#426887"/>
      <path id="Tracé_990" data-name="Tracé 990" d="M188.537,368.437h-10.57v-10.57l.485-1.457a3.666,3.666,0,0,1,3.478-2.507v3.964h6.606a2.643,2.643,0,0,1,2.643,2.643v5.285A2.643,2.643,0,0,1,188.537,368.437Z" transform="translate(-160.79 -291.802)" fill="#fdc8a2"/>
      <path id="Tracé_991" data-name="Tracé 991" d="M287.906,368.437h10.57v-10.57l-.486-1.457a3.666,3.666,0,0,0-3.478-2.507v3.964h-6.606a2.643,2.643,0,0,0-2.643,2.643v5.285A2.643,2.643,0,0,0,287.906,368.437Z" transform="translate(-239.017 -291.802)" fill="#fdc8a2"/>
      <path id="Tracé_992" data-name="Tracé 992" d="M319.4,291.316v-10.57a10.571,10.571,0,0,1,8.457,4.228l10.7,14.27a9.91,9.91,0,0,1-7.928,15.856h-7.267V304.53h6.607Z" transform="translate(-263.907 -238.464)" fill="#ff9b0b"/>
      <path id="Tracé_993" data-name="Tracé 993" d="M210.28,144.188h13.213a7.928,7.928,0,0,1,7.928,7.928V166.65a14.534,14.534,0,0,1-29.069,0V152.116A7.928,7.928,0,0,1,210.28,144.188Z" transform="translate(-178.568 -138.903)" fill="#fdc8a2"/>
      <path id="Tracé_994" data-name="Tracé 994" d="M202.352,156.487l1.12-.448a15.542,15.542,0,0,0,8.129-7.48V139.31H210.28a7.928,7.928,0,0,0-7.928,7.928Z" transform="translate(-178.568 -135.346)" fill="#1e2335"/>
      <path id="Tracé_995" data-name="Tracé 995" d="M284.757,147.238v9.249a16.608,16.608,0,0,1-9.249-9.249V139.31h1.321A7.928,7.928,0,0,1,284.757,147.238Z" transform="translate(-231.905 -135.346)" fill="#1e2335"/>
      <g id="Groupe_152" data-name="Groupe 152" transform="translate(21.141)">
        <circle id="Ellipse_9" data-name="Ellipse 9" cx="1.717" cy="1.717" r="1.717" transform="translate(9.278 22.067)" fill="#844e3a"/>
        <circle id="Ellipse_10" data-name="Ellipse 10" cx="1.717" cy="1.717" r="1.717" transform="translate(21.469 22.067)" fill="#844e3a"/>
        <path id="Tracé_996" data-name="Tracé 996" d="M215.06,128.643v7.928a31.451,31.451,0,0,1-17.456,5.285H192.6v-3.964a13.212,13.212,0,0,1,13.213-13.213h3.749A5.8,5.8,0,0,1,215.06,128.643Z" transform="translate(-192.598 -124.679)" fill="#1e2335"/>
      </g>
      <path id="Tracé_997" data-name="Tracé 997" d="M186.808,202.713h1.321v7.928h-1.321a3.964,3.964,0,1,1,0-7.928Z" transform="translate(-164.346 -181.572)" fill="#fdb683"/>
      <path id="Tracé_998" data-name="Tracé 998" d="M310.969,210.641h-1.321v-7.928h1.321a3.964,3.964,0,1,1,0,7.928Z" transform="translate(-256.796 -181.572)" fill="#fdb683"/>
      <path id="Tracé_999" data-name="Tracé 999" d="M289.9,160.232v4.506l-1.075-1.5-.025-.035a25.878,25.878,0,0,0-6.24-6.241l1.466-2.2A28.864,28.864,0,0,1,289.9,160.232Z" transform="translate(-237.044 -146.61)" fill="#1e2335"/>
      <path id="Tracé_1000" data-name="Tracé 1000" d="M211.493,148.685a34.924,34.924,0,0,1-12.435,5.125c-1.212.261-2.446.462-3.667.6-.887.1-1.8.177-2.724.216l-.069,0v-.793a13.259,13.259,0,0,1,.13-1.86c.8-.038,1.591-.1,2.359-.193,1.139-.129,2.287-.319,3.415-.56a32.686,32.686,0,0,0,11.428-4.674Z" transform="translate(-171.457 -140.627)" fill="#1e2335"/>
      <path id="Tracé_1001" data-name="Tracé 1001" d="M208.952,137.756a46.622,46.622,0,0,1-13.6,3.495,13.061,13.061,0,0,1,1.409-2.851,42.214,42.214,0,0,0,11.126-3.059,1.008,1.008,0,0,1,.124-.048l.421,1.28Z" transform="translate(-173.461 -132.417)" fill="#1e2335"/>
    </g>
    <circle id="Ellipse_11" data-name="Ellipse 11" cx="14.565" cy="14.565" r="14.565" transform="translate(137.699 180.745)" fill="#42c148"/>
    <path id="Tracé_1002" data-name="Tracé 1002" d="M234.812,362.927l-4.734,4.734a.894.894,0,0,1-1.264,0l-1.77-1.77a2.686,2.686,0,0,0-3.8,3.8l4.228,4.228a2.789,2.789,0,0,0,3.944,0l7.193-7.192a2.686,2.686,0,1,0-3.8-3.8Z" transform="translate(-78.664 -173.128)" fill="#fff"/>
  </g>
</svg>
