<svg xmlns="http://www.w3.org/2000/svg" width="258.486" height="196.9" viewBox="0 0 258.486 196.9">
  <g id="Groupe_159" data-name="Groupe 159" transform="translate(-42.723 -150.052)">
    <g id="Groupe_80" data-name="Groupe 80" transform="translate(100.114 153.052)">
      <g id="freepik--background-simple--inject-2" transform="translate(14.71 -3)">
        <path id="Tracé_648" data-name="Tracé 648" d="M401.038,246.064l-1.105-1.824c-9.338-15.363-26.214-24.658-44.012-23.53a46.164,46.164,0,0,0-6.816.936,50.6,50.6,0,0,0-36.09,31.366c-3.432,9.218-4.378,19.828-10.905,27.139-8.475,9.518-22.866,9.822-35.52,9.428s-27.049-.061-35.484,9.5c-5.285,5.986-6.961,14.5-6.538,22.515,1.131,21.226,15.916,40.2,34.725,49.633s40.953,10.277,61.539,6.13c28.833-5.809,56.254-21.775,72.741-46.429S414.227,272.676,401.038,246.064Z" transform="translate(-224.505 -220.618)" fill="#becbfc" opacity="0.3"/>
      </g>
      <g id="freepik--speech-bubble--inject-2" transform="translate(0 21.351)">
        <path id="Tracé_737" data-name="Tracé 737" d="M260.07,259.256l-3.694-6.511a17.47,17.47,0,1,0-4.18,4.645h0Z" transform="translate(-224.031 -226.1)" fill="#becbfc" opacity="0.3"/>
        <path id="Tracé_738" data-name="Tracé 738" d="M260.076,259.243l-7.9-1.8h-.08l.053-.066h0l.075.075a17.718,17.718,0,0,1-3.583,2.145,17.478,17.478,0,0,1-4.777,1.367,15.587,15.587,0,0,1-2.76.137c-.473,0-.96-.035-1.442-.08l-1.451-.234a17.6,17.6,0,0,1-10.9-7,17.321,17.321,0,0,1-2.942-6.728,17.728,17.728,0,0,1,.19-7.772,17.138,17.138,0,0,1,3.751-7.171l.712-.779c.23-.265.509-.482.765-.725a7.7,7.7,0,0,1,.787-.69l.836-.624a7.6,7.6,0,0,1,.871-.575l.885-.535.92-.451a9.116,9.116,0,0,1,.9-.394,17.752,17.752,0,0,1,7.807-1.194,17.113,17.113,0,0,1,7.171,2.141,17.689,17.689,0,0,1,8.272,10.187,18.945,18.945,0,0,1,.779,5.631,17.041,17.041,0,0,1-.854,4.892,17.784,17.784,0,0,1-1.747,3.756v-.071l3.649,6.538-3.751-6.485h0a17.37,17.37,0,0,0,2.539-8.608,18.707,18.707,0,0,0-.765-5.618,17.514,17.514,0,0,0-8.2-10.077,17.054,17.054,0,0,0-7.091-2.083,17.638,17.638,0,0,0-7.719,1.19,8.554,8.554,0,0,0-.92.411l-.911.447-.876.535a7.084,7.084,0,0,0-.854.535l-.823.641a8.251,8.251,0,0,0-.778.681,10.377,10.377,0,0,0-.761.712l-.7.774a16.868,16.868,0,0,0-3.689,7.082,17.542,17.542,0,0,0-.208,7.657,17.165,17.165,0,0,0,2.919,6.657,17.47,17.47,0,0,0,10.723,6.941l1.455.221c.482.044.96.058,1.433.084a15.7,15.7,0,0,0,2.734-.128,17.208,17.208,0,0,0,4.746-1.336,17.81,17.81,0,0,0,3.57-2.141l.323-.248-.248.323h0l-.031-.089Z" transform="translate(-224.037 -226.087)" fill="#aebef4"/>
        <path id="Tracé_739" data-name="Tracé 739" d="M229.623,231.428a1.769,1.769,0,1,1-1.769-1.769,1.769,1.769,0,0,1,1.769,1.769Z" transform="translate(-217.028 -213.914)" fill="#aebef4"/>
        <path id="Tracé_740" data-name="Tracé 740" d="M231.224,231.428a1.769,1.769,0,1,1-1.769-1.769,1.769,1.769,0,0,1,1.769,1.769Z" transform="translate(-211.547 -213.914)" fill="#aebef4"/>
        <path id="Tracé_741" data-name="Tracé 741" d="M232.638,230.545a1.769,1.769,0,1,1-2.42-.65,1.771,1.771,0,0,1,2.42.65Z" transform="translate(-205.897 -213.915)" fill="#aebef4"/>
      </g>
      <g id="freepik--Floor--inject-2" transform="translate(-18.574 192.504)">
        <path id="Tracé_742" data-name="Tracé 742" d="M440.025,274.021c0,.065-48.564.119-108.44.119s-108.464-.054-108.464-.119,48.552-.112,108.468-.112S440.025,273.96,440.025,274.021Z" transform="translate(-223.122 -273.909)" fill="#263238"/>
      </g>
    </g>
    <g id="freepik--Device--inject-9" transform="translate(143.063 163.095)">
      <path id="Tracé_843" data-name="Tracé 843" d="M237.847,235.022l-61.987-.284a13.524,13.524,0,0,1-13.44-13.561l.658-155.4A13.524,13.524,0,0,1,176.644,52.33l61.987.284a13.524,13.524,0,0,1,13.44,13.552l-.658,155.4A13.524,13.524,0,0,1,237.847,235.022Z" transform="translate(-162.42 -52.33)" fill="#687ec1"/>
      <path id="Tracé_844" data-name="Tracé 844" d="M243.254,64.114l-12.018-.056a2.989,2.989,0,0,0-2.933,3.036v2.183A2.98,2.98,0,0,1,225.37,72.3h-.005L201.936,72.2a2.994,2.994,0,0,1-2.905-3.064V66.95a2.989,2.989,0,0,0-2.9-3.041h-4.225l-10.516-.079a9.458,9.458,0,0,0-9.5,9.406l-.639,151.685a9.457,9.457,0,0,0,9.411,9.5l61.866.284a9.458,9.458,0,0,0,9.5-9.416h0l.639-151.68a9.453,9.453,0,0,0-9.411-9.495Z" transform="translate(-167.132 -58.467)" fill="#f7f5ff"/>
      <path id="Tracé_845" data-name="Tracé 845" d="M172.46,123.05H182.6l9.047,9.052-9.406,9.406-9.672-9.677Z" transform="translate(-167.778 -90.07)" fill="#e1dcf4" opacity="0.481"/>
      <path id="Tracé_846" data-name="Tracé 846" d="M212.213,128.129l-5.083-5.079h11.435Z" transform="translate(-186.279 -90.07)" fill="#e1dcf4" opacity="0.481"/>
      <path id="Tracé_847" data-name="Tracé 847" d="M227.56,132.653l8.9-8.9h31.105s4.761,21.266-13.99,34.92Z" transform="translate(-197.182 -90.443)" fill="#e1dcf4" opacity="0.481"/>
      <path id="Tracé_848" data-name="Tracé 848" d="M208.493,148.92l-9.523,9.528L225.323,184.8l9.523-9.845Z" transform="translate(-181.925 -103.875)" fill="#e1dcf4" opacity="0.481"/>
      <path id="Tracé_849" data-name="Tracé 849" d="M172.21,167.146l5.969-6.193-5.853-5.853Z" transform="translate(-167.644 -107.173)" fill="#e1dcf4" opacity="0.481"/>
      <path id="Tracé_850" data-name="Tracé 850" d="M182.178,175.48l-9.168,9.168v12.741l18.929,19.367,16.038-14.923Z" transform="translate(-168.071 -118.049)" fill="#e1dcf4" opacity="0.481"/>
      <path id="Tracé_851" data-name="Tracé 851" d="M291,161.342s19.643-14.4,13.291-37.592H316.5l-.149,65.457Z" transform="translate(-231.037 -90.443)" fill="#e1dcf4" opacity="0.481"/>
      <path id="Tracé_852" data-name="Tracé 852" d="M272.215,212.46l-9.495,9.915L291.839,251.5l8.907-9.439Z" transform="translate(-215.945 -137.783)" fill="#e1dcf4" opacity="0.481"/>
      <path id="Tracé_853" data-name="Tracé 853" d="M237.128,239.54,222.2,254.361l29.856,29.646,14.9-14.406Z" transform="translate(-194.322 -152.235)" fill="#e1dcf4" opacity="0.481"/>
      <path id="Tracé_854" data-name="Tracé 854" d="M237.43,371.7l22.823-23.653,21.709,22.128Z" transform="translate(-202.449 -210.141)" fill="#e1dcf4" opacity="0.481"/>
      <path id="Tracé_855" data-name="Tracé 855" d="M294,314.551,317.784,291c0,1.045-.205,48.831-.205,48.831Z" transform="translate(-232.638 -179.696)" fill="#e1dcf4" opacity="0.481"/>
      <path id="Tracé_856" data-name="Tracé 856" d="M221.265,313.14l13.482,13.482L208.128,354.09l-12.3-14.751Z" transform="translate(-180.249 -191.512)" fill="#e1dcf4" opacity="0.481"/>
      <path id="Tracé_857" data-name="Tracé 857" d="M172.26,298.17c1.273-.126,33.876-30.658,33.876-30.658l-33.876-35.1Z" transform="translate(-167.671 -148.43)" fill="#e1dcf4" opacity="0.481"/>
      <path id="Tracé_858" data-name="Tracé 858" d="M171.25,380.378l7.849-6.958,10.871,12.839H171.25v-4.911" transform="translate(-167.132 -223.68)" fill="#e1dcf4" opacity="0.481"/>
      <path id="Tracé_859" data-name="Tracé 859" d="M190.332,98.4A19.492,19.492,0,0,1,188,96.371h0v-.177h0l.033-.028.056-.051.117-.107.224-.21.424-.392.732-.653a3.584,3.584,0,0,1,.746-.583,3.272,3.272,0,0,1-.6.681l-.7.69-.415.4-.224.215-.112.107-.061.051-.028.028h0v-.177h0A19.808,19.808,0,0,1,190.332,98.4Z" transform="translate(-176.071 -74.658)" fill="#ece9fa"/>
      <path id="Tracé_860" data-name="Tracé 860" d="M330.087,95.024a.508.508,0,1,1-.513-.5h.009A.5.5,0,0,1,330.087,95.024Z" transform="translate(-251.353 -74.845)" fill="#cfc4ff"/>
      <path id="Tracé_861" data-name="Tracé 861" d="M329.947,98.4a.508.508,0,1,1-.719,0h0A.513.513,0,0,1,329.947,98.4Z" transform="translate(-251.358 -76.838)" fill="#cfc4ff"/>
      <path id="Tracé_862" data-name="Tracé 862" d="M330.089,102.433a.508.508,0,1,1,0-.1A.481.481,0,0,1,330.089,102.433Z" transform="translate(-251.355 -78.77)" fill="#cfc4ff"/>
      <rect id="Rectangle_22" data-name="Rectangle 22" width="21.816" height="1.819" rx="0.909" transform="translate(35.065 22.245)" fill="#ece9fa"/>
    </g>
    <g id="Groupe_140" data-name="Groupe 140" transform="translate(160.724 210.266)">
      <path id="Tracé_863" data-name="Tracé 863" d="M197.934,226.4a27.165,27.165,0,1,0-35.75,25.772,6.917,6.917,0,0,1,3.618,2.858l4.782,7.475,5.183-7.656a6.953,6.953,0,0,1,3.584-2.676A27.169,27.169,0,0,0,197.934,226.4Z" transform="translate(-143.605 -199.233)" fill="#ffd435"/>
      <g id="Groupe_139" data-name="Groupe 139" transform="translate(13.537 7.148)">
        <path id="Tracé_837" data-name="Tracé 837" d="M351.952,195.995a8.123,8.123,0,0,0-8.123,8.123c0,4.486,8.123,18.51,8.123,18.51s8.123-14.024,8.123-18.51A8.123,8.123,0,0,0,351.952,195.995Zm0,13.79a5.631,5.631,0,1,1,5.631-5.631A5.631,5.631,0,0,1,351.952,209.785Z" transform="translate(-338.324 -176.982)" fill="#fff"/>
        <g id="Groupe_136" data-name="Groupe 136" transform="translate(0 0)">
          <g id="Groupe_134" data-name="Groupe 134">
            <g id="Groupe_132" data-name="Groupe 132" transform="translate(4.852 6.278)">
              <path id="Tracé_838" data-name="Tracé 838" d="M358.651,175.582c-3.308-2.381-6.633-3.118-9.885-2.189a10.352,10.352,0,0,0-3.858,2.037l-2.438-2.574a13.824,13.824,0,0,1,5.322-2.872c2.989-.855,7.658-1.075,12.93,2.72Z" transform="translate(-342.47 -169.466)" fill="#fff"/>
            </g>
            <g id="Groupe_133" data-name="Groupe 133">
              <path id="Tracé_839" data-name="Tracé 839" d="M357.607,163.9c-12.647-8.705-22.51-.473-22.924-.118l-2.321-2.68a21.557,21.557,0,0,1,8-3.988c4.486-1.194,11.468-1.494,19.254,3.866Z" transform="translate(-332.362 -156.389)" fill="#fff"/>
            </g>
          </g>
          <g id="Groupe_135" data-name="Groupe 135" transform="translate(10.142 12.562)">
            <path id="Tracé_840" data-name="Tracé 840" d="M355.049,186.2l-1.56-2.756a7.449,7.449,0,0,1,6.971,0L358.9,186.2A4.267,4.267,0,0,0,355.049,186.2Z" transform="translate(-353.489 -182.556)" fill="#fff"/>
          </g>
        </g>
      </g>
    </g>
    <g id="freepik--Car--inject-9" transform="translate(42.723 247.919)">
      <rect id="Rectangle_17" data-name="Rectangle 17" width="225.583" height="33.1" transform="translate(16.801 44.425)" fill="#88a0ed"/>
      <circle id="Ellipse_7" data-name="Ellipse 7" cx="22.771" cy="22.771" r="22.771" transform="translate(189.671 52.35)" fill="#becbfc"/>
      <path id="Tracé_791" data-name="Tracé 791" d="M507.639,735.462h-.009a15.51,15.51,0,1,0,.009,0Z" transform="translate(-295.422 -676.317)" fill="#fafafa"/>
      <path id="Tracé_792" data-name="Tracé 792" d="M526.034,759.724a9.735,9.735,0,0,0-9.874-9.592h-.006a9.738,9.738,0,1,0,9.881,9.593Z" transform="translate(-303.853 -684.744)" fill="#becbfc"/>
      <ellipse id="Ellipse_8" data-name="Ellipse 8" cx="21.752" cy="21.752" rx="21.752" ry="21.752" transform="translate(23.974 55.528)" fill="#becbfc"/>
      <path id="Tracé_793" data-name="Tracé 793" d="M97.834,735.462h-.009a14.789,14.789,0,1,0,.009,0Z" transform="translate(-52.316 -673.423)" fill="#fafafa"/>
      <path id="Tracé_794" data-name="Tracé 794" d="M116.093,759.3a9.3,9.3,0,0,0-9.433-9.163h-.006a9.3,9.3,0,1,0,9.439,9.164Z" transform="translate(-61.044 -682.129)" fill="#becbfc"/>
      <path id="Tracé_795" data-name="Tracé 795" d="M151.376,587.952c-8.538-3.757-23.867-5.017-23.867-5.017s-44.538-.122-55.755,0c-9.209.1-14.226.415-16,.549a5.367,5.367,0,0,0-1.378.293c-2.968,1.037-15.6,5.383-21.984,7.579a1.886,1.886,0,0,0-.407,3.383l.813.5s-16.821,15.381-19.89,17.931-1.069,17.276-1.069,17.276h0A3.789,3.789,0,0,0,8.18,634.1l-.171,5.851s-1.33,6.6,3.793,15.857,16.133,8.3,16.133,8.3-4.554-30.754,25.379-30.693,25.168,30.494,25.168,30.494H194.535s-1.846-31.238,25.961-30.352c27.331.87,24.651,30.624,24.651,30.624s4.371.069,6.672,0c13.97-.435,12.511-11.25,12.511-18.227a10.953,10.953,0,0,0-5.981-9.709l1.281-7.278c.2-10.148-15.938-13.389-24.306-15.263-11.88-2.663-43.911-5.025-43.911-5.025S160.329,591.9,151.376,587.952Z" transform="translate(-7.854 -582.881)" fill="#becbfc"/>
      <g id="Groupe_116" data-name="Groupe 116" transform="translate(246.835 62.123)">
        <path id="Tracé_796" data-name="Tracé 796" d="M616.474,735.81a1.221,1.221,0,0,0-.927.557,2.136,2.136,0,0,0-.407.9,25.248,25.248,0,0,0-.191,4.44,4.335,4.335,0,0,0,.813,3.119,2.827,2.827,0,0,0,3.346.407,4.4,4.4,0,0,0,2.033-2.875,10.236,10.236,0,0,0,.081-3.606,3.655,3.655,0,0,0-.931-2.407c-.886-.785-2.667-.765-3.83-.529" transform="translate(-614.945 -735.671)" fill="#687ec1"/>
      </g>
      <path id="Tracé_797" data-name="Tracé 797" d="M608.439,694.928a20.067,20.067,0,0,0-8.189-.813,5.472,5.472,0,0,0-3.114,1.053c-1.383,1.187-1.456,3.261-1.456,5.082a1.648,1.648,0,0,0,.354,1.22,1.623,1.623,0,0,0,1.033.313c3.4.22,6.692.407,10.091.407Z" transform="translate(-356.672 -648.82)" fill="#fafafa"/>
      <path id="Tracé_798" data-name="Tracé 798" d="M450.266,724.968c.008-.2.033-.484.033-.854.033-.756.077-1.862.142-3.285s.15-3.155.342-5.188a40.237,40.237,0,0,1,1.175-6.79,30.7,30.7,0,0,1,3.253-7.68,24.151,24.151,0,0,1,6.363-7.123c5.53-3.94,12.954-6.156,20.768-6.257a33.525,33.525,0,0,1,20.622,6.505,30.1,30.1,0,0,1,6.684,6.847,32.134,32.134,0,0,1,3.9,7.38,29.654,29.654,0,0,1,1.626,6.692,27.408,27.408,0,0,1,.162,5.2,23.726,23.726,0,0,1-.439,3.253l-.175.813c-.041.187-.065.281-.065.281s.012-.094.045-.289.085-.476.15-.838a25.856,25.856,0,0,0,.407-3.253,27.918,27.918,0,0,0-.2-5.176,29.634,29.634,0,0,0-1.647-6.656,31.984,31.984,0,0,0-3.9-7.319,30.1,30.1,0,0,0-6.656-6.794,33.374,33.374,0,0,0-20.52-6.456c-7.754.106-15.166,2.3-20.651,6.2a24,24,0,0,0-6.331,7.058,30.8,30.8,0,0,0-3.273,7.624,40.962,40.962,0,0,0-1.2,6.761c-.2,2.017-.3,3.761-.378,5.184s-.138,2.525-.179,3.281c-.024.37-.033.659-.057.854a2.661,2.661,0,0,0-.024.293A2.416,2.416,0,0,0,450.266,724.968Z" transform="translate(-270.375 -645.133)" fill="#fff"/>
      <path id="Tracé_799" data-name="Tracé 799" d="M339.146,668.993v-.719c.016-.643.033-1.594.061-2.814.057-2.464.142-6.074.252-10.661l.407-16.548c.008-3.192.468-6.619-.447-10.1a26.171,26.171,0,0,0-1.805-5.172,25.887,25.887,0,0,0-2.96-4.908v.02l-20.1-12.633-5.432-3.415a42.466,42.466,0,0,0-5.717-3.188,59.048,59.048,0,0,0-6.27-2.529c-1.073-.37-2.151-.724-3.253-1s-2.2-.59-3.326-.813a75.335,75.335,0,0,0-12.917-1.626,122.256,122.256,0,0,0-12.515.033l.094-.122c1.915,8.607,3.724,16.723,5.379,24.159v-.028a26.488,26.488,0,0,1,2.44,5.233,14.318,14.318,0,0,1,.813,5.436c-.142,1.785-.191,3.525-.24,5.221s-.073,3.338-.106,4.932c-.11,6.375-.15,11.958-.179,16.54s-.065,8.189-.065,10.653v0c0-2.464-.016-6.07,0-10.657s.041-10.152.134-16.536c.033-1.6.053-3.241.1-4.936s.094-3.444.232-5.229a14.175,14.175,0,0,0-.813-5.367,26.68,26.68,0,0,0-2.439-5.192h0l-5.4-24.155-.028-.118h.118a122.777,122.777,0,0,1,12.543-.041,76.178,76.178,0,0,1,12.95,1.626c1.13.219,2.244.488,3.338.813s2.187.63,3.253,1a59.149,59.149,0,0,1,6.27,2.525,42.685,42.685,0,0,1,5.745,3.208l5.428,3.415,20.1,12.661h0a26.27,26.27,0,0,1,2.968,4.936,26.622,26.622,0,0,1,1.809,5.208l.268,1.313.183,1.309a16.812,16.812,0,0,1,.114,2.582c-.049,1.687-.089,3.342-.134,4.94-.175,6.383-.325,11.958-.455,16.548s-.232,8.2-.3,10.665c-.041,1.228-.069,2.167-.089,2.809l-.024.72v.244A2.218,2.218,0,0,1,339.146,668.993Z" transform="translate(-160.475 -588.629)" fill="#4d69c1"/>
      <path id="Tracé_800" data-name="Tracé 800" d="M184.357,593.663h-2.712l-8.006-.094-26.993-.406.081-.041-3.777,4.631-10.811,13.23-1.22,1.5a8.625,8.625,0,0,0-.992,1.582,8.3,8.3,0,0,0-.813,3.46c-.085,2.358,1.147,4.293,1.846,6.131l3.659,8.66c.427,1.016.756,1.813.988,2.358.106.264.2.48.252.618s.077.211.077.211-.037-.069-.1-.2l-.272-.61-1.025-2.342-3.732-8.636-1.22-2.846a8.452,8.452,0,0,1,.15-6.863,8.948,8.948,0,0,1,1.012-1.626l1.22-1.5c3.318-4.066,6.969-8.538,10.8-13.243L146.553,593l.033-.041h.053l26.989.464,8.006.154,2.159.053.557.02h.191Z" transform="translate(-79.705 -588.864)" fill="#4d69c1"/>
      <path id="Tracé_801" data-name="Tracé 801" d="M295.566,675.866a2.082,2.082,0,0,1-.89-.313,2.252,2.252,0,0,1-.939-1.163,2.57,2.57,0,0,1-.134-.935,2.359,2.359,0,0,1,.256-1.033,2.305,2.305,0,0,1,2-1.248h9.026a2.339,2.339,0,0,1,2.318,2.078,2.568,2.568,0,0,1-.289,1.557,2.336,2.336,0,0,1-1.143,1,2.256,2.256,0,0,1-.724.167h-4.424l-3.46-.033h-.939a2.884,2.884,0,0,1-.329-.02,1.774,1.774,0,0,1,.329-.024l.939-.02,3.46-.032h3.72a3.3,3.3,0,0,0,1.354-.167,2.162,2.162,0,0,0,1.041-.923,2.442,2.442,0,0,0,.26-1.435,2.144,2.144,0,0,0-2.114-1.891h-9.022a2.16,2.16,0,0,0-1.874,1.143,2.222,2.222,0,0,0-.252.968,2.441,2.441,0,0,0,.114.894,2.157,2.157,0,0,0,.87,1.13,2.259,2.259,0,0,0,.854.341,1.567,1.567,0,0,0,.321.049A1.426,1.426,0,0,1,295.566,675.866Z" transform="translate(-177.42 -635.275)" fill="#4d69c1"/>
      <path id="Tracé_802" data-name="Tracé 802" d="M147.566,675.866a2.084,2.084,0,0,1-.89-.313,2.254,2.254,0,0,1-.939-1.163,2.571,2.571,0,0,1-.134-.935,2.359,2.359,0,0,1,.256-1.033,2.305,2.305,0,0,1,2-1.248h9.026a2.338,2.338,0,0,1,2.318,2.078,2.568,2.568,0,0,1-.289,1.557,2.336,2.336,0,0,1-1.143,1,2.255,2.255,0,0,1-.724.167h-4.424l-3.46-.033h-.939a2.883,2.883,0,0,1-.329-.02,1.773,1.773,0,0,1,.329-.024l.939-.02,3.46-.032h3.72a3.3,3.3,0,0,0,1.354-.167,2.162,2.162,0,0,0,1.041-.923,2.439,2.439,0,0,0,.26-1.435,2.144,2.144,0,0,0-2.114-1.891h-9.022a2.159,2.159,0,0,0-1.874,1.143,2.227,2.227,0,0,0-.252.968,2.442,2.442,0,0,0,.114.894,2.157,2.157,0,0,0,.87,1.13,2.259,2.259,0,0,0,.854.341,1.568,1.568,0,0,0,.321.049A1.426,1.426,0,0,1,147.566,675.866Z" transform="translate(-89.594 -635.275)" fill="#4d69c1"/>
      <path id="Tracé_803" data-name="Tracé 803" d="M18.5,675.637l12.051.118,4.716-10.722a4.449,4.449,0,0,0-.13-3.859h0A4.444,4.444,0,0,0,31.2,658.8H19.169C15.932,662.044,18.5,675.637,18.5,675.637Z" transform="translate(-13.598 -627.935)" fill="#fafafa"/>
      <path id="Tracé_804" data-name="Tracé 804" d="M233.2,598.276c-13.413-7.5-30.433-6.505-30.433-6.505l-45.2.366a4.612,4.612,0,0,0-3.635,1.822l-8.3,10.9a2.112,2.112,0,0,0-.141.212,2.069,2.069,0,0,0,.747,2.829l13.328,7.7,40.415.74,62.1,1.147A288.859,288.859,0,0,0,233.2,598.276Z" transform="translate(-89.361 -588.13)" fill="#a0b1ea"/>
      <path id="Tracé_805" data-name="Tracé 805" d="M399.7,615.206l-7.233,3.273S361,598.649,358.977,597.336s1.09-2.732,1.09-2.732C373.948,601.146,386.886,608.078,399.7,615.206Z" transform="translate(-215.809 -589.837)" fill="#687ec1"/>
      <path id="Tracé_806" data-name="Tracé 806" d="M440.035,654.568l.577.106,2.216.407c1.923.358,4.7.87,8.156,1.443,6.9,1.151,16.475,2.509,27.111,3.428,2.659.232,5.257.427,7.77.594s4.936.321,7.241.541a61.493,61.493,0,0,1,12.1,2.118,33.2,33.2,0,0,1,7.611,3.253c.862.48,1.472.939,1.9,1.22l.484.333c.056.037.111.076.163.118l-.175-.1-.5-.313c-.435-.268-1.053-.716-1.919-1.171a34.043,34.043,0,0,0-7.632-3.163,62.958,62.958,0,0,0-12.08-2.07c-2.3-.207-4.749-.35-7.237-.529s-5.111-.354-7.774-.585c-10.64-.919-20.2-2.3-27.115-3.489-3.432-.594-6.213-1.13-8.132-1.513l-2.208-.455-.573-.126-.2-.049Z" transform="translate(-264.198 -625.419)" fill="#4d69c1"/>
      <path id="Tracé_807" data-name="Tracé 807" d="M18.968,722.694c5.107,0,9.246.045,9.246.106s-4.143.106-9.246.106-9.242-.045-9.242-.106S13.861,722.694,18.968,722.694Z" transform="translate(-8.965 -665.848)" fill="#4d69c1"/>
      <path id="Tracé_808" data-name="Tracé 808" d="M248.133,748.674c28.823,0,52.181.045,52.181.106s-23.367.106-52.181.106-52.177-.045-52.177-.106S219.31,748.674,248.133,748.674Z" transform="translate(-119.476 -681.265)" fill="#4d69c1"/>
      <path id="Tracé_809" data-name="Tracé 809" d="M605.626,723.554c4.074,0,7.38.045,7.38.106s-3.306.106-7.38.106-7.38-.045-7.38-.106S601.552,723.554,605.626,723.554Z" transform="translate(-358.2 -666.358)" fill="#263238"/>
      <path id="Tracé_810" data-name="Tracé 810" d="M23.616,629.4l8.176-1.533s11.267-7.977,12.356-10.254-1.683-5.379-1.683-5.379Z" transform="translate(-17.207 -600.299)" fill="#687ec1"/>
      <path id="Tracé_811" data-name="Tracé 811" d="M160.749,598.564l-8.583,11.21,13.259,7.709,32.9.939-1.838-19.858Z" transform="translate(-93.491 -592.188)" fill="#687ec1"/>
      <path id="Tracé_812" data-name="Tracé 812" d="M278.051,618.694l-5.245-20.187s4.135-.2,10.921,0c7.1.22,11.039.911,18.6,3.659,7.831,2.85,27.681,17.186,27.681,17.186Z" transform="translate(-165.08 -592.102)" fill="#687ec1"/>
      <path id="Tracé_813" data-name="Tracé 813" d="M392.894,643.709h-8.132c-.065,0-.13,0-.195,0a5.022,5.022,0,0,1-4.827-5.209h0a4.945,4.945,0,0,1,3.326-4.542,8.769,8.769,0,0,1,2.7-.431h0a8.669,8.669,0,0,1,4.257,1.114l4.562,2.562a3.485,3.485,0,0,1,1.773,3.033h0A3.476,3.476,0,0,1,392.894,643.709Z" transform="translate(-228.534 -612.933)" fill="#becbfc"/>
      <path id="Tracé_814" data-name="Tracé 814" d="M396.223,640.495a3.428,3.428,0,0,1-.37,1.22,3.6,3.6,0,0,1-1.415,1.439,3.513,3.513,0,0,1-1.22.407,13.3,13.3,0,0,1-1.419.045l-6.957.02a5.465,5.465,0,0,1-2-.321,5.138,5.138,0,0,1-3.009-2.968,5.23,5.23,0,0,1-.317-2.244,5.123,5.123,0,0,1,2.147-3.793,5.39,5.39,0,0,1,1.956-.813,8.742,8.742,0,0,1,5.656.569c.537.252,1.017.553,1.488.813l1.35.768,2.322,1.321a3.517,3.517,0,0,1,1.411,1.439,3.373,3.373,0,0,1,.374,1.22,2.222,2.222,0,0,1,0,.447c-.012,0-.008-.155-.049-.439a3.572,3.572,0,0,0-.407-1.191,3.5,3.5,0,0,0-1.4-1.378l-2.338-1.293-1.358-.756c-.476-.256-.955-.553-1.48-.789a8.635,8.635,0,0,0-5.538-.533,5.235,5.235,0,0,0-1.883.813,4.923,4.923,0,0,0-2.053,3.639,5.06,5.06,0,0,0,.3,2.151,4.944,4.944,0,0,0,2.879,2.846,5.207,5.207,0,0,0,1.935.317l6.957.024a13.007,13.007,0,0,0,1.4-.028,3.432,3.432,0,0,0,1.171-.366,3.577,3.577,0,0,0,1.4-1.378,3.452,3.452,0,0,0,.407-1.191,2.69,2.69,0,0,0,.053-.439A2.672,2.672,0,0,1,396.223,640.495Z" transform="translate(-228.392 -612.773)" fill="#4d69c1"/>
      <path id="Tracé_815" data-name="Tracé 815" d="M43.985,727.511c-.016-.183-.041-.447-.073-.813s-.085-.809-.11-1.342-.085-1.163-.085-1.838-.045-1.46,0-2.3.045-1.756.155-2.732a34.772,34.772,0,0,1,1.151-6.571,28.939,28.939,0,0,1,1.289-3.659,23.957,23.957,0,0,1,1.964-3.724,21.98,21.98,0,0,1,2.793-3.541,27.873,27.873,0,0,1,3.594-3.155,30.237,30.237,0,0,1,9.173-4.538,38.28,38.28,0,0,1,10.9-1.456,35.686,35.686,0,0,1,10.88,1.59,30.654,30.654,0,0,1,4.847,2,28.025,28.025,0,0,1,4.2,2.757,35.02,35.02,0,0,1,6.461,6.652,26.516,26.516,0,0,1,2.147,3.627,36.947,36.947,0,0,1,1.472,3.594,41.926,41.926,0,0,1,2.289,11.454,31.5,31.5,0,0,1,0,3.184c-.028.346-.037.626-.069.813a1.848,1.848,0,0,0-.033.281,2.455,2.455,0,0,1,0-.281c.008-.183.024-.455.045-.813.037-.74.045-1.8-.02-3.18a42.664,42.664,0,0,0-2.35-11.384,34.923,34.923,0,0,0-1.48-3.574,25.472,25.472,0,0,0-2.139-3.594,34.681,34.681,0,0,0-6.44-6.6,27.666,27.666,0,0,0-4.18-2.732,30.467,30.467,0,0,0-4.814-1.988,35.716,35.716,0,0,0-10.815-1.573,38.225,38.225,0,0,0-10.84,1.443,30.094,30.094,0,0,0-9.116,4.5,25.12,25.12,0,0,0-6.359,6.628,23.771,23.771,0,0,0-1.96,3.691,29.537,29.537,0,0,0-1.3,3.659,35.193,35.193,0,0,0-1.175,6.538,23.757,23.757,0,0,0-.175,2.728c0,.838-.02,1.61,0,2.3s.037,1.305.061,1.834.065,1,.089,1.342.057.626.057.813v.281S44,727.694,43.985,727.511Z" transform="translate(-29.124 -647.538)" fill="#fff"/>
      <path id="Tracé_816" data-name="Tracé 816" d="M287.939,655.074h5.237c3.293.024,7.843.126,12.868.26s9.575.256,12.868.317l3.9.069,1.061.024h.272a.323.323,0,0,1,.1,0,.25.25,0,0,1-.1,0h-5.237c-3.293-.024-7.843-.118-12.868-.256s-9.571-.26-12.864-.321l-3.9-.069-1.061-.024Z" transform="translate(-174.005 -625.721)" fill="#fff"/>
      <path id="Tracé_817" data-name="Tracé 817" d="M304.668,669.826a30.563,30.563,0,0,1,3.562.106,60.02,60.02,0,0,1-7.123,0A30.558,30.558,0,0,1,304.668,669.826Z" transform="translate(-181.873 -634.467)" fill="#fff"/>
      <path id="Tracé_820" data-name="Tracé 820" d="M190.119,618.617c5.481,2.216,9.9,4.058,9.88,4.111s-4.481-1.7-9.957-3.915-9.9-4.058-9.876-4.111S184.638,616.4,190.119,618.617Z" transform="translate(-110.106 -601.763)" fill="#fff"/>
      <path id="Tracé_821" data-name="Tracé 821" d="M211.732,622.061c5.217,2.236,9.429,4.09,9.4,4.143s-4.277-1.716-9.49-3.948-9.425-4.086-9.4-4.143C202.246,618.076,206.515,619.825,211.732,622.061Z" transform="translate(-123.209 -603.788)" fill="#fff"/>
      <path id="Tracé_822" data-name="Tracé 822" d="M197.678,654.973c10.852.061,19.642.151,19.642.219s-8.794.065-19.642,0-19.642-.167-19.642-.224S186.826,654.912,197.678,654.973Z" transform="translate(-108.842 -625.636)" fill="#fff"/>
      <path id="Tracé_823" data-name="Tracé 823" d="M159.6,669.117c3.045.028,5.509.106,5.509.159s-2.464.081-5.509.053-5.509-.1-5.509-.154S156.55,669.088,159.6,669.117Z" transform="translate(-94.63 -634.047)" fill="#fff"/>
      <path id="Tracé_824" data-name="Tracé 824" d="M568.47,661.894l.7.053c.28.02.667.057,1.094.114s.911.106,1.443.2c1.069.167,2.334.431,3.716.789a39.819,39.819,0,0,1,8.652,3.4c1.252.679,2.358,1.342,3.253,1.948a12.646,12.646,0,0,1,1.22.813c.354.256.647.476.882.663l.545.435a1.188,1.188,0,0,1,.179.163,1.239,1.239,0,0,1-.207-.13l-.565-.407c-.244-.179-.541-.382-.9-.63s-.76-.533-1.22-.813a34.438,34.438,0,0,0-3.253-1.9c-1.268-.655-2.687-1.317-4.216-1.923a46,46,0,0,0-4.4-1.456c-1.374-.35-2.631-.626-3.692-.813-.529-.106-1.012-.159-1.435-.232s-.789-.118-1.09-.15l-.687-.089a.971.971,0,0,1-.24-.049A1.667,1.667,0,0,1,568.47,661.894Z" transform="translate(-340.398 -629.756)" fill="#fff"/>
      <path id="Tracé_825" data-name="Tracé 825" d="M389.745,636.543a1.775,1.775,0,0,1,.272-.309,2.614,2.614,0,0,1,1.374-.63,5.763,5.763,0,0,1,2.236.2,15.1,15.1,0,0,1,2.6.866,15.6,15.6,0,0,1,4.18,2.667,14.462,14.462,0,0,1,1.065,1.065,2.64,2.64,0,0,1,.342.431c-.028.028-.541-.569-1.508-1.382a16.675,16.675,0,0,0-6.721-3.46,5.8,5.8,0,0,0-2.171-.232,2.711,2.711,0,0,0-1.342.541,2.2,2.2,0,0,0-.407.378C389.656,636.669,389.68,636.625,389.745,636.543Z" transform="translate(-234.424 -614.147)" fill="#fff"/>
      <path id="Tracé_826" data-name="Tracé 826" d="M67.84,600.433l.329.041a9.177,9.177,0,0,0,1.281.045,10.723,10.723,0,0,0,2.009-.284,17.786,17.786,0,0,0,2.557-.813c.931-.362,1.927-.817,3.009-1.285l1.687-.7c.6-.236,1.2-.439,1.817-.667a67.993,67.993,0,0,1,8.3-2.261,89.719,89.719,0,0,1,15.523-1.87c1-.049,1.887-.049,2.7-.049l2.033.037,1.289.069.333.024a.313.313,0,0,1,.114,0h-.451l-1.285-.028h-2.033c-.8.02-1.7.02-2.7.073a95.4,95.4,0,0,0-15.483,1.919,70.973,70.973,0,0,0-8.286,2.257c-.618.228-1.232.427-1.813.659l-1.687.679c-1.082.451-2.082.911-3.021,1.264a18.519,18.519,0,0,1-2.59.813,10.936,10.936,0,0,1-2.033.252,6.5,6.5,0,0,1-1.732-.179Z" transform="translate(-43.371 -588.645)" fill="#4d69c1"/>
    </g>
    <g id="freepik--Character--inject-4" transform="translate(39.334 103.014)">
      <path id="Tracé_885" data-name="Tracé 885" d="M213.558,399.026l.456,10.524s-10.538,4-10.644,5.958l20.438-.158-.048-16.429Z" transform="translate(-5.194 -172.735)" fill="#687ec1"/>
      <path id="Tracé_886" data-name="Tracé 886" d="M237.629,419.116a.835.835,0,0,1,.586.96.8.8,0,0,1-.936.591.888.888,0,0,1-.615-1.008.831.831,0,0,1,1.042-.5" transform="translate(-22.496 -183.232)" fill="#e0e0e0"/>
      <path id="Tracé_887" data-name="Tracé 887" d="M223.783,431.346l-.072-1.656-19.584.773s-.907.4-.8,1.042Z" transform="translate(-5.168 -188.732)" fill="#1e1e1e"/>
      <path id="Tracé_888" data-name="Tracé 888" d="M224.849,420.758c0,.1.5.144,1,.48s.759.735.85.691-.062-.615-.667-.989S224.83,420.667,224.849,420.758Z" transform="translate(-16.36 -184.044)" fill="#263238"/>
      <path id="Tracé_889" data-name="Tracé 889" d="M220.4,422.695c0,.1.413.259.754.682s.447.864.543.859.158-.571-.274-1.085S220.4,422.6,220.4,422.695Z" transform="translate(-14.047 -185.074)" fill="#263238"/>
      <path id="Tracé_890" data-name="Tracé 890" d="M217.032,426.241c.091,0,.226-.48-.034-1.023s-.73-.759-.773-.677.25.375.48.826S216.931,426.232,217.032,426.241Z" transform="translate(-11.875 -186.047)" fill="#263238"/>
      <path id="Tracé_891" data-name="Tracé 891" d="M225.186,415.436c.043.091.48-.048,1.061,0s1.008.206,1.056.12-.37-.437-1.037-.48S225.133,415.359,225.186,415.436Z" transform="translate(-16.533 -181.132)" fill="#263238"/>
      <path id="Tracé_892" data-name="Tracé 892" d="M277.78,399.026l-.456,10.524s10.538,4,10.644,5.958l-20.438-.158.043-16.429Z" transform="translate(-38.55 -172.735)" fill="#687ec1"/>
      <path id="Tracé_893" data-name="Tracé 893" d="M274.128,419.116a.831.831,0,0,0-.586.96.8.8,0,0,0,.936.591.883.883,0,0,0,.61-1.008.826.826,0,0,0-1.037-.5" transform="translate(-41.668 -183.233)" fill="#e0e0e0"/>
      <path id="Tracé_894" data-name="Tracé 894" d="M267.53,431.346l.072-1.656,19.569.773s.907.4.8,1.042Z" transform="translate(-38.55 -188.732)" fill="#1e1e1e"/>
      <path id="Tracé_895" data-name="Tracé 895" d="M286.592,420.758c0,.1-.5.144-1,.48s-.759.735-.85.691.062-.615.667-.989S286.611,420.667,286.592,420.758Z" transform="translate(-47.487 -184.044)" fill="#263238"/>
      <path id="Tracé_896" data-name="Tracé 896" d="M291.591,422.695c0,.1-.413.259-.754.682s-.447.864-.543.859-.158-.571.274-1.085S291.586,422.6,291.591,422.695Z" transform="translate(-50.349 -185.074)" fill="#263238"/>
      <path id="Tracé_897" data-name="Tracé 897" d="M295.433,426.241c-.091,0-.226-.48.034-1.023s.73-.759.773-.677-.25.375-.456.826S295.534,426.232,295.433,426.241Z" transform="translate(-52.996 -186.047)" fill="#263238"/>
      <path id="Tracé_898" data-name="Tracé 898" d="M285.977,415.436c-.043.091-.48-.048-1.061,0s-1.008.206-1.061.12.375-.437,1.042-.48S286.025,415.359,285.977,415.436Z" transform="translate(-47.035 -181.132)" fill="#263238"/>
      <path id="Tracé_899" data-name="Tracé 899" d="M215.5,229.283c0,.639,4.139,87.245,4.139,87.245l10.745.1,3.5-73.653s4.489,38.7,4.489,39.556,1.272,34.52,1.272,34.52h11.345V236.772L243.711,225Z" transform="translate(-11.5 -82.315)" fill="#0d1182"/>
      <path id="Tracé_900" data-name="Tracé 900" d="M274.038,334.67v-2.981c-.029-1.92-.086-4.7-.187-8.123-.206-6.861-.6-16.324-1.08-26.79s-.96-19.92-1.3-26.785c-.163-3.418-.3-6.189-.389-8.119-.043-.96-.072-1.69-.1-2.209v-.576a1.045,1.045,0,0,1,0-.2.937.937,0,0,1,.024.2c0,.139.024.331.043.571.034.519.077,1.258.139,2.208.11,1.92.269,4.7.48,8.114.379,6.851.888,16.324,1.373,26.78s.85,19.939,1.008,26.8c.077,3.433.106,6.208.106,8.128v2.785A1.06,1.06,0,0,1,274.038,334.67Z" transform="translate(-40.344 -99.935)" fill="#455a64"/>
      <path id="Tracé_901" data-name="Tracé 901" d="M235.769,258.91c.067,0,.062,16.857,0,37.65s-.192,37.65-.264,37.65-.062-16.857,0-37.655S235.717,258.91,235.769,258.91Z" transform="translate(-21.874 -99.945)" fill="#455a64"/>
      <path id="Tracé_902" data-name="Tracé 902" d="M252.9,243.531a2.564,2.564,0,0,1-.514.226c-.336.13-.826.307-1.44.523l-.115.038v-.125c-.067-1.066-.149-2.487-.221-4.047-.082-1.695-.139-3.226-.173-4.321V234.51a1.73,1.73,0,0,1,.024-.48,1.6,1.6,0,0,1,.072.48c.029.312.062.759.1,1.311.077,1.109.163,2.641.245,4.321.072,1.56.13,2.986.158,4.052l-.125-.082c.615-.192,1.109-.346,1.44-.446A2.244,2.244,0,0,1,252.9,243.531Z" transform="translate(-29.657 -87.01)" fill="#455a64"/>
      <path id="Tracé_903" data-name="Tracé 903" d="M252.942,234.388a.311.311,0,0,1,.168-.12.768.768,0,0,1,.96.783.879.879,0,0,1-.672.783.907.907,0,0,1-.931-.447.86.86,0,0,1,.344-1.166.89.89,0,0,1,.083-.039c.125-.048.2-.038.2-.024a1.077,1.077,0,0,0-.48.48.663.663,0,0,0,.029.639.7.7,0,0,0,.687.322.663.663,0,0,0,.48-.562.557.557,0,0,0-.278-.552A.96.96,0,0,0,252.942,234.388Z" transform="translate(-30.664 -87.07)" fill="#455a64"/>
      <path id="Tracé_904" data-name="Tracé 904" d="M265.383,234.653c-.067,0-.163-.379-.216-.859s-.034-.874.038-.883.163.379.211.859S265.451,234.643,265.383,234.653Z" transform="translate(-37.306 -86.428)" fill="#455a64"/>
      <path id="Tracé_905" data-name="Tracé 905" d="M267.329,234.374c-.067,0-.125-.408-.13-.912s.053-.912.125-.912.125.408.125.912S267.4,234.374,267.329,234.374Z" transform="translate(-38.378 -86.241)" fill="#455a64"/>
      <path id="Tracé_906" data-name="Tracé 906" d="M235.435,235.369a2.261,2.261,0,0,1-.24-1.027,2.327,2.327,0,0,1,0-1.051,2.285,2.285,0,0,1,.24,1.027A2.329,2.329,0,0,1,235.435,235.369Z" transform="translate(-21.708 -86.625)" fill="#455a64"/>
      <path id="Tracé_907" data-name="Tracé 907" d="M237.644,235.445a1.644,1.644,0,0,1-.312-1.075,1.682,1.682,0,0,1,.221-1.1,5.3,5.3,0,0,1,.029,1.09A5.694,5.694,0,0,1,237.644,235.445Z" transform="translate(-22.841 -86.615)" fill="#455a64"/>
      <path id="Tracé_908" data-name="Tracé 908" d="M249.215,69.477c-1.071-.221-1.868-1.085-2.813-1.628a5.1,5.1,0,0,0-4.7-.144c-1.44.725-2.535,1.647-2.746,3.265l1.661,2.132" transform="translate(-23.697 -0.278)" fill="#263238"/>
      <path id="Tracé_909" data-name="Tracé 909" d="M234.522,81.088l1.512,17.822c.259,3.029,1.258,7.427,6.03,6.8h0c4.1-.855,4.8-4.883,4.571-7.711-.115-1.34-.206-2.458-.211-2.6,0,0,4.5-.811,4.446-5.329,0-2.184-.446-6.678-.874-10.735a8.412,8.412,0,0,0-8.56-7.528H241C236.294,72.206,234,76.407,234.522,81.088Z" transform="translate(-21.352 -2.671)" fill="#ffbe9d"/>
      <path id="Tracé_910" data-name="Tracé 910" d="M252.979,119.157a10.512,10.512,0,0,1-5.929-1.527s1.474,3.212,5.968,2.7Z" transform="translate(-27.903 -26.495)" fill="#fdb094"/>
      <path id="Tracé_911" data-name="Tracé 911" d="M262.286,91.943c-.077.1-.715-.034-1.517.2s-1.32.691-1.44.648,0-.168.235-.374a2.881,2.881,0,0,1,1.119-.6,2.619,2.619,0,0,1,1.229-.077C262.21,91.8,262.325,91.9,262.286,91.943Z" transform="translate(-34.262 -13.012)" fill="#263238"/>
      <path id="Tracé_912" data-name="Tracé 912" d="M247.284,92.281c-.089.084-.7-.136-1.518-.022s-1.4.475-1.5.421.039-.164.288-.333a2.95,2.95,0,0,1,1.192-.419,2.659,2.659,0,0,1,1.225.115C247.231,92.131,247.328,92.247,247.284,92.281Z" transform="translate(-26.439 -13.119)" fill="#263238"/>
      <path id="Tracé_913" data-name="Tracé 913" d="M247.512,94.2a.5.5,0,0,1-.48.514.48.48,0,0,1-.523-.433v0a.48.48,0,0,1,.446-.513h.035a.48.48,0,0,1,.523.433Z" transform="translate(-27.62 -14.088)" fill="#263238"/>
      <path id="Tracé_914" data-name="Tracé 914" d="M262.412,94.2a.48.48,0,0,1-.446.513h-.035a.48.48,0,0,1-.523-.433v0a.48.48,0,0,1,.446-.513h.035a.48.48,0,0,1,.523.433Z" transform="translate(-35.367 -14.088)" fill="#263238"/>
      <path id="Tracé_915" data-name="Tracé 915" d="M255.723,97.105a4.562,4.562,0,0,1,1.119-.23c.178,0,.346-.062.375-.182a.917.917,0,0,0-.134-.523c-.178-.422-.36-.869-.557-1.335a23.978,23.978,0,0,1-1.263-3.5,22.91,22.91,0,0,1,1.541,3.394c.187.48.365.917.538,1.344a1.043,1.043,0,0,1,.11.691.48.48,0,0,1-.288.269,1.227,1.227,0,0,1-.3.048A4.691,4.691,0,0,1,255.723,97.105Z" transform="translate(-32.169 -12.821)" fill="#263238"/>
      <path id="Tracé_916" data-name="Tracé 916" d="M246.984,86.567c-.058.178-.667.11-1.383.216s-1.3.322-1.392.173c-.043-.072.053-.24.283-.413a2.343,2.343,0,0,1,1.023-.4,2.3,2.3,0,0,1,1.09.106C246.878,86.356,247.013,86.485,246.984,86.567Z" transform="translate(-26.42 -10.113)" fill="#263238"/>
      <path id="Tracé_917" data-name="Tracé 917" d="M262.146,88.01c-.062.144-.663.053-1.378.1s-1.292.192-1.378.058c-.043-.062.062-.2.3-.326a2.4,2.4,0,0,1,1.032-.278,2.521,2.521,0,0,1,1.066.158C262.05,87.823,262.174,87.943,262.146,88.01Z" transform="translate(-34.313 -10.861)" fill="#263238"/>
      <path id="Tracé_918" data-name="Tracé 918" d="M232.33,97.959c-.077-.034-3.126-.845-2.948,2.242a2.32,2.32,0,0,0,3.236,2.185C232.623,102.295,232.33,97.959,232.33,97.959Z" transform="translate(-18.713 -16.205)" fill="#ffbe9d"/>
      <path id="Tracé_919" data-name="Tracé 919" d="M232.432,102.387a1.29,1.29,0,0,1-.144.086.538.538,0,0,1-.4.029,1.315,1.315,0,0,1-.682-1.157,1.781,1.781,0,0,1,.106-.778.624.624,0,0,1,.379-.437.283.283,0,0,1,.326.13c.048.086.029.149.048.154s.062-.058.029-.182a.325.325,0,0,0-.13-.187.4.4,0,0,0-.3-.062.765.765,0,0,0-.533.509,1.794,1.794,0,0,0-.139.874,1.392,1.392,0,0,0,.859,1.287.561.561,0,0,0,.48-.11C232.432,102.454,232.456,102.387,232.432,102.387Z" transform="translate(-19.55 -17.316)" fill="#fdb094"/>
      <path id="Tracé_920" data-name="Tracé 920" d="M250.371,77.53a6.534,6.534,0,0,1-5.824-1.167c-1.123-.9-2-2.223-3.39-2.612a3.658,3.658,0,0,0-2.794.451,7.016,7.016,0,0,0-2.079,2.007c.927,2.271.4,4.849-.134,7.245a1.211,1.211,0,0,1-.341.72.96.96,0,0,1-1.239-.24,3.841,3.841,0,0,1-.893-1.992,12.652,12.652,0,0,1-.091-5.008,8.643,8.643,0,0,1,2.276-4.441,8.2,8.2,0,0,1,5.694-2.314,10.051,10.051,0,0,1,5.886,1.92,5.9,5.9,0,0,1,1.949,2.136" transform="translate(-20.795 -1.826)" fill="#263238"/>
      <path id="Tracé_921" data-name="Tracé 921" d="M242.872,79.91c-.192-1.253-.2-2.818-.389-4.071a7.5,7.5,0,0,1-5.425-1.81,8.269,8.269,0,0,0-2.362-1.964c-1.243-.48-2.621.091-3.841.648l.048-.053a5.712,5.712,0,0,0-1.613,1.44,17.522,17.522,0,0,1-.034,7.475,1.291,1.291,0,0,1-.653.874c-.663.331-1.1-.139-1.551-.48-.331-.245-.816-.423-1.138-.163a17.429,17.429,0,0,1-1.618-5.142,1.253,1.253,0,0,1-2.29.927,2.655,2.655,0,0,0,.706-1.2,1.627,1.627,0,0,1-2.276-.343l-.019-.026,1.08-.907-1.388-.038a7.418,7.418,0,0,0,2.8-2.06,11.335,11.335,0,0,1,2.641-2.295,3.274,3.274,0,0,1,3.337-.043,4.221,4.221,0,0,1,2.881-3.582,10.5,10.5,0,0,1,5.569-.1,11.511,11.511,0,0,1,3.9,2.463,14.879,14.879,0,0,1,1.968,2c.883,1.095,2.665,2.914,4.551,2.569l-.341,1.882c-1.051.874-3.053-.13-3.053-.13a3.969,3.969,0,0,0,2.194,1.33l-.422,1.6a2.411,2.411,0,0,1-2.329-1.191Z" transform="translate(-13.897)" fill="#0776f4"/>
      <path id="Tracé_922" data-name="Tracé 922" d="M239.428,79.944s.163-.23.48-.6a4.734,4.734,0,0,1,3.049-1.709,2.877,2.877,0,0,1,1.613.091c1.095.427,1.824,1.632,2.967,2.449a6.967,6.967,0,0,0,3.687,1.412,7.951,7.951,0,0,0,.888.029.872.872,0,0,1,.365.048c.106.048.221.134.336.2a3.406,3.406,0,0,1,.859,1.133,2.655,2.655,0,0,0,1.748,1.234,2.859,2.859,0,0,0,.586.062.516.516,0,0,0,.206,0,3.2,3.2,0,0,1-.768-.134,2.616,2.616,0,0,1-1.623-1.234,3.456,3.456,0,0,0-.9-1.215,4.015,4.015,0,0,0-.36-.216,1.023,1.023,0,0,0-.456-.077,6.544,6.544,0,0,1-.859-.038,6.844,6.844,0,0,1-3.524-1.383,12.82,12.82,0,0,1-1.479-1.344,4.688,4.688,0,0,0-1.551-1.119,3.119,3.119,0,0,0-1.733-.082,5.776,5.776,0,0,0-1.44.48,5.406,5.406,0,0,0-1.652,1.392,4.48,4.48,0,0,0-.336.48C239.447,79.872,239.418,79.939,239.428,79.944Z" transform="translate(-23.939 -5.56)" fill="#0c59b1"/>
      <path id="Tracé_923" data-name="Tracé 923" d="M228.94,84.671a.811.811,0,0,0,.062.259,2.456,2.456,0,0,0,.336.667,1.2,1.2,0,0,0,1.032.514.83.83,0,0,0,.629-.374,1.244,1.244,0,0,0,.2-.763l-.235.043a1,1,0,0,0,.816.648,1.2,1.2,0,0,0,.931-.264,1.827,1.827,0,0,0,.538-.7,4.7,4.7,0,0,0,.322-1.407,7.546,7.546,0,0,1,.264-1.263,2.424,2.424,0,0,0-.437,1.239,5.2,5.2,0,0,1-.35,1.335,1.671,1.671,0,0,1-.48.6.989.989,0,0,1-.749.216.754.754,0,0,1-.624-.48l-.307-1.061.091,1.1a.8.8,0,0,1-.615.917,1.052,1.052,0,0,1-.883-.4,3.145,3.145,0,0,1-.384-.6A.96.96,0,0,0,228.94,84.671Z" transform="translate(-18.487 -7.987)" fill="#0c59b1"/>
      <path id="Tracé_924" data-name="Tracé 924" d="M230.72,91.57a1.233,1.233,0,0,0,.835.293,2.928,2.928,0,0,0,2.021-.7,5.516,5.516,0,0,0,1.311-1.68,2.648,2.648,0,0,0,.355-.807,4.094,4.094,0,0,0-.48.715,6.781,6.781,0,0,1-1.316,1.584,3.062,3.062,0,0,1-1.882.735A5.088,5.088,0,0,1,230.72,91.57Z" transform="translate(-19.413 -11.444)" fill="#0c59b1"/>
      <path id="Tracé_925" data-name="Tracé 925" d="M230.92,93.554a1.6,1.6,0,0,0,.749.11,4.1,4.1,0,0,0,3.193-1.618,1.559,1.559,0,0,0,.355-.677,5.72,5.72,0,0,0-.48.567,4.74,4.74,0,0,1-3.068,1.556A3.92,3.92,0,0,0,230.92,93.554Z" transform="translate(-19.517 -12.842)" fill="#0c59b1"/>
      <path id="Tracé_926" data-name="Tracé 926" d="M228.72,71.493a5.553,5.553,0,0,0,.773-.048,5.073,5.073,0,0,1,3.4,1.138c.365.3.557.528.591.48a1.734,1.734,0,0,0-.48-.629,4.26,4.26,0,0,0-1.632-.989,4.381,4.381,0,0,0-1.9-.2A1.613,1.613,0,0,0,228.72,71.493Z" transform="translate(-18.373 -2.366)" fill="#0c59b1"/>
      <path id="Tracé_927" data-name="Tracé 927" d="M237.3,66.94a3.284,3.284,0,0,0-.437,2.1,3.242,3.242,0,0,0,.749,2.016,9.705,9.705,0,0,1-.48-2.031A9.613,9.613,0,0,1,237.3,66.94Z" transform="translate(-22.591 -0.141)" fill="#0c59b1"/>
      <path id="Tracé_928" data-name="Tracé 928" d="M255.3,76.783a2.122,2.122,0,0,1-.667.312,3.54,3.54,0,0,1-1.959-.389c-.4-.168-.821-.384-1.287-.6a8.073,8.073,0,0,1-1.368-.807,36.6,36.6,0,0,0-3.063-2.184,5.588,5.588,0,0,0-1.863-.643,3.551,3.551,0,0,0-1.834.226c-1.09.48-1.887,1.162-2.708,1.412a2.588,2.588,0,0,1-1.959-.067,1.929,1.929,0,0,1-.557-.48.323.323,0,0,0,.091.178,1.441,1.441,0,0,0,.418.389,2.612,2.612,0,0,0,2.055.149c.874-.245,1.7-.96,2.741-1.364a3.329,3.329,0,0,1,1.719-.2,5.478,5.478,0,0,1,1.781.619c1.152.629,2.084,1.508,3.049,2.156a8.551,8.551,0,0,0,1.44.8c.48.211.9.418,1.306.576a3.438,3.438,0,0,0,2.05.326,1.345,1.345,0,0,0,.5-.264A.883.883,0,0,0,255.3,76.783Z" transform="translate(-23.218 -2.999)" fill="#0c59b1"/>
      <path id="Tracé_929" data-name="Tracé 929" d="M238.28,72.135c.038.034.432-.48,1.277-1.1a7,7,0,0,1,3.759-1.3,12.019,12.019,0,0,1,2.218.2,12.057,12.057,0,0,0,1.844.187,4.038,4.038,0,0,0,1.243-.168,1.2,1.2,0,0,0,.423-.187,6.13,6.13,0,0,1-1.661.182,14.073,14.073,0,0,1-1.815-.235,11.011,11.011,0,0,0-2.261-.226,6.779,6.779,0,0,0-3.841,1.4,6.232,6.232,0,0,0-.907.864A1.506,1.506,0,0,0,238.28,72.135Z" transform="translate(-23.343 -1.467)" fill="#0c59b1"/>
      <path id="Tracé_930" data-name="Tracé 930" d="M253.212,105.968a4.862,4.862,0,0,1-1.071-.725,3.3,3.3,0,0,1-.48-.763c-.11-.211-.192-.346-.226-.331s0,.163.062.4a2.331,2.331,0,0,0,.48.859,1.871,1.871,0,0,0,.845.528C253.049,106,253.207,106,253.212,105.968Z" transform="translate(-30.176 -19.485)" fill="#263238"/>
      <path id="Tracé_931" data-name="Tracé 931" d="M230.809,122.387l.883-.427,2.569,4.94,4.081,3.025,2.645-2.5,1.344-5.949,1.109.48s4.35,32.935,4.273,33.315,1.666,18.138,1.666,18.138-9.151,1.815-11.8.984-8.546.48-8.5.221-2.53-11.148-2.53-11.148l.754-29.82Z" transform="translate(-17.245 -28.496)" fill="#fafafa"/>
      <path id="Tracé_932" data-name="Tracé 932" d="M242.293,135.658a8.16,8.16,0,0,1-1.152-.711c-.706-.48-1.676-1.128-2.775-1.892h0a1.479,1.479,0,0,0-.792-.139,3.126,3.126,0,0,0-1.762,1.042,5.483,5.483,0,0,0-.984,1.44c-.432.907-.639,1.5-.677,1.488a1.383,1.383,0,0,1,.1-.432,9.718,9.718,0,0,1,.418-1.128,5.22,5.22,0,0,1,.96-1.517,5.086,5.086,0,0,1,.811-.7,2.34,2.34,0,0,1,1.095-.427,1.7,1.7,0,0,1,.922.168h0c1.09.768,2.045,1.44,2.722,1.959A8.244,8.244,0,0,1,242.293,135.658Z" transform="translate(-21.196 -34.315)" fill="#263238"/>
      <path id="Tracé_933" data-name="Tracé 933" d="M254.478,212.841a2.913,2.913,0,0,1-.658-.149c-.422-.11-1.023-.293-1.762-.543a41.159,41.159,0,0,1-10.774-5.56c-.629-.456-1.128-.84-1.44-1.119a3.46,3.46,0,0,1-.5-.451,3.352,3.352,0,0,1,.562.374c.355.254.864.615,1.508,1.051a48.833,48.833,0,0,0,10.73,5.536c.73.269,1.32.48,1.733.619A3.815,3.815,0,0,1,254.478,212.841Z" transform="translate(-23.894 -71.928)" fill="#263238"/>
      <path id="Tracé_934" data-name="Tracé 934" d="M250.831,139.07a1.83,1.83,0,0,1,0,.37v4.931c-.024,3.289-.029,7.831.038,12.843s.187,9.559.283,12.843c.048,1.623.086,2.948.115,3.894v1.056a1.642,1.642,0,0,1,0,.37,2.07,2.07,0,0,1-.038-.365c0-.264-.043-.619-.072-1.056-.053-.917-.12-2.247-.192-3.889-.139-3.289-.288-7.831-.355-12.848s-.034-9.559.034-12.848c.034-1.647.072-2.977.106-3.894,0-.442.034-.792.048-1.061A1.987,1.987,0,0,1,250.831,139.07Z" transform="translate(-29.734 -37.641)" fill="#263238"/>
      <path id="Tracé_935" data-name="Tracé 935" d="M255,221.812a23.739,23.739,0,0,1-.23-3.418,24.382,24.382,0,0,1,0-3.423,23.327,23.327,0,0,1,.226,3.418A24.04,24.04,0,0,1,255,221.812Z" transform="translate(-31.882 -77.101)" fill="#263238"/>
      <path id="Tracé_936" data-name="Tracé 936" d="M256.359,135.641a5.383,5.383,0,0,1-.533-1.013c-.3-.643-.711-1.546-1.157-2.564l.192.043-.37.317-2.4,2.04a11.778,11.778,0,0,1-1,.831,25.95,25.95,0,0,1,3.231-3.058l.37-.317.13-.11.067.154c.442,1.023.821,1.92,1.085,2.6A5.724,5.724,0,0,1,256.359,135.641Z" transform="translate(-30 -33.867)" fill="#263238"/>
      <path id="Tracé_937" data-name="Tracé 937" d="M198.959,144.616l-4.422,19.555-1.157,3.9s.149,7.082,3.759,7.37a16.385,16.385,0,0,0,7.519-1.733l2.309-5.348-3.322-5.348S201.719,144.319,198.959,144.616Z" transform="translate(0 -40.523)" fill="#ff476c"/>
      <path id="Tracé_938" data-name="Tracé 938" d="M219.347,124.93l-5.19,4.873s-3.98.7-7.082,1.541c-.874.24-1.354.581-2.084,3.039-.48,1.671,4.1,34.3,4.1,34.3l-2.881,20.52s1.887,5.348,5.569,3.039,4.407-7.374,5.416-12a201,201,0,0,0,2.6-23.847c0-4.191-.864-24.284-.864-24.716S219.347,124.93,219.347,124.93Z" transform="translate(-6.019 -30.29)" fill="#ff476c"/>
      <path id="Tracé_939" data-name="Tracé 939" d="M222.017,169.613l.545-2.277a.779.779,0,0,1,.912-.581l4.472.909a.778.778,0,0,1,.6.947L226.1,178.643a.778.778,0,0,1-.951.569L221,178.144a.778.778,0,0,1-.568-.912Z" transform="translate(-14.056 -52.026)" fill="#263238"/>
      <path id="Tracé_940" data-name="Tracé 940" d="M207.537,181.332a3.174,3.174,0,0,1-.759.12c-.48.058-1.176.125-2.016.2l.067-.034a21.911,21.911,0,0,0-2.064,2.521,10.075,10.075,0,0,0-1.128,2.04,5.7,5.7,0,0,0-.389,1.844,5.981,5.981,0,0,0,.245,1.733,1.234,1.234,0,0,1-.211-.432,4.145,4.145,0,0,1-.211-1.3,5.663,5.663,0,0,1,.35-1.92,9.34,9.34,0,0,1,1.143-2.1,18.64,18.64,0,0,1,2.117-2.53l.029-.029h.038c.84-.053,1.536-.091,2.021-.11A3.947,3.947,0,0,1,207.537,181.332Z" transform="translate(-3.998 -59.604)" fill="#263238"/>
      <path id="Tracé_941" data-name="Tracé 941" d="M220.282,217a9.55,9.55,0,0,1-3.932,1.968,21.535,21.535,0,0,1,1.968-.96A19.415,19.415,0,0,1,220.282,217Z" transform="translate(-11.942 -78.156)" fill="#263238"/>
      <path id="Tracé_942" data-name="Tracé 942" d="M228.477,165.016a2.092,2.092,0,0,1-.115-.379l-.288-1.109c-.245-.984-.586-2.372-1.008-4.076L223.82,145.97c-.35-1.488-.7-2.938-1.023-4.321v-.072l2.4-6.011.1.139H222.73l.082-.139,2.343-3.966c.274-.447.48-.807.648-1.071a4.015,4.015,0,0,1,.24-.36,2.19,2.19,0,0,1-.2.389l-.6,1.1-2.271,4-.077-.134h2.554l-.058.144-2.372,6.025v-.082l1.032,4.321,3.154,13.5.931,4.1c.1.48.178.84.24,1.114A2.234,2.234,0,0,1,228.477,165.016Z" transform="translate(-15.259 -33.014)" fill="#263238"/>
      <path id="Tracé_943" data-name="Tracé 943" d="M208.843,196.38a2.264,2.264,0,0,1,.11.538,6.945,6.945,0,0,1,.058,1.508,3.476,3.476,0,0,1-.245,1.032,2.626,2.626,0,0,1-.73.984,9.206,9.206,0,0,1-2.468,1.2,16.124,16.124,0,0,1-2.612.8,7.827,7.827,0,0,1-2.237.13,5.117,5.117,0,0,1-1.469-.355,1.605,1.605,0,0,1-.48-.259,7.564,7.564,0,0,0,1.968.437,8.113,8.113,0,0,0,2.175-.178,17.44,17.44,0,0,0,2.573-.807,9.7,9.7,0,0,0,2.4-1.143,2.718,2.718,0,0,0,.96-1.858,8.225,8.225,0,0,0,.024-1.479A2.273,2.273,0,0,1,208.843,196.38Z" transform="translate(-2.802 -67.436)" fill="#263238"/>
      <path id="Tracé_944" data-name="Tracé 944" d="M212.83,192.773a7,7,0,0,1-.293-1.243c-.154-.768-.37-1.834-.533-3.029a16.383,16.383,0,0,1-.144-3.082,4.568,4.568,0,0,1,.182-1.267,10.61,10.61,0,0,1,0,1.272,22.9,22.9,0,0,0,.216,3.044c.163,1.186.35,2.257.48,3.034A6.105,6.105,0,0,1,212.83,192.773Z" transform="translate(-9.598 -61.078)" fill="#263238"/>
      <path id="Tracé_945" data-name="Tracé 945" d="M203.262,181.55c0,.072-1.08.432-2.4.994s-2.338,1.1-2.372,1.037a12.357,12.357,0,0,1,4.772-2.031Z" transform="translate(-2.657 -59.726)" fill="#263238"/>
      <path id="Tracé_946" data-name="Tracé 946" d="M212.17,178.619l4.172-5.43s5.176-.773,5.368-.322.067,1.032-.322,1.032-3.236.9-3.236.9,4.46.519,4.523.874.2,1.023-.322,1.3a29.817,29.817,0,0,1-4.638.336s4.383.326,4.508.778a.787.787,0,0,1-.5,1l-.037.012c-.451.13-4.763,0-4.763,0v.581h2.252l2.127,1.224s.062.773-.581.84a6.075,6.075,0,0,1-2.127-.711s-2.194,3.159-3.61,3.418a19.15,19.15,0,0,0-2.4.576Z" transform="translate(-9.769 -55.138)" fill="#ffd4bd"/>
      <path id="Tracé_947" data-name="Tracé 947" d="M309.9,114.712a4.781,4.781,0,0,1-2.612-1.066c-.84-.9-4.374-7.082-4.374-7.082s.72-.629,1.81.322a29.517,29.517,0,0,1,2.285,2.5l-1.282-5.416c-.288-1.215-.648-3.073-.077-3.361s1.176,2.026,1.628,2.957,1.066,2.266,1.066,2.266a43.487,43.487,0,0,1-.96-6.2c.058-1.008,1.315-.768,1.474.379,0,0,.336-1.21.96-.437s1.575,5.536,1.892,5.416-.23-4.033.245-4.455c.264-.24.7.091.879,1.075s1.527,8.45,1.464,9.511a2.532,2.532,0,0,1-.447,1.479l-1.961,1.048Z" transform="translate(-56.944 -16.807)" fill="#ffbe9d"/>
      <path id="Tracé_948" data-name="Tracé 948" d="M316.659,119.776a2.061,2.061,0,0,0-.687.48,5.178,5.178,0,0,0-1.133,1.733l.226-.043-.062-.062a5.88,5.88,0,0,0-1.757-1.2,1.92,1.92,0,0,0-.845-.24,10.642,10.642,0,0,1,2.4,1.628l.062.058.149.144.072-.187A8.492,8.492,0,0,1,316.659,119.776Z" transform="translate(-61.877 -27.609)" fill="#fdb094"/>
      <path id="Tracé_949" data-name="Tracé 949" d="M315.24,100.69a19.945,19.945,0,0,0,.394,3.087,11.477,11.477,0,0,0,.783,3.01c.072,0-.24-1.368-.519-3.058A15.843,15.843,0,0,0,315.24,100.69Z" transform="translate(-63.354 -17.688)" fill="#fdb094"/>
      <path id="Tracé_950" data-name="Tracé 950" d="M314.13,127.326l1.119,8.748,5.766-1.575-1.57-9.449Z" transform="translate(-62.777 -30.352)" fill="#ffbe9d"/>
      <path id="Tracé_951" data-name="Tracé 951" d="M289.222,131.723l10.836,13.832-1.215-12.483,8.5-3.332s2.957,22.637,3.246,25.8c.168,1.81-2.669,4.671-7.547,5.651s-15.949-12.339-15.949-12.339Z" transform="translate(-48.719 -32.791)" fill="#ff476c"/>
      <path id="Tracé_952" data-name="Tracé 952" d="M261.79,123l1.887,1.719,12.392,3.5-1.44,16.833-1,26.944s6.121,13.664,4.623,14.062-5.483-2.492-5.483-2.492-5.478-7.927-5.881-10.75-4.292-19.891-4.292-19.891Z" transform="translate(-35.566 -29.286)" fill="#ff476c"/>
      <path id="Tracé_953" data-name="Tracé 953" d="M267.727,159.952a2.014,2.014,0,0,1,.038-.379c.043-.274.1-.634.163-1.085.149-.96.36-2.324.619-3.985.5-3.361,1.162-8.023,1.738-13.184.288-2.578.533-5.041.739-7.283.1-1.119.182-2.184.269-3.183.038-.48.12-1-.154-1.325a1.214,1.214,0,0,0-1.162-.226,5.089,5.089,0,0,1-1.219.139,2.322,2.322,0,0,1-1.051-.355,4.627,4.627,0,0,1-1.22-1.248,8.249,8.249,0,0,1-.586-.931,2.148,2.148,0,0,1-.182-.336,1.966,1.966,0,0,1,.221.312c.139.206.341.519.624.9a4.571,4.571,0,0,0,1.219,1.186,2.186,2.186,0,0,0,.984.317,5.135,5.135,0,0,0,1.181-.158,2.587,2.587,0,0,1,.672-.043.96.96,0,0,1,.663.322,1.12,1.12,0,0,1,.25.715,5.572,5.572,0,0,1-.034.749c-.077,1-.158,2.069-.25,3.188-.187,2.247-.427,4.71-.715,7.293-.576,5.166-1.263,9.823-1.815,13.184-.278,1.68-.519,3.034-.7,3.971-.086.451-.158.807-.211,1.075A2.625,2.625,0,0,1,267.727,159.952Z" transform="translate(-37.609 -31.143)" fill="#263238"/>
      <path id="Tracé_954" data-name="Tracé 954" d="M281.3,158.054a6.73,6.73,0,0,1-1.781.154,6.63,6.63,0,0,1-1.786-.1,12.794,12.794,0,0,1,3.567-.058Z" transform="translate(-43.853 -47.46)" fill="#263238"/>
      <path id="Tracé_955" data-name="Tracé 955" d="M282.609,218.921a6.333,6.333,0,0,1-.8-1.119c-.451-.711-1.042-1.724-1.652-2.881s-1.123-2.184-1.493-2.943a7.519,7.519,0,0,1-.557-1.248,7.5,7.5,0,0,1,.711,1.167c.413.739.96,1.772,1.56,2.909s1.171,2.151,1.584,2.881A9.148,9.148,0,0,1,282.609,218.921Z" transform="translate(-44.05 -74.897)" fill="#263238"/>
      <path id="Tracé_956" data-name="Tracé 956" d="M289.572,134.82c.067,0-.163,3.678-.519,8.205s-.715,8.205-.787,8.205.168-3.678.523-8.205S289.49,134.815,289.572,134.82Z" transform="translate(-49.324 -35.432)" fill="#263238"/>
      <path id="Tracé_957" data-name="Tracé 957" d="M314.741,172.047a5.81,5.81,0,0,1-.293-1.354,24.316,24.316,0,0,1-.158-3.327c0-1.3,0-2.468-.086-3.313a9.177,9.177,0,0,1-.115-1.373,5.29,5.29,0,0,1,.293,1.354,24.367,24.367,0,0,1,.158,3.332c0,1.3,0,2.463.086,3.308A11.121,11.121,0,0,1,314.741,172.047Z" transform="translate(-62.749 -49.916)" fill="#263238"/>
    </g>
  </g>
</svg>
