<svg xmlns="http://www.w3.org/2000/svg" width="45.605" height="34.002" viewBox="0 0 45.605 34.002">
  <g id="Groupe_151" data-name="Groupe 151" transform="translate(-8 -546.319)">
    <path id="Tracé_972" data-name="Tracé 972" d="M8,927.167v1.371H53.605v-1.371H8Z" transform="translate(0 -348.217)" fill="#fff"/>
    <path id="Tracé_973" data-name="Tracé 973" d="M346.742,831.167a2.742,2.742,0,1,0,2.742,2.742A2.745,2.745,0,0,0,346.742,831.167Zm0,4.113a1.371,1.371,0,1,1,1.371-1.371A1.372,1.372,0,0,1,346.742,835.28Z" transform="translate(-304.794 -260.442)" fill="#fff"/>
    <path id="Tracé_974" data-name="Tracé 974" d="M106.742,831.167a2.742,2.742,0,1,0,2.742,2.742A2.745,2.745,0,0,0,106.742,831.167Zm0,4.113a1.371,1.371,0,1,1,1.371-1.371A1.372,1.372,0,0,1,106.742,835.28Z" transform="translate(-87.084 -260.442)" fill="#fff"/>
    <path id="Tracé_975" data-name="Tracé 975" d="M41.836,651.637a4.123,4.123,0,1,1,4.413-4.113A4.275,4.275,0,0,1,41.836,651.637Zm10.3-10.253v1.342H50.663v-1.371h1.468C52.131,641.365,52.134,641.375,52.134,641.384Zm-2.017-4.021-7.127-1.423-5.028-6.091a7.424,7.424,0,0,0-4.342-2.533,6.348,6.348,0,0,1-.177,1.361,5.944,5.944,0,0,1,3.352,2.007l5.193,6.291a.744.744,0,0,0,.428.252l7.391,1.476a2.945,2.945,0,0,1,1.9,1.281H49.927a.712.712,0,0,0-.736.685v2.742a.712.712,0,0,0,.736.685h2.207v2.056a.712.712,0,0,1-.736.685H47.67a5.946,5.946,0,0,0-11.668,0H25.6a5.762,5.762,0,0,0-5.834-4.8,5.762,5.762,0,0,0-5.834,4.8H10.207a.712.712,0,0,1-.736-.685v-.685a.764.764,0,0,0,.52-.2l2.207-2.056a.662.662,0,0,0,.215-.485v-2.742a.712.712,0,0,0-.736-.685H9.471v-.4a8.458,8.458,0,0,1,1.729-5.11l1.474-1.962A5.968,5.968,0,0,1,17.09,629.5l2.325-.149A6.323,6.323,0,0,1,19.087,628l-2.1.134a7.462,7.462,0,0,0-5.519,2.907L10,633a9.755,9.755,0,0,0-2,5.9v7.257a2.138,2.138,0,0,0,2.207,2.056h3.728a5.762,5.762,0,0,0,5.834,4.8,5.762,5.762,0,0,0,5.834-4.8H36a5.946,5.946,0,0,0,11.668,0H51.4a2.138,2.138,0,0,0,2.207-2.056v-4.769A4.213,4.213,0,0,0,50.117,637.364ZM9.471,640.67h1.471v1.773l-1.471,1.371Zm10.3,10.967a4.123,4.123,0,1,1,0-8.225,4.123,4.123,0,1,1,0,8.225Z" transform="translate(0 -74.058)" fill="#fff"/>
    <path id="Tracé_976" data-name="Tracé 976" d="M66.61,665.121l-3.673-5.248a4.131,4.131,0,0,0-2.4-1.636A6.8,6.8,0,0,1,59.8,659.5a2.758,2.758,0,0,1,2.019,1.159l2.918,4.169H57.138v-3.186a6.656,6.656,0,0,1-1.371.451v2.736H48.913v-4.494l.651-.052a6.756,6.756,0,0,1-1.026-1.294l-2.759.221a4.128,4.128,0,0,0-3.16,1.919l-2.512,4.022a.686.686,0,0,0,.581,1.049H66.049a.684.684,0,0,0,.561-1.078Zm-19.068-.293H41.924l1.858-2.972a2.748,2.748,0,0,1,2.106-1.279l1.654-.133Z" transform="translate(-29.26 -102.329)" fill="#fff"/>
    <path id="Tracé_977" data-name="Tracé 977" d="M224,767.167h2.742v1.371H224Z" transform="translate(-196.046 -201.926)" fill="#fff"/>
    <path id="Tracé_978" data-name="Tracé 978" d="M128,767.167h2.742v1.371H128Z" transform="translate(-108.915 -201.926)" fill="#fff"/>
    <path id="Tracé_979" data-name="Tracé 979" d="M134.8,546.319a6.8,6.8,0,1,0,6.8,6.8A6.8,6.8,0,0,0,134.8,546.319Zm-.055,10.552a.651.651,0,0,1-.527.3h-.068a.674.674,0,0,1-.5-.247l-2.451-3.09,1.047-.693,1.853,2.336,3.732-6.13,1.134.586Z" transform="translate(-108.613)" fill="#fff"/>
  </g>
</svg>
