<svg xmlns="http://www.w3.org/2000/svg" width="223.919" height="185.051" viewBox="0 0 223.919 185.051">
  <g id="Groupe_146" data-name="Groupe 146" transform="translate(-100.321 -164.75)">
    <g id="freepik--background-simple--inject-2" transform="translate(114.824 170.052)">
      <path id="Tracé_648" data-name="Tracé 648" d="M401.038,246.064l-1.105-1.824c-9.338-15.363-26.214-24.658-44.012-23.53a46.164,46.164,0,0,0-6.816.936,50.6,50.6,0,0,0-36.09,31.366c-3.432,9.218-4.378,19.828-10.905,27.139-8.475,9.518-22.866,9.822-35.52,9.428s-27.049-.061-35.484,9.5c-5.285,5.986-6.961,14.5-6.538,22.515,1.131,21.226,15.916,40.2,34.725,49.633s40.953,10.277,61.539,6.13c28.833-5.809,56.254-21.775,72.741-46.429S414.227,272.676,401.038,246.064Z" transform="translate(-224.505 -220.618)" fill="#becbfc" opacity="0.3"/>
    </g>
    <g id="Groupe_145" data-name="Groupe 145" transform="translate(60.951 67.02)">
      <g id="freepik--Floor--inject-4" transform="translate(39.37 282.5)">
        <path id="Tracé_869" data-name="Tracé 869" d="M263.289,453.875c0,.073-50.13.135-111.954.135s-111.965-.052-111.965-.135,50.12-.135,111.965-.135S263.289,453.813,263.289,453.875Z" transform="translate(-39.37 -453.74)" fill="#263238"/>
      </g>
      <g id="freepik--Hourglass--inject-4" transform="translate(90.267 97.73)">
        <path id="Tracé_870" data-name="Tracé 870" d="M147.254,110.235a40.036,40.036,0,0,0,1.318,43.84c6.067,8.387,15.165,14.013,22.39,21.414s12.716,18.326,8.9,27.948c-3.882,9.794-15.253,13.774-23.765,19.982a44.915,44.915,0,0,0-10.837,61.357h88.449s15.539-29.609-4.437-52.181-30.7-22.935-29.967-37.737,11.1-19.6,17.018-25.156S251.1,151.21,234.078,110.23Z" transform="translate(-137.526 -103.742)" fill="#fafafa"/>
        <path id="Tracé_871" data-name="Tracé 871" d="M147.165,110.2h23.267l63.557-.047h.067v.062a81.483,81.483,0,0,1,3.322,9.524,55.405,55.405,0,0,1,1.879,10.38A41.11,41.11,0,0,1,238.7,141.1a35.329,35.329,0,0,1-4,10.681,38.3,38.3,0,0,1-3.332,4.832,44.145,44.145,0,0,1-4.074,4.36,59,59,0,0,1-4.624,3.918c-1.609,1.246-3.29,2.419-4.931,3.664-.82.618-1.557,1.313-2.356,2.009s-1.593,1.344-2.413,2c-1.635,1.308-3.285,2.6-4.842,4.043a25.9,25.9,0,0,0-7.266,10.422,25.417,25.417,0,0,0-1.37,6.394c-.047.519-.119,1.09-.14,1.64a14.589,14.589,0,0,0,0,1.65,18.43,18.43,0,0,0,.332,3.29,15.016,15.016,0,0,0,2.626,6.083,33.405,33.405,0,0,0,4.583,4.967c3.358,3.067,6.923,6,10.333,9.166s6.747,6.467,9.965,9.96a59.081,59.081,0,0,1,4.6,5.47,38.138,38.138,0,0,1,3.711,6.181,40.664,40.664,0,0,1,3.809,14.013,51.429,51.429,0,0,1-.862,14.74,60.6,60.6,0,0,1-1.9,7.235,53.173,53.173,0,0,1-2.8,6.981l-.036.073H145.1l-.036-.057a45.6,45.6,0,0,1-7.406-20.879,44.026,44.026,0,0,1,3.062-21.072,45.88,45.88,0,0,1,11.688-16.7,53.238,53.238,0,0,1,7.982-5.823c2.761-1.713,5.548-3.3,8.179-5.034a37.589,37.589,0,0,0,7.2-5.854,19.756,19.756,0,0,0,4.453-7.723,19.254,19.254,0,0,0,.353-8.621,28.229,28.229,0,0,0-2.735-7.925,38.692,38.692,0,0,0-4.453-6.747A53.305,53.305,0,0,0,168,172.814c-3.742-3.446-7.577-6.462-11.024-9.56-1.728-1.557-3.363-3.114-4.873-4.707a44.55,44.55,0,0,1-4.038-4.977,38.129,38.129,0,0,1-5.06-10.489,39.328,39.328,0,0,1-1.723-9.939c-.073-.768-.042-1.526-.042-2.268s0-1.464.067-2.164.1-1.386.156-2.076.192-1.308.28-1.936a36.947,36.947,0,0,1,3.467-10.992,13.93,13.93,0,0,1,.8-1.557l.638-1.085c.337-.576.519-.867.519-.867l-.519.882-.618,1.069a15.58,15.58,0,0,0-.789,1.557,37.12,37.12,0,0,0-3.425,11.008c-.088.623-.192,1.266-.27,1.925s-.1,1.349-.156,2.05-.052,1.422-.057,2.159a22.133,22.133,0,0,0,.047,2.263,39.012,39.012,0,0,0,1.739,9.9,37.9,37.9,0,0,0,5.055,10.448,43.713,43.713,0,0,0,4.033,4.951c1.505,1.6,3.14,3.156,4.868,4.671,3.446,3.114,7.266,6.1,11.034,9.55a53.7,53.7,0,0,1,5.429,5.662,39.045,39.045,0,0,1,4.479,6.794,28.334,28.334,0,0,1,2.761,7.977,19.449,19.449,0,0,1-.353,8.714,19.874,19.874,0,0,1-4.495,7.811,38.076,38.076,0,0,1-7.235,5.9c-2.642,1.739-5.429,3.327-8.185,5.04a53.357,53.357,0,0,0-7.951,5.8,45.7,45.7,0,0,0-11.62,16.608,43.767,43.767,0,0,0-3.036,20.963,45.392,45.392,0,0,0,7.37,20.76l-.1-.057H233.62l-.119.073a52.365,52.365,0,0,0,2.792-6.965,60.3,60.3,0,0,0,1.889-7.2,51.11,51.11,0,0,0,.856-14.667,40.24,40.24,0,0,0-3.784-13.935,38.119,38.119,0,0,0-3.68-6.14,60.6,60.6,0,0,0-4.578-5.45q-4.8-5.226-9.949-9.944c-3.4-3.161-6.96-6.088-10.328-9.171a34.032,34.032,0,0,1-4.624-5,15.312,15.312,0,0,1-2.694-6.161,19.573,19.573,0,0,1-.337-3.337c-.026-.555,0-1.111,0-1.666s.093-1.105.135-1.656a25.776,25.776,0,0,1,1.4-6.43,26.079,26.079,0,0,1,7.333-10.51c1.557-1.443,3.223-2.751,4.858-4.053.82-.654,1.624-1.313,2.408-1.988s1.557-1.4,2.367-2.024c1.65-1.246,3.327-2.419,4.931-3.659a59.737,59.737,0,0,0,4.614-3.9,44.812,44.812,0,0,0,4.053-4.334,39.409,39.409,0,0,0,3.316-4.806,35.078,35.078,0,0,0,3.976-10.608,40.862,40.862,0,0,0,.566-10.9,55.485,55.485,0,0,0-1.863-10.38,82.425,82.425,0,0,0-3.28-9.555l.088.057-63.521-.047H148.68Z" transform="translate(-137.437 -103.704)" fill="#263238"/>
        <path id="Tracé_872" data-name="Tracé 872" d="M238.21,149.4c13.027,2.143-7.51,25.218-19.141,34.322-6.747,5.268-13.961,10.987-17.158,18.918-3.633,9-.939,19.11-2.694,28.161a1.256,1.256,0,0,1-2.491-.265,100.131,100.131,0,0,0-1.038-17.729c-1.4-8.3-4.583-16.5-10.38-22.577-4.749-4.967-10.972-8.263-16.032-12.9-7.391-6.773-14.984-15.508-15.726-25.5,0,0,14.19-11.418,22.068-9.991,9.207,1.687,18.269,15.892,32.531,14.267C218.072,154.966,223.1,146.922,238.21,149.4Z" transform="translate(-145.187 -118.885)" fill="#becbfc"/>
        <path id="Tracé_873" data-name="Tracé 873" d="M236.031,380.282c-.327-3.259-1.2-6.944-4.09-8.48a8.061,8.061,0,0,0-5.8-.327c-1.92.5-3.721,1.381-5.621,1.946a18.406,18.406,0,0,1-11.506-.369c-3.534-1.3-6.565-3.633-9.861-5.491s-7.121-3.218-10.775-2.31c-6.3,1.557-9.581,9.155-15.809,10.987-2.771.81-5.745.353-8.558-.28s-5.642-1.458-8.522-1.349a9.454,9.454,0,0,0-6.2,2.413h0l-.042.047a6.112,6.112,0,0,0-.716.841,11.7,11.7,0,0,0-1.645,9.181,32.813,32.813,0,0,0,4.074,9.9c2.076,3.675,4.443,7.328,7.878,9.778,4.245,3.026,9.576.939,14.771,1.349,12.108.955,25.135,1.6,37.249.67,6.4-.519,12.394.2,17.47-3.732a20.662,20.662,0,0,0,7.017-11.294A38.8,38.8,0,0,0,236.031,380.282Z" transform="translate(-141.851 -226.268)" fill="#becbfc"/>
        <path id="Tracé_875" data-name="Tracé 875" d="M139.828,448.421s-.244-4.059,5.05-6.321H237.91s4.853,2.46,5.45,6.228Z" transform="translate(-138.586 -263.371)" fill="#687ec1"/>
        <path id="Tracé_876" data-name="Tracé 876" d="M241.893,104.716l-.151.067-87.478-.561s-.311-.2-.773-.566a3.316,3.316,0,0,1,2.076-5.927l84.909.685A3.316,3.316,0,0,1,241.893,104.716Z" transform="translate(-144.548 -97.73)" fill="#687ec1"/>
        <g id="Groupe_143" data-name="Groupe 143" transform="translate(25.355 39.255)" opacity="0.24">
          <path id="Tracé_877" data-name="Tracé 877" d="M244.268,174.468c.176.337-.483,1.038-1.733,2.18s-3.114,2.642-5.429,4.526a71.267,71.267,0,0,1-8.823,6.228,35.389,35.389,0,0,1-6.041,2.777,28.517,28.517,0,0,1-3.472.96,23.663,23.663,0,0,1-3.752.488,20.036,20.036,0,0,1-7.541-1.038,27.177,27.177,0,0,1-6.062-3.114c-1.744-1.152-3.244-2.294-4.671-3.389s-2.7-2.149-3.851-3.145c-4.593-3.981-7.012-6.908-6.545-7.474s3.737,1.277,8.823,4.391l4.152,2.543c1.49.9,3.083,1.9,4.713,2.829a26.39,26.39,0,0,0,5.112,2.31,16.409,16.409,0,0,0,5.626.664,29.819,29.819,0,0,0,11.2-3.228c3.348-1.619,6.379-3.508,9-4.982a45.353,45.353,0,0,1,6.5-3.166C243.121,174.25,244.117,174.141,244.268,174.468Z" transform="translate(-186.29 -173.364)" fill="#687ec1"/>
        </g>
        <path id="Tracé_878" data-name="Tracé 878" d="M235.98,334.161a1.506,1.506,0,1,1-.073.031" transform="translate(-184.379 -211.401)" fill="#becbfc"/>
        <path id="Tracé_879" data-name="Tracé 879" d="M165.171,166.733a2.263,2.263,0,0,1-.311-.311l-.846-.924c-.358-.41-.83-.887-1.313-1.495l-1.65-2.076c-.566-.8-1.2-1.661-1.848-2.6l-.95-1.51c-.161-.26-.332-.519-.488-.794l-.457-.841a35.106,35.106,0,0,1-3.223-7.759,32.692,32.692,0,0,1-1.225-8.3c0-.649.036-1.277.047-1.894a6.5,6.5,0,0,1,.042-.9c.042-.3.062-.586.093-.872.067-.571.109-1.126.187-1.656s.187-1.038.275-1.51c.145-.971.4-1.817.586-2.6.1-.374.176-.727.275-1.038l.285-.867.4-1.189a2.223,2.223,0,0,1,.156-.41,2.356,2.356,0,0,1-.1.426c-.088.3-.2.7-.353,1.2l-.26.867c-.088.317-.161.67-.254,1.038a22.639,22.639,0,0,0-.519,2.6c-.083.477-.166.981-.254,1.505s-.109,1.074-.171,1.645a8.462,8.462,0,0,1-.088.867c-.031.3,0,.6-.031.9,0,.612-.042,1.235-.036,1.879a32.892,32.892,0,0,0,1.209,8.257,35.716,35.716,0,0,0,3.181,7.712c.151.28.3.561.446.841s.327.519.483.789l.934,1.51c.633.955,1.261,1.817,1.811,2.6l1.619,2.076c.467.618.929,1.1,1.272,1.526l.81.96A3.623,3.623,0,0,1,165.171,166.733Z" transform="translate(-144.855 -111.9)" fill="#263238"/>
        <path id="Tracé_880" data-name="Tracé 880" d="M167.09,296.337a1.033,1.033,0,0,1,.093-.171l.311-.488c.14-.218.311-.478.519-.789l.327-.519c.13-.171.28-.343.431-.519l1.038-1.246c.4-.431.856-.877,1.339-1.365a35.135,35.135,0,0,1,3.56-3c2.756-2.076,6.311-4.152,10.162-6.586a58.064,58.064,0,0,0,5.828-4.105,27.2,27.2,0,0,0,5.226-5.522,26.143,26.143,0,0,0,4.23-13.925,32.94,32.94,0,0,0-1.993-11.833,44.139,44.139,0,0,0-3.436-7.37c-.483-.836-.877-1.469-1.147-1.9l-.306-.488c-.067-.109-.1-.171-.1-.171a.791.791,0,0,1,.119.156l.332.477c.285.415.7,1.038,1.189,1.874a42.11,42.11,0,0,1,3.529,7.359,32.906,32.906,0,0,1,2.076,11.9,27.986,27.986,0,0,1-.285,3.5,25.538,25.538,0,0,1-.763,3.586,24.3,24.3,0,0,1-3.265,6.991,27.375,27.375,0,0,1-5.283,5.579,58.894,58.894,0,0,1-5.86,4.111c-3.867,2.413-7.427,4.469-10.183,6.529a36.6,36.6,0,0,0-3.571,2.953c-.483.483-.945.919-1.349,1.344l-1.038,1.22c-.156.187-.306.358-.436.519l-.337.493-.519.773-.332.472A1.251,1.251,0,0,1,167.09,296.337Z" transform="translate(-151.7 -164.401)" fill="#263238"/>
        <path id="Tracé_881" data-name="Tracé 881" d="M153.7,369.61a1.629,1.629,0,0,1-.114.244l-.374.659c-.166.28-.363.633-.566,1.038s-.462.882-.68,1.427c-.114.27-.239.55-.363.841s-.228.612-.353.934c-.249.644-.446,1.349-.675,2.076a28.205,28.205,0,0,0-.919,10.006c.088.768.15,1.505.285,2.18.057.337.1.669.171.981s.14.612.208.9c.114.576.285,1.079.41,1.526s.249.83.363,1.142l.244.716a.9.9,0,0,1,.067.254.983.983,0,0,1-.119-.234c-.078-.192-.171-.42-.291-.7a11.229,11.229,0,0,1-.41-1.131c-.14-.446-.322-.95-.452-1.526-.073-.285-.145-.586-.223-.9s-.125-.649-.192-.986c-.145-.685-.218-1.422-.311-2.2a27.166,27.166,0,0,1,.924-10.069c.234-.747.441-1.458.706-2.1.13-.322.234-.638.368-.934l.384-.846c.228-.519.519-1,.721-1.417a10.7,10.7,0,0,1,.607-1.038l.415-.638C153.635,369.677,153.687,369.6,153.7,369.61Z" transform="translate(-143.134 -228.503)" fill="#263238"/>
        <path id="Tracé_882" data-name="Tracé 882" d="M236.851,393.649l-.1.073-.322.2-1.261.758-.913.519c-.343.192-.721.368-1.126.571-.82.394-1.723.9-2.792,1.3l-1.661.68c-.576.228-1.2.41-1.837.628-1.261.462-2.662.794-4.121,1.173a48.31,48.31,0,0,1-19.52.519c-1.484-.3-2.9-.561-4.183-.955-.644-.187-1.277-.332-1.868-.519l-1.692-.618c-1.085-.348-2.019-.8-2.855-1.152-.415-.182-.8-.343-1.152-.519l-.945-.493-1.3-.69-.332-.187-.109-.067a.274.274,0,0,1,.125.047l.343.161,1.318.644.95.467c.353.166.747.317,1.163.493.836.332,1.77.773,2.86,1.105l1.671.607c.592.2,1.225.337,1.868.519,1.282.384,2.688.628,4.152.924a49.341,49.341,0,0,0,19.421-.519c1.453-.374,2.849-.69,4.111-1.142.633-.213,1.256-.384,1.832-.612l1.661-.659c1.069-.394,1.977-.882,2.8-1.261.4-.2.789-.368,1.131-.519l.924-.519,1.282-.716.337-.176C236.809,393.66,236.851,393.644,236.851,393.649Z" transform="translate(-162.123 -240.066)" fill="#263238"/>
        <path id="Tracé_883" data-name="Tracé 883" d="M245.164,182a.565.565,0,0,1-.109.1l-.343.28c-.317.254-.758.612-1.323,1.038-1.152.913-2.823,2.237-4.936,3.815a71.332,71.332,0,0,1-7.718,5.149,34.817,34.817,0,0,1-4.972,2.289,22.654,22.654,0,0,1-5.74,1.277A21.8,21.8,0,0,1,209,193.652a37.4,37.4,0,0,1-4.261-2.533c-1.266-.893-2.424-1.759-3.446-2.6-2.076-1.65-3.664-3.047-4.785-4l-1.282-1.111-.327-.291-.109-.109s.047,0,.125.083l.348.275,1.313,1.069c1.142.934,2.771,2.3,4.837,3.934,1.038.815,2.185,1.671,3.457,2.554a37.875,37.875,0,0,0,4.24,2.491,21.722,21.722,0,0,0,10.9,2.247,22.49,22.49,0,0,0,5.673-1.256,34.8,34.8,0,0,0,4.941-2.258,74.616,74.616,0,0,0,7.728-5.04c2.118-1.557,3.8-2.855,4.982-3.742l1.355-1.038.358-.26A.468.468,0,0,1,245.164,182Z" transform="translate(-165.023 -138.263)" fill="#263238"/>
        <g id="Groupe_144" data-name="Groupe 144" transform="translate(33.332 156.228)" opacity="0.24">
          <path id="Tracé_884" data-name="Tracé 884" d="M201.66,400.46c2.46-1.9,5.917-1.443,8.958-.8s6.1,1.676,9.181,1.246c2.32-.327,4.448-1.464,6.747-1.962s5.065-.13,6.337,1.837a49.3,49.3,0,0,1-31.208-.322" transform="translate(-201.66 -398.745)"/>
        </g>
      </g>
    </g>
  </g>
</svg>
