<svg id="icon" xmlns="http://www.w3.org/2000/svg" width="58.333" height="20.221" viewBox="0 0 58.333 20.221">
  <path id="Tracé_958" data-name="Tracé 958" d="M240.026,404.392l-1.855-4.24c-.756,0-1.778.021-2.8,0-2.389-.057-3.491-1.932-2.389-4.068.515-1,1.069-1.974,1.61-2.957a3.045,3.045,0,0,1,1.7-1.582c.916-.365,1.445-1.7,2.365-2.9h-5.641V386.9c1.894,0,3.754.044,5.61-.025a8.127,8.127,0,0,0,1.8-.522,8.477,8.477,0,0,1,2.129-.551c6.039-.044,12.078-.014,18.116-.033a4.452,4.452,0,0,1,3.57,1.628c1.1,1.276,2.236,2.523,3.306,3.823a1.892,1.892,0,0,0,1.681.754c1.684-.051,3.37-.033,5.055-.011a3.378,3.378,0,0,1,3.292,4.9c-.542,1.343-1.122,2.671-1.733,4.119h-5.395l-1.767,3.3h4.12v1.7H233.03v-1.586Zm32.914-6.76v-1.758h3.123c.1-1.5-.414-2.136-1.748-2.163-1.918-.039-3.839-.047-5.756.005a2.145,2.145,0,0,1-1.916-.864c-1.15-1.416-2.357-2.788-3.6-4.124a3.068,3.068,0,0,0-1.563-1.085,38.544,38.544,0,0,0-4.225-.051v4.441h3.225V393.7H237.849c-1.828,0-1.982.13-2.447,2.077l1.4.125v1.63l-2.372.142-.044.386a6.48,6.48,0,0,0,1.2.333c.65.056,1.313-.029,1.963.027a2.338,2.338,0,0,0,2.24-.979,4.621,4.621,0,0,1,7.524.659c.216.356.393.736.6,1.128h12.895c2.656-4.648,6.162-4.635,9.407-.03h4.5l.56-1.565Zm-17.585-10.112c-4.406,0-8.651-.018-12.9.025a1.919,1.919,0,0,0-1.341.577c-.909,1.155-1.694,2.407-2.622,3.761h16.859Zm6.917,16.742-1.7-3.181H248.22l-1.733,3.181Zm-16.078-3.633a2.936,2.936,0,1,0-5.872-.091,3.032,3.032,0,0,0,2.984,2.929A2.93,2.93,0,0,0,246.193,400.63Zm22.2-.119a2.934,2.934,0,0,0-5.867.007,3.03,3.03,0,0,0,2.961,2.951A2.925,2.925,0,0,0,268.391,400.511Z" transform="translate(-220.115 -385.773)" fill="#4ed3af"/>
  <path id="Tracé_959" data-name="Tracé 959" d="M202.148,417.712V416.2h7.786v1.511Z" transform="translate(-198.255 -407.649)" fill="#4ed3af"/>
  <path id="Tracé_960" data-name="Tracé 960" d="M215.695,452.051v1.594h-5.526v-1.594Z" transform="translate(-204.022 -433.424)" fill="#4ed3af"/>
  <path id="Tracé_961" data-name="Tracé 961" d="M380.143,453.71V452.2h4.415v1.511Z" transform="translate(-326.226 -433.53)" fill="#4ed3af"/>
  <path id="Tracé_962" data-name="Tracé 962" d="M225.726,391.658h-1.551v-1.6h1.551Z" transform="translate(-214.091 -388.857)" fill="#4ed3af"/>
  <path id="Tracé_980" data-name="Tracé 980" d="M202.148,417.712V416.2H208.3v1.511Z" transform="translate(-202.148 -412.047)" fill="#4ed3af"/>
</svg>
