<svg xmlns="http://www.w3.org/2000/svg" width="29.176" height="31.676" viewBox="0 0 29.176 31.676">
  <g id="_35_loading" data-name="35 loading" transform="matrix(-0.966, 0.259, -0.259, -0.966, 29.176, 25.843)">
    <g id="Groupe_18" data-name="Groupe 18" transform="translate(14.572 23.3)">
      <g id="Groupe_17" data-name="Groupe 17" transform="translate(0 0)">
        <path id="Tracé_200" data-name="Tracé 200" d="M1.169,0A1.169,1.169,0,1,0,2.338,1.169,1.17,1.17,0,0,0,1.169,0Z" fill="#fff"/>
      </g>
    </g>
    <path id="Tracé_201" data-name="Tracé 201" d="M.005,1.28h0A1.169,1.169,0,1,0,1.171,0,1.169,1.169,0,0,0,.006,1.28Z" transform="translate(23.608 10.652)" fill="#fff"/>
    <path id="Tracé_202" data-name="Tracé 202" d="M.04.867A1.169,1.169,0,1,0,1.472.04a1.192,1.192,0,0,0-.3-.04A1.169,1.169,0,0,0,.04.867Z" transform="translate(23.259 14.854)" fill="#fff"/>
    <path id="Tracé_203" data-name="Tracé 203" d="M.218.489A1.169,1.169,0,1,0,1.17,0,1.17,1.17,0,0,0,.218.489Z" transform="translate(21.457 18.665)" fill="#fff"/>
    <path id="Tracé_204" data-name="Tracé 204" d="M.2,1.822A1.169,1.169,0,1,0,1.169,0,1.169,1.169,0,0,0,.2,1.822Z" transform="translate(18.432 21.606)" fill="#fff"/>
    <g id="Groupe_19" data-name="Groupe 19" transform="translate(22.465 6.591)">
      <path id="Tracé_205" data-name="Tracé 205" d="M1.169,0A1.169,1.169,0,1,0,2.338,1.169,1.17,1.17,0,0,0,1.169,0Z" transform="translate(0 0)" fill="#fff"/>
    </g>
    <path id="Tracé_207" data-name="Tracé 207" d="M1,2.338a1.166,1.166,0,0,0,.145-.684A1.169,1.169,0,0,0,0,.6,1.169,1.169,0,1,1,1,2.338Z" transform="translate(23.758 10.652)" fill="#fff"/>
    <path id="Tracé_208" data-name="Tracé 208" d="M2.149,1.472A1.169,1.169,0,0,1,1,2.338,1.17,1.17,0,0,0,0,.6,1.171,1.171,0,0,1,1.019,0a1.193,1.193,0,0,1,.3.04A1.17,1.17,0,0,1,2.149,1.472Z" transform="translate(23.409 14.854)" fill="#fff"/>
    <path id="Tracé_209" data-name="Tracé 209" d="M1.969,1.849A1.167,1.167,0,0,1,1,2.338,1.17,1.17,0,0,0,0,.6,1.169,1.169,0,1,1,1.969,1.849Z" transform="translate(21.607 18.665)" fill="#fff"/>
    <path id="Tracé_210" data-name="Tracé 210" d="M1.671,2.138a1.166,1.166,0,0,1-.678.2A1.167,1.167,0,0,0,.944,1.111,1.166,1.166,0,0,0,0,.6,1.167,1.167,0,0,1,1.986.516,1.169,1.169,0,0,1,1.671,2.138Z" transform="translate(18.586 21.606)" fill="#fff"/>
    <path id="Tracé_211" data-name="Tracé 211" d="M1.134,2.333a1.246,1.246,0,0,1-.139.005,1.164,1.164,0,0,0,.15-.573A1.171,1.171,0,0,0,0,.6,1.169,1.169,0,1,1,1.134,2.333Z" transform="translate(22.615 6.59)" fill="#fff"/>
    <g id="Groupe_20" data-name="Groupe 20" transform="translate(6.357 0)">
      <path id="Tracé_212" data-name="Tracé 212" d="M15.75,5.529a1.166,1.166,0,0,1-.8.265,1.171,1.171,0,0,0-.178-1.431A13.022,13.022,0,0,0,0,1.824,13.016,13.016,0,0,1,15.832,3.8a1.17,1.17,0,0,1-.082,1.732Z" transform="translate(0 0)" fill="#fff"/>
    </g>
    <path id="Tracé_206" data-name="Tracé 206" d="M22.107,5.529a1.168,1.168,0,0,1-1.567-.076A10.669,10.669,0,1,0,8.191,22.529l.376-1.54a.468.468,0,0,1,.787-.218l3.577,3.62a.468.468,0,0,1-.189.774L7.9,26.732a.467.467,0,0,1-.6-.556l.323-1.326A13.007,13.007,0,1,1,22.19,3.8,1.17,1.17,0,0,1,22.107,5.529Z" transform="translate(0 0)" fill="#fff"/>
  </g>
</svg>
